%TF.GenerationSoftware,KiCad,Pcbnew,9.0.7*%
%TF.CreationDate,2026-01-21T16:50:36+00:00*%
%TF.ProjectId,OE PyBoard tester,4f452050-7942-46f6-9172-642074657374,rev?*%
%TF.SameCoordinates,PX4feafc0PY9062e40*%
%TF.FileFunction,Copper,L2,Inr*%
%TF.FilePolarity,Positive*%
%FSLAX46Y46*%
G04 Gerber Fmt 4.6, Leading zero omitted, Abs format (unit mm)*
G04 Created by KiCad (PCBNEW 9.0.7) date 2026-01-21 16:50:36*
%MOMM*%
%LPD*%
G01*
G04 APERTURE LIST*
%TA.AperFunction,ComponentPad*%
%ADD10R,1.700000X1.700000*%
%TD*%
%TA.AperFunction,ComponentPad*%
%ADD11C,1.700000*%
%TD*%
%TA.AperFunction,ComponentPad*%
%ADD12C,2.000000*%
%TD*%
%TA.AperFunction,HeatsinkPad*%
%ADD13O,2.100000X1.000000*%
%TD*%
%TA.AperFunction,HeatsinkPad*%
%ADD14O,1.800000X1.000000*%
%TD*%
%TA.AperFunction,ViaPad*%
%ADD15C,0.550000*%
%TD*%
%TA.AperFunction,Conductor*%
%ADD16C,0.230000*%
%TD*%
%TA.AperFunction,Conductor*%
%ADD17C,0.220000*%
%TD*%
%TA.AperFunction,Conductor*%
%ADD18C,0.210000*%
%TD*%
%TA.AperFunction,Profile*%
%ADD19C,0.500000*%
%TD*%
G04 APERTURE END LIST*
D10*
%TO.N,V+#1*%
%TO.C,J5*%
X71514000Y101205200D03*
D11*
%TO.N,+3V3#1*%
X71514000Y98665200D03*
%TO.N,GND#1*%
X71514000Y96125200D03*
%TO.N,/~{RST}#1 actuador*%
X71514000Y93585200D03*
%TO.N,/module on test/PB1-Y12*%
X71514000Y91045200D03*
%TO.N,/module on test/PB0-Y11*%
X71514000Y88505200D03*
%TO.N,/module on test/PB11-Y10*%
X71514000Y85965200D03*
%TO.N,/module on test/PB10-Y9*%
X71514000Y83425200D03*
%TO.N,/module on test/PA3-X4*%
X71514000Y80885200D03*
%TO.N,/module on test/PA2-X3*%
X71514000Y78345200D03*
%TO.N,/module on test/PA1-X2*%
X71514000Y75805200D03*
%TO.N,/module on test/PA0-X1*%
X71514000Y73265200D03*
%TO.N,/module on test/PA3-X4*%
X71514000Y70725200D03*
%TO.N,/module on test/PA2-X3*%
X71514000Y68185200D03*
%TO.N,/module on test/PA1-X2*%
X71514000Y65645200D03*
%TO.N,/module on test/PA0-X1*%
X71514000Y63105200D03*
%TD*%
D12*
%TO.N,GND*%
%TO.C,TP27*%
X32990681Y66290144D03*
%TD*%
D10*
%TO.N,/PDI_DATA*%
%TO.C,J2*%
X73690000Y27325000D03*
D11*
%TO.N,+3V3*%
X73690000Y24785000D03*
%TO.N,unconnected-(J2-Pin_3-Pad3)*%
X71150000Y27325000D03*
%TO.N,unconnected-(J2-Pin_4-Pad4)*%
X71150000Y24785000D03*
%TO.N,/PDI_CLOCK*%
X68610000Y27325000D03*
%TO.N,GND*%
X68610000Y24785000D03*
%TD*%
D13*
%TO.N,Net-(J1-SHIELD)*%
%TO.C,J1*%
X106770000Y10130000D03*
D14*
X110950000Y10130000D03*
D13*
X106770000Y18770000D03*
D14*
X110950000Y18770000D03*
%TD*%
D12*
%TO.N,GND#1*%
%TO.C,TP6*%
X82014000Y98031867D03*
%TD*%
D10*
%TO.N,/module on test/PC4-X11*%
%TO.C,J4*%
X43580000Y101193200D03*
D11*
%TO.N,/module on test/PC5-X12*%
X43580000Y98653200D03*
%TO.N,/module on test/PB12-Y5*%
X43580000Y96113200D03*
%TO.N,/module on test/PB13-Y6*%
X43580000Y93573200D03*
%TO.N,/module on test/PB12-Y5*%
X43580000Y91033200D03*
%TO.N,/module on test/PB13-Y6*%
X43580000Y88493200D03*
%TO.N,/module on test/PB10-Y9*%
X43580000Y85953200D03*
%TO.N,/module on test/PB11-Y10*%
X43580000Y83413200D03*
%TO.N,/module on test/PB0-Y11*%
X43580000Y80873200D03*
%TO.N,/module on test/PB1-Y12*%
X43580000Y78333200D03*
%TO.N,/module on test/PC4-X11*%
X43580000Y75793200D03*
%TO.N,/module on test/PC5-X12*%
X43580000Y73253200D03*
%TO.N,/~{RST}#2 feedback*%
X43580000Y70713200D03*
%TO.N,GND*%
X43580000Y68173200D03*
%TO.N,+3V3#2*%
X43580000Y65633200D03*
%TO.N,V+#2*%
X43580000Y63093200D03*
%TD*%
D15*
%TO.N,Net-(U1-PC2{slash}OC0C{slash}RXD0)*%
X103475000Y85250000D03*
%TO.N,GND*%
X101200000Y53300000D03*
X101000000Y60775000D03*
X101550000Y44225000D03*
X101540095Y37891772D03*
X101500000Y30175000D03*
X101550000Y20475000D03*
X104122765Y19356499D03*
X101800000Y18375000D03*
X103950000Y13925000D03*
X104125000Y12325000D03*
X101925000Y11275000D03*
X102125000Y13800000D03*
X102050000Y15975000D03*
X55475000Y9275000D03*
X51350000Y9300000D03*
X54300000Y13900000D03*
%TO.N,Net-(U1-PC2{slash}OC0C{slash}RXD0)*%
X52900000Y4525000D03*
%TO.N,Net-(U1-PC3{slash}OC0D{slash}TXD0)*%
X53650000Y4550000D03*
%TO.N,Net-(U1-PC2{slash}OC0C{slash}RXD0)*%
X101200000Y2975000D03*
%TO.N,Net-(U1-PC3{slash}OC0D{slash}TXD0)*%
X101162500Y3937500D03*
X102850000Y75850000D03*
%TO.N,GND*%
X92000000Y44775000D03*
X110175000Y57700000D03*
X88525000Y53325000D03*
%TO.N,/OK_LED*%
X95850000Y36850000D03*
%TO.N,/NOK_LED*%
X98000000Y36950000D03*
%TO.N,GND*%
X107025000Y38050000D03*
X107225000Y47100000D03*
%TO.N,+3V3#2*%
X38700000Y38350000D03*
%TO.N,V+#2*%
X38750000Y45500000D03*
X39650000Y33500000D03*
X89100000Y33050000D03*
%TO.N,V+#1*%
X75900000Y45900000D03*
%TO.N,+3V3#1*%
X75900000Y39200000D03*
%TO.N,/module on test/PB1-Y12*%
X51400000Y90755200D03*
%TO.N,/module on test/PB0-Y11*%
X50450000Y88505200D03*
%TO.N,/module on test/PB13-Y6*%
X51550000Y21200000D03*
%TO.N,/module on test/PB10-Y9*%
X50450000Y21400000D03*
%TO.N,/~{RST}#2 feedback*%
X48800000Y22300000D03*
%TO.N,GND*%
X66850000Y24050000D03*
X49250000Y68800000D03*
X73950000Y70700000D03*
X3125000Y67075000D03*
X87150000Y17200000D03*
X74150000Y61650000D03*
X74350000Y45600000D03*
X49500000Y46350000D03*
X85950000Y46550000D03*
X15475000Y60875000D03*
X73350000Y32100000D03*
X47400000Y84500000D03*
X66050000Y34050000D03*
X101237500Y64938800D03*
X61400000Y36900000D03*
X56400000Y17800000D03*
X103967500Y5600000D03*
X64000000Y32050000D03*
X63562500Y36838800D03*
X48150000Y43100000D03*
X49563500Y15900000D03*
X72300000Y14575000D03*
X56400000Y21550000D03*
X110475000Y52300000D03*
X76950000Y93850000D03*
X110500000Y63200000D03*
X97400000Y9950000D03*
X46600000Y32450000D03*
X91650000Y92700000D03*
X93000000Y103250000D03*
X49225000Y1975000D03*
X63700000Y59050000D03*
X63850000Y82300000D03*
X97825000Y1925000D03*
X50150000Y89700000D03*
X57375000Y112500000D03*
X19525000Y112450000D03*
X41100000Y31650000D03*
X104100000Y100150000D03*
X53000000Y46850000D03*
X90300000Y67650000D03*
X80075000Y14550000D03*
X103867500Y21500000D03*
X74100000Y87700000D03*
X53050000Y57250000D03*
X90150000Y28050000D03*
X49250000Y53750000D03*
X54550000Y17800000D03*
X89300000Y29850000D03*
X67050000Y106750000D03*
X82700000Y18950000D03*
X104137500Y61788800D03*
X88650000Y80650000D03*
X93700000Y6050000D03*
X110925000Y93500000D03*
X52700000Y77950000D03*
X56950000Y39050000D03*
X54550000Y21550000D03*
X110075000Y33100000D03*
X35850000Y57700000D03*
X86900000Y58050000D03*
X36200000Y24050000D03*
X58300000Y19650000D03*
X17050000Y39900000D03*
X48200000Y36400000D03*
X45950000Y79700000D03*
X63950000Y89600000D03*
X95000000Y112325000D03*
X86900000Y51400000D03*
X105250000Y106350000D03*
X40950000Y36393200D03*
X38900000Y36250000D03*
X39800000Y49550000D03*
X84550000Y19250000D03*
X49200000Y60650000D03*
X81350000Y32100000D03*
X49050000Y107050000D03*
X59000000Y53450000D03*
X58300000Y21550000D03*
X63150000Y75650000D03*
X87050000Y25350000D03*
X101200000Y13245000D03*
X71000000Y45700000D03*
X110800000Y112150000D03*
X66100000Y84850000D03*
X86500000Y34200000D03*
X3250000Y97725000D03*
X57600000Y29100000D03*
X56400000Y19650000D03*
X53000000Y82600000D03*
X48200000Y38343200D03*
X81300000Y46000000D03*
X75912500Y41088800D03*
X52700000Y84600000D03*
X57950000Y72800000D03*
X46750000Y26600000D03*
X2825000Y86700000D03*
X76900000Y73850000D03*
X66300000Y66700000D03*
X71950000Y19300000D03*
X74200000Y97100000D03*
X13600000Y105050000D03*
X63850000Y67750000D03*
X86050000Y106850000D03*
X89100000Y17250000D03*
X12550000Y79150000D03*
X93350000Y80750000D03*
X46650000Y36350000D03*
X58300000Y17800000D03*
X96137500Y72538800D03*
X65900000Y43050000D03*
X73900000Y79450000D03*
X65350000Y73250000D03*
X65400000Y48150000D03*
X62800000Y28400000D03*
X63512500Y42888800D03*
X49500000Y71850000D03*
X74300000Y49800000D03*
X30100000Y107150000D03*
X63850000Y40650000D03*
X52750000Y67850000D03*
X56400000Y28100000D03*
X68150000Y69200000D03*
X86782500Y4850000D03*
X27700000Y17000000D03*
X65900000Y37050000D03*
X54000000Y44425000D03*
X3025000Y46700000D03*
X58400000Y12450000D03*
X97200000Y44300000D03*
X21800000Y91500000D03*
X55700000Y32300000D03*
X63900000Y48950000D03*
X52950000Y36593200D03*
X48300000Y45075000D03*
X75912500Y35238800D03*
X87050000Y24550000D03*
X3825000Y26200000D03*
X93950000Y59500000D03*
X71762500Y33838800D03*
X72300000Y2150000D03*
X58500000Y34050000D03*
X84550000Y16950000D03*
X75800000Y26800000D03*
X61700000Y12350000D03*
X22450000Y67950000D03*
X74500000Y15700000D03*
X40950000Y43000000D03*
X63650000Y23800000D03*
X46650000Y15100000D03*
X76800000Y65150000D03*
X106050000Y25100000D03*
X2375000Y2000000D03*
X97075000Y16675000D03*
X90750000Y19800000D03*
X50975000Y14850000D03*
X81700000Y38850000D03*
X45800000Y77350000D03*
X92950000Y40950000D03*
X103917500Y7500000D03*
X58250000Y89550000D03*
X76450000Y112225000D03*
X77200000Y59350000D03*
X65450000Y80000000D03*
X41500000Y47600000D03*
X110375000Y41400000D03*
X52600000Y91500000D03*
X104450000Y11250000D03*
X55900000Y35250000D03*
X86350000Y41300000D03*
X46400000Y87800000D03*
X104500000Y18150000D03*
X106550000Y4300000D03*
X40100000Y62100000D03*
X29750000Y2650000D03*
X38500000Y40700000D03*
X86900000Y31900000D03*
X20650000Y27100000D03*
X81750000Y35500000D03*
X57100000Y42600000D03*
X40500000Y38450000D03*
X97275000Y30200000D03*
X16950000Y51325000D03*
X51900000Y23150000D03*
X48000000Y32400000D03*
X12625000Y11175000D03*
X49800000Y44200000D03*
X67550000Y19200000D03*
X38790000Y34200000D03*
X110575000Y2550000D03*
X49950000Y84650000D03*
X73512500Y37138800D03*
X30200000Y50500000D03*
X86500000Y6500000D03*
X38000000Y112700000D03*
X54550000Y19650000D03*
X97100000Y23175000D03*
X76950000Y84550000D03*
X51350000Y32100000D03*
X81650000Y25600000D03*
X49050000Y14000000D03*
X38710000Y42950000D03*
X91120000Y24450000D03*
X77600000Y5050000D03*
X63950000Y34000000D03*
X40100000Y56700000D03*
X71050000Y29500000D03*
X100850000Y18550000D03*
X93780000Y24450000D03*
X51150000Y25450000D03*
X69700000Y94700000D03*
X75050000Y99650000D03*
X48050000Y33800000D03*
X73512500Y43088800D03*
X77050000Y52750000D03*
X53400000Y33800000D03*
X49550000Y82450000D03*
X104137500Y75238800D03*
X81600000Y42650000D03*
X64650000Y9550000D03*
X2894469Y111735997D03*
X32400000Y36550000D03*
X110800000Y75600000D03*
X96800000Y100300000D03*
X51250000Y19000000D03*
X68350000Y12250000D03*
X46600000Y20450000D03*
X61300000Y42950000D03*
X74200000Y56000000D03*
X77050000Y45550000D03*
X63900000Y20950000D03*
X66550000Y31600000D03*
%TO.N,/STATE_LED*%
X57930999Y24458310D03*
X62000000Y16935000D03*
%TO.N,/~{RST}#1 actuador*%
X64565000Y18535000D03*
%TO.N,/V+#1_chck*%
X57850000Y44056300D03*
X57550000Y31600000D03*
%TO.N,/+3V3#1_chck*%
X56900000Y38000000D03*
X56686622Y31563937D03*
%TO.N,/V+#1_ok*%
X54650000Y14650000D03*
X65150000Y15000000D03*
X65500000Y46300000D03*
%TO.N,/+3V3#1_ok*%
X55050000Y13550000D03*
X65800000Y32450000D03*
X65800000Y14136000D03*
%TO.N,/V+#2_ok*%
X55750000Y12800000D03*
X47500000Y12800000D03*
X48875000Y47500000D03*
%TO.N,/+3V3#2_ok*%
X48216000Y31550000D03*
X48100000Y12000000D03*
X56350000Y12000000D03*
%TO.N,/module on test/PC5-X12*%
X39500000Y100918533D03*
%TO.N,/module on test/PB11-Y10*%
X49400000Y21500000D03*
%TO.N,/module on test/PA1-X2*%
X68814000Y75805200D03*
%TO.N,/module on test/PA0-X1*%
X67464000Y73255200D03*
%TO.N,/module on test/PA2-X3*%
X65964000Y78355200D03*
X65964000Y68205200D03*
%TO.N,+3V3*%
X60900000Y21050000D03*
X62500000Y25150000D03*
X67050000Y37150000D03*
X83500000Y4850000D03*
X82900000Y34200000D03*
X49550000Y19900000D03*
X83100000Y25450000D03*
X58250000Y13551000D03*
X61300000Y19150000D03*
X83200000Y40000000D03*
X47050000Y45800000D03*
X84900000Y42800000D03*
X82950000Y30450000D03*
X83150000Y45400000D03*
X84900000Y21300000D03*
X84870000Y23570000D03*
X84500000Y32050000D03*
X67278367Y41128367D03*
X83000000Y20500000D03*
X46700000Y39022000D03*
X83200000Y23000000D03*
X84850000Y28550000D03*
X56528500Y24728500D03*
X84900000Y36950000D03*
%TO.N,/FTDI_CTS*%
X81150000Y9750000D03*
X89100000Y10000000D03*
%TO.N,/RST#1_LED*%
X59559022Y12200000D03*
X97687500Y72938800D03*
X99350000Y9700000D03*
%TO.N,/RST#2_LED*%
X60300000Y12850000D03*
X99345384Y10700000D03*
X96987500Y69838800D03*
%TO.N,/SUPPLY_LED*%
X99200000Y11700000D03*
X96402500Y66561200D03*
X60000000Y15350000D03*
%TO.N,/IOs_LED*%
X60350000Y16350000D03*
X98570000Y13180000D03*
X95862500Y63338800D03*
%TO.N,/OK_LED*%
X97409384Y14090616D03*
X51050000Y17200000D03*
%TO.N,/NOK_LED*%
X52050000Y16275000D03*
X97575000Y13250000D03*
%TO.N,GND*%
X104062500Y59288800D03*
%TD*%
D16*
%TO.N,/module on test/PB13-Y6*%
X50400000Y42642366D02*
X51557999Y43800365D01*
X51550000Y21200000D02*
X50400000Y22350000D01*
X51557999Y85292001D02*
X49800000Y87050000D01*
X50400000Y22350000D02*
X50400000Y42642366D01*
X45023200Y87050000D02*
X43580000Y88493200D01*
X51557999Y43800365D02*
X51557999Y85292001D01*
X49800000Y87050000D02*
X45023200Y87050000D01*
D17*
%TO.N,/module on test/PB10-Y9*%
X49900000Y21950000D02*
X49900000Y42766034D01*
X49900000Y42766034D02*
X51116999Y43983033D01*
X51116999Y43983033D02*
X51116999Y84833001D01*
X51116999Y84833001D02*
X49996800Y85953200D01*
X49996800Y85953200D02*
X43580000Y85953200D01*
X50450000Y21400000D02*
X49900000Y21950000D01*
D16*
%TO.N,/~{RST}#2 feedback*%
X48886800Y70713200D02*
X43580000Y70713200D01*
X50150000Y69450000D02*
X48886800Y70713200D01*
X48800000Y22300000D02*
X48806000Y22306000D01*
X48806000Y44128602D02*
X50150000Y45472602D01*
X50150000Y45472602D02*
X50150000Y69450000D01*
X48806000Y22306000D02*
X48806000Y44128602D01*
D17*
%TO.N,/STATE_LED*%
X62950000Y22850000D02*
X61900000Y23900000D01*
X58489309Y23900000D02*
X57930999Y24458310D01*
X61900000Y23900000D02*
X58489309Y23900000D01*
X62950000Y17325000D02*
X62950000Y22850000D01*
X62000000Y16935000D02*
X62560000Y16935000D01*
X62560000Y16935000D02*
X62950000Y17325000D01*
D18*
%TO.N,/~{RST}#1 actuador*%
X64734000Y19509000D02*
X64734000Y92584000D01*
X64734000Y92584000D02*
X65735200Y93585200D01*
X64565000Y18535000D02*
X64565000Y19340000D01*
X64565000Y19340000D02*
X64734000Y19509000D01*
X65735200Y93585200D02*
X71514000Y93585200D01*
D17*
%TO.N,/V+#1_chck*%
X57550000Y31600000D02*
X57550000Y34579000D01*
X57850000Y34879000D02*
X57850000Y44056300D01*
X57550000Y34579000D02*
X57850000Y34879000D01*
%TO.N,/+3V3#1_chck*%
X56950000Y35150000D02*
X56950000Y37950000D01*
X56950000Y37950000D02*
X56900000Y38000000D01*
X56686622Y34886622D02*
X56950000Y35150000D01*
X56686622Y31563937D02*
X56686622Y34886622D01*
%TO.N,/V+#1_ok*%
X65150000Y15000000D02*
X65150000Y45950000D01*
X65150000Y45950000D02*
X65500000Y46300000D01*
%TO.N,/+3V3#1_ok*%
X65800000Y14136000D02*
X65800000Y32450000D01*
%TO.N,/V+#2_ok*%
X48875000Y45328730D02*
X48875000Y47500000D01*
X47500000Y12800000D02*
X47500000Y31028730D01*
X47400000Y43346270D02*
X48886000Y44832270D01*
X48886000Y45317730D02*
X48875000Y45328730D01*
X47400000Y31128730D02*
X47400000Y43346270D01*
X47500000Y31028730D02*
X47400000Y31128730D01*
X48886000Y44832270D02*
X48886000Y45317730D01*
%TO.N,/+3V3#2_ok*%
X48100000Y12200000D02*
X48100000Y12000000D01*
X48216000Y22544730D02*
X48214000Y22542730D01*
X48216000Y12316000D02*
X48100000Y12200000D01*
X48216000Y31550000D02*
X48216000Y22544730D01*
X48214000Y22057270D02*
X48216000Y22055270D01*
X48214000Y22542730D02*
X48214000Y22057270D01*
X48216000Y22055270D02*
X48216000Y12316000D01*
%TO.N,/module on test/PB11-Y10*%
X50656000Y82994000D02*
X50236800Y83413200D01*
X49400000Y42917986D02*
X50656000Y44173986D01*
X50656000Y44173986D02*
X50656000Y82994000D01*
X49400000Y21500000D02*
X49400000Y42917986D01*
X50236800Y83413200D02*
X43580000Y83413200D01*
%TO.N,+3V3*%
X83500000Y4850000D02*
X83881500Y5231500D01*
X83881500Y21581500D02*
X83900000Y21600000D01*
X83881500Y5231500D02*
X83881500Y21581500D01*
%TD*%
%TA.AperFunction,Conductor*%
%TO.N,+3V3*%
G36*
X85343039Y45830315D02*
G01*
X85388794Y45777511D01*
X85400000Y45726000D01*
X85400000Y19974000D01*
X85380315Y19906961D01*
X85327511Y19861206D01*
X85276000Y19850000D01*
X82574000Y19850000D01*
X82506961Y19869685D01*
X82461206Y19922489D01*
X82450000Y19974000D01*
X82450000Y45726000D01*
X82469685Y45793039D01*
X82522489Y45838794D01*
X82574000Y45850000D01*
X85276000Y45850000D01*
X85343039Y45830315D01*
G37*
%TD.AperFunction*%
%TD*%
%TA.AperFunction,Conductor*%
%TO.N,GND*%
G36*
X48409834Y43814476D02*
G01*
X48465767Y43772604D01*
X48490184Y43707140D01*
X48490500Y43698294D01*
X48490500Y32130322D01*
X48470815Y32063283D01*
X48418011Y32017528D01*
X48348853Y32007584D01*
X48334407Y32010547D01*
X48278601Y32025500D01*
X48153399Y32025500D01*
X48097595Y32010547D01*
X48032463Y31993095D01*
X47924037Y31930496D01*
X47924034Y31930494D01*
X47922181Y31928640D01*
X47920232Y31927577D01*
X47917591Y31925549D01*
X47917274Y31925962D01*
X47860858Y31895155D01*
X47791166Y31900139D01*
X47735233Y31942011D01*
X47710816Y32007475D01*
X47710500Y32016321D01*
X47710500Y43166294D01*
X47730185Y43233333D01*
X47746819Y43253975D01*
X48278819Y43785975D01*
X48340142Y43819460D01*
X48409834Y43814476D01*
G37*
%TD.AperFunction*%
%TA.AperFunction,Conductor*%
G36*
X50264834Y45038737D02*
G01*
X50320767Y44996865D01*
X50345184Y44931401D01*
X50345500Y44922555D01*
X50345500Y44353962D01*
X50325815Y44286923D01*
X50309181Y44266281D01*
X49333181Y43290281D01*
X49271858Y43256796D01*
X49202166Y43261780D01*
X49146233Y43303652D01*
X49121816Y43369116D01*
X49121500Y43377962D01*
X49121500Y43946555D01*
X49141185Y44013594D01*
X49157819Y44034236D01*
X50133819Y45010236D01*
X50195142Y45043721D01*
X50264834Y45038737D01*
G37*
%TD.AperFunction*%
%TA.AperFunction,Conductor*%
G36*
X110724143Y113571917D02*
G01*
X110944783Y113554910D01*
X110964050Y113551887D01*
X111174515Y113501631D01*
X111193068Y113495624D01*
X111305429Y113449194D01*
X111393051Y113412987D01*
X111410428Y113404148D01*
X111454272Y113377309D01*
X111594986Y113291170D01*
X111610769Y113279709D01*
X111775312Y113139201D01*
X111789103Y113125408D01*
X111815461Y113094528D01*
X111929585Y112960828D01*
X111941042Y112945042D01*
X112053977Y112760469D01*
X112062817Y112743084D01*
X112145414Y112543083D01*
X112151416Y112524530D01*
X112201627Y112314055D01*
X112204647Y112294786D01*
X112221608Y112074165D01*
X112221973Y112064412D01*
X112036261Y19373510D01*
X112016442Y19306510D01*
X111963546Y19260861D01*
X111894368Y19251056D01*
X111830871Y19280208D01*
X111824580Y19286077D01*
X111796545Y19314112D01*
X111796541Y19314115D01*
X111681817Y19390772D01*
X111681804Y19390779D01*
X111554332Y19443579D01*
X111554322Y19443582D01*
X111418995Y19470500D01*
X111418993Y19470500D01*
X110481007Y19470500D01*
X110481005Y19470500D01*
X110345677Y19443582D01*
X110345667Y19443579D01*
X110218195Y19390779D01*
X110218182Y19390772D01*
X110103458Y19314115D01*
X110103454Y19314112D01*
X110005888Y19216546D01*
X110005885Y19216542D01*
X109929228Y19101818D01*
X109929221Y19101805D01*
X109876421Y18974333D01*
X109876418Y18974323D01*
X109849500Y18838996D01*
X109849500Y18838993D01*
X109849500Y18701007D01*
X109849500Y18701005D01*
X109849499Y18701005D01*
X109876418Y18565678D01*
X109876421Y18565668D01*
X109929221Y18438196D01*
X109929228Y18438183D01*
X110005885Y18323459D01*
X110005888Y18323455D01*
X110103454Y18225889D01*
X110103458Y18225886D01*
X110218182Y18149229D01*
X110218195Y18149222D01*
X110345667Y18096422D01*
X110345672Y18096420D01*
X110345676Y18096420D01*
X110345677Y18096419D01*
X110481004Y18069500D01*
X110481007Y18069500D01*
X111418995Y18069500D01*
X111510041Y18087611D01*
X111554328Y18096420D01*
X111681811Y18149225D01*
X111796542Y18225886D01*
X111822155Y18251500D01*
X111883476Y18284984D01*
X111953168Y18280000D01*
X112009102Y18238130D01*
X112033520Y18172666D01*
X112033836Y18163570D01*
X112018985Y10750786D01*
X111999166Y10683786D01*
X111946270Y10638137D01*
X111877092Y10628332D01*
X111813595Y10657484D01*
X111807304Y10663353D01*
X111796545Y10674112D01*
X111796541Y10674115D01*
X111681817Y10750772D01*
X111681804Y10750779D01*
X111554332Y10803579D01*
X111554322Y10803582D01*
X111418995Y10830500D01*
X111418993Y10830500D01*
X110481007Y10830500D01*
X110481005Y10830500D01*
X110345677Y10803582D01*
X110345667Y10803579D01*
X110218195Y10750779D01*
X110218182Y10750772D01*
X110103458Y10674115D01*
X110103454Y10674112D01*
X110005888Y10576546D01*
X110005885Y10576542D01*
X109929228Y10461818D01*
X109929221Y10461805D01*
X109876421Y10334333D01*
X109876418Y10334323D01*
X109849500Y10198996D01*
X109849500Y10198993D01*
X109849500Y10061007D01*
X109849500Y10061005D01*
X109849499Y10061005D01*
X109876418Y9925678D01*
X109876421Y9925668D01*
X109929221Y9798196D01*
X109929228Y9798183D01*
X110005885Y9683459D01*
X110005888Y9683455D01*
X110103454Y9585889D01*
X110103458Y9585886D01*
X110218182Y9509229D01*
X110218195Y9509222D01*
X110341773Y9458035D01*
X110345672Y9456420D01*
X110345676Y9456420D01*
X110345677Y9456419D01*
X110481004Y9429500D01*
X110481007Y9429500D01*
X111418995Y9429500D01*
X111510041Y9447611D01*
X111554328Y9456420D01*
X111652924Y9497260D01*
X111681804Y9509222D01*
X111681804Y9509223D01*
X111681811Y9509225D01*
X111796542Y9585886D01*
X111804808Y9594153D01*
X111866128Y9627638D01*
X111935820Y9622656D01*
X111991755Y9580787D01*
X112016175Y9515324D01*
X112016491Y9506225D01*
X112003003Y2774151D01*
X112002603Y2764446D01*
X111984928Y2544944D01*
X111981860Y2525777D01*
X111931291Y2316465D01*
X111925270Y2298012D01*
X111842654Y2099152D01*
X111833827Y2081865D01*
X111721193Y1898338D01*
X111709776Y1882639D01*
X111569876Y1718933D01*
X111556150Y1705210D01*
X111392417Y1565343D01*
X111376721Y1553932D01*
X111193166Y1441331D01*
X111175877Y1432507D01*
X110977001Y1349931D01*
X110958548Y1343914D01*
X110749226Y1293386D01*
X110730057Y1290322D01*
X110510552Y1272690D01*
X110500848Y1272292D01*
X2828896Y1077718D01*
X2819170Y1078083D01*
X2599176Y1094990D01*
X2579960Y1097996D01*
X2370049Y1147969D01*
X2351540Y1153944D01*
X2152033Y1236123D01*
X2134685Y1244918D01*
X1950480Y1357285D01*
X1934721Y1368685D01*
X1770353Y1508474D01*
X1756571Y1522198D01*
X1616087Y1685966D01*
X1604620Y1701676D01*
X1602444Y1705209D01*
X1491465Y1885410D01*
X1482604Y1902704D01*
X1399572Y2101870D01*
X1393519Y2120354D01*
X1342656Y2330040D01*
X1339567Y2349243D01*
X1321723Y2569176D01*
X1321317Y2578900D01*
X1320796Y2791464D01*
X1317837Y4000101D01*
X100687000Y4000101D01*
X100687000Y3874899D01*
X100719405Y3753964D01*
X100782005Y3645536D01*
X100870536Y3557005D01*
X100880179Y3551438D01*
X100882113Y3550321D01*
X100930328Y3499753D01*
X100943550Y3431146D01*
X100917582Y3366281D01*
X100907794Y3355253D01*
X100819503Y3266963D01*
X100756905Y3158537D01*
X100756905Y3158536D01*
X100724500Y3037601D01*
X100724500Y2912399D01*
X100756905Y2791464D01*
X100819505Y2683036D01*
X100908036Y2594505D01*
X101016464Y2531905D01*
X101137399Y2499500D01*
X101137401Y2499500D01*
X101262599Y2499500D01*
X101262601Y2499500D01*
X101383536Y2531905D01*
X101491964Y2594505D01*
X101580495Y2683036D01*
X101643095Y2791464D01*
X101675500Y2912399D01*
X101675500Y3037601D01*
X101643095Y3158536D01*
X101580495Y3266964D01*
X101491964Y3355495D01*
X101488635Y3357417D01*
X101480384Y3362181D01*
X101432170Y3412750D01*
X101418949Y3481357D01*
X101444918Y3546221D01*
X101454690Y3557232D01*
X101542995Y3645536D01*
X101605595Y3753964D01*
X101638000Y3874899D01*
X101638000Y4000101D01*
X101605595Y4121036D01*
X101542995Y4229464D01*
X101454464Y4317995D01*
X101346036Y4380595D01*
X101346037Y4380595D01*
X101305724Y4391397D01*
X101225101Y4413000D01*
X101099899Y4413000D01*
X101019275Y4391397D01*
X100978963Y4380595D01*
X100870537Y4317996D01*
X100870534Y4317994D01*
X100782006Y4229466D01*
X100782004Y4229463D01*
X100719405Y4121037D01*
X100708920Y4081906D01*
X100687000Y4000101D01*
X1317837Y4000101D01*
X1316398Y4587601D01*
X52424500Y4587601D01*
X52424500Y4462399D01*
X52456905Y4341464D01*
X52519505Y4233036D01*
X52608036Y4144505D01*
X52716464Y4081905D01*
X52837399Y4049500D01*
X52837401Y4049500D01*
X52962599Y4049500D01*
X52962601Y4049500D01*
X53083536Y4081905D01*
X53191964Y4144505D01*
X53201318Y4153860D01*
X53262638Y4187345D01*
X53332330Y4182363D01*
X53350999Y4173568D01*
X53358035Y4169506D01*
X53358036Y4169505D01*
X53466464Y4106905D01*
X53587399Y4074500D01*
X53587401Y4074500D01*
X53712599Y4074500D01*
X53712601Y4074500D01*
X53833536Y4106905D01*
X53941964Y4169505D01*
X54030495Y4258036D01*
X54093095Y4366464D01*
X54125500Y4487399D01*
X54125500Y4612601D01*
X54093095Y4733536D01*
X54030495Y4841964D01*
X53941964Y4930495D01*
X53833536Y4993095D01*
X53833537Y4993095D01*
X53793224Y5003897D01*
X53712601Y5025500D01*
X53587399Y5025500D01*
X53506775Y5003897D01*
X53466463Y4993095D01*
X53358037Y4930496D01*
X53358033Y4930493D01*
X53348677Y4921137D01*
X53287353Y4887654D01*
X53217662Y4892641D01*
X53199000Y4901433D01*
X53083536Y4968095D01*
X53083537Y4968095D01*
X53043224Y4978897D01*
X52962601Y5000500D01*
X52837399Y5000500D01*
X52756775Y4978897D01*
X52716463Y4968095D01*
X52608037Y4905496D01*
X52608034Y4905494D01*
X52519506Y4816966D01*
X52519504Y4816963D01*
X52456905Y4708537D01*
X52456905Y4708536D01*
X52424500Y4587601D01*
X1316398Y4587601D01*
X1303603Y9812601D01*
X80674500Y9812601D01*
X80674500Y9687399D01*
X80706905Y9566464D01*
X80769505Y9458036D01*
X80858036Y9369505D01*
X80966464Y9306905D01*
X81087399Y9274500D01*
X81087401Y9274500D01*
X81212599Y9274500D01*
X81212601Y9274500D01*
X81333536Y9306905D01*
X81441964Y9369505D01*
X81530495Y9458036D01*
X81593095Y9566464D01*
X81625500Y9687399D01*
X81625500Y9812601D01*
X81593095Y9933536D01*
X81530495Y10041964D01*
X81441964Y10130495D01*
X81333536Y10193095D01*
X81333537Y10193095D01*
X81293224Y10203897D01*
X81212601Y10225500D01*
X81087399Y10225500D01*
X81006775Y10203897D01*
X80966463Y10193095D01*
X80858037Y10130496D01*
X80858034Y10130494D01*
X80769506Y10041966D01*
X80769504Y10041963D01*
X80706905Y9933537D01*
X80706905Y9933536D01*
X80674500Y9812601D01*
X1303603Y9812601D01*
X1245444Y33562601D01*
X39174500Y33562601D01*
X39174500Y33437399D01*
X39206905Y33316464D01*
X39269505Y33208036D01*
X39358036Y33119505D01*
X39466464Y33056905D01*
X39587399Y33024500D01*
X39587401Y33024500D01*
X39712599Y33024500D01*
X39712601Y33024500D01*
X39833536Y33056905D01*
X39941964Y33119505D01*
X40030495Y33208036D01*
X40093095Y33316464D01*
X40125500Y33437399D01*
X40125500Y33562601D01*
X40093095Y33683536D01*
X40030495Y33791964D01*
X39941964Y33880495D01*
X39833536Y33943095D01*
X39833537Y33943095D01*
X39793224Y33953897D01*
X39712601Y33975500D01*
X39587399Y33975500D01*
X39506775Y33953897D01*
X39466463Y33943095D01*
X39358037Y33880496D01*
X39358034Y33880494D01*
X39269506Y33791966D01*
X39269504Y33791963D01*
X39206905Y33683537D01*
X39206905Y33683536D01*
X39174500Y33562601D01*
X1245444Y33562601D01*
X1233567Y38412601D01*
X38224500Y38412601D01*
X38224500Y38287399D01*
X38256905Y38166464D01*
X38319505Y38058036D01*
X38408036Y37969505D01*
X38516464Y37906905D01*
X38637399Y37874500D01*
X38637401Y37874500D01*
X38762599Y37874500D01*
X38762601Y37874500D01*
X38883536Y37906905D01*
X38991964Y37969505D01*
X39080495Y38058036D01*
X39143095Y38166464D01*
X39175500Y38287399D01*
X39175500Y38412601D01*
X39143095Y38533536D01*
X39080495Y38641964D01*
X38991964Y38730495D01*
X38883536Y38793095D01*
X38883537Y38793095D01*
X38843224Y38803897D01*
X38762601Y38825500D01*
X38637399Y38825500D01*
X38556775Y38803897D01*
X38516463Y38793095D01*
X38408037Y38730496D01*
X38408034Y38730494D01*
X38319506Y38641966D01*
X38319504Y38641963D01*
X38256905Y38533537D01*
X38256905Y38533536D01*
X38224500Y38412601D01*
X1233567Y38412601D01*
X1216058Y45562601D01*
X38274500Y45562601D01*
X38274500Y45437399D01*
X38306905Y45316464D01*
X38369505Y45208036D01*
X38458036Y45119505D01*
X38566464Y45056905D01*
X38687399Y45024500D01*
X38687401Y45024500D01*
X38812599Y45024500D01*
X38812601Y45024500D01*
X38933536Y45056905D01*
X39041964Y45119505D01*
X39130495Y45208036D01*
X39193095Y45316464D01*
X39225500Y45437399D01*
X39225500Y45562601D01*
X39193095Y45683536D01*
X39130495Y45791964D01*
X39059858Y45862601D01*
X46574500Y45862601D01*
X46574500Y45737399D01*
X46606905Y45616464D01*
X46669505Y45508036D01*
X46758036Y45419505D01*
X46866464Y45356905D01*
X46987399Y45324500D01*
X46987401Y45324500D01*
X47112599Y45324500D01*
X47112601Y45324500D01*
X47233536Y45356905D01*
X47341964Y45419505D01*
X47430495Y45508036D01*
X47493095Y45616464D01*
X47525500Y45737399D01*
X47525500Y45862601D01*
X47493095Y45983536D01*
X47430495Y46091964D01*
X47341964Y46180495D01*
X47233536Y46243095D01*
X47233537Y46243095D01*
X47193224Y46253897D01*
X47112601Y46275500D01*
X46987399Y46275500D01*
X46906775Y46253897D01*
X46866463Y46243095D01*
X46758037Y46180496D01*
X46758034Y46180494D01*
X46669506Y46091966D01*
X46669504Y46091963D01*
X46606905Y45983537D01*
X46601910Y45964896D01*
X46574500Y45862601D01*
X39059858Y45862601D01*
X39041964Y45880495D01*
X38933536Y45943095D01*
X38933537Y45943095D01*
X38893224Y45953897D01*
X38812601Y45975500D01*
X38687399Y45975500D01*
X38606775Y45953897D01*
X38566463Y45943095D01*
X38458037Y45880496D01*
X38458034Y45880494D01*
X38369506Y45791966D01*
X38369504Y45791963D01*
X38306905Y45683537D01*
X38290702Y45623069D01*
X38274500Y45562601D01*
X1216058Y45562601D01*
X1172876Y63196670D01*
X42529500Y63196670D01*
X42529500Y62989731D01*
X42569868Y62786788D01*
X42569870Y62786780D01*
X42649058Y62595604D01*
X42764024Y62423543D01*
X42910342Y62277225D01*
X42910345Y62277223D01*
X43082402Y62162259D01*
X43273580Y62083070D01*
X43416202Y62054701D01*
X43476530Y62042701D01*
X43476534Y62042700D01*
X43476535Y62042700D01*
X43683466Y62042700D01*
X43683467Y62042701D01*
X43886420Y62083070D01*
X44077598Y62162259D01*
X44249655Y62277223D01*
X44395977Y62423545D01*
X44510941Y62595602D01*
X44590130Y62786780D01*
X44630500Y62989735D01*
X44630500Y63196665D01*
X44590130Y63399620D01*
X44510941Y63590798D01*
X44395977Y63762855D01*
X44395975Y63762858D01*
X44249657Y63909176D01*
X44163626Y63966659D01*
X44077598Y64024141D01*
X44048625Y64036142D01*
X43886420Y64103330D01*
X43886412Y64103332D01*
X43683469Y64143700D01*
X43683465Y64143700D01*
X43476535Y64143700D01*
X43476530Y64143700D01*
X43273587Y64103332D01*
X43273579Y64103330D01*
X43082403Y64024142D01*
X42910342Y63909176D01*
X42764024Y63762858D01*
X42649058Y63590797D01*
X42569870Y63399621D01*
X42569868Y63399613D01*
X42529500Y63196670D01*
X1172876Y63196670D01*
X1165012Y66408197D01*
X31490681Y66408197D01*
X31490681Y66172092D01*
X31527615Y65938897D01*
X31600578Y65714342D01*
X31707768Y65503970D01*
X31768019Y65421040D01*
X31768021Y65421039D01*
X32507718Y66160736D01*
X32524756Y66097151D01*
X32590582Y65983137D01*
X32683674Y65890045D01*
X32797688Y65824219D01*
X32861271Y65807182D01*
X32121574Y65067486D01*
X32204509Y65007230D01*
X32414878Y64900042D01*
X32639433Y64827079D01*
X32639432Y64827079D01*
X32872629Y64790144D01*
X33108733Y64790144D01*
X33341928Y64827079D01*
X33566483Y64900042D01*
X33776844Y65007226D01*
X33776850Y65007230D01*
X33859785Y65067486D01*
X33859786Y65067486D01*
X33120089Y65807182D01*
X33183674Y65824219D01*
X33297688Y65890045D01*
X33390780Y65983137D01*
X33456606Y66097151D01*
X33473643Y66160735D01*
X34213339Y65421039D01*
X34213339Y65421040D01*
X34273595Y65503975D01*
X34273599Y65503981D01*
X34380783Y65714342D01*
X34402467Y65781075D01*
X34453746Y65938897D01*
X34490681Y66172092D01*
X34490681Y66408197D01*
X34453746Y66641392D01*
X34380783Y66865947D01*
X34273595Y67076316D01*
X34213339Y67159250D01*
X34213339Y67159251D01*
X33473643Y66419554D01*
X33456606Y66483137D01*
X33390780Y66597151D01*
X33297688Y66690243D01*
X33183674Y66756069D01*
X33120090Y66773107D01*
X33859786Y67512804D01*
X33859785Y67512806D01*
X33776855Y67573057D01*
X33566483Y67680247D01*
X33341928Y67753210D01*
X33341929Y67753210D01*
X33108733Y67790144D01*
X32872629Y67790144D01*
X32639433Y67753210D01*
X32414878Y67680247D01*
X32204511Y67573060D01*
X32121575Y67512804D01*
X32861272Y66773107D01*
X32797688Y66756069D01*
X32683674Y66690243D01*
X32590582Y66597151D01*
X32524756Y66483137D01*
X32507718Y66419554D01*
X31768021Y67159250D01*
X31707765Y67076314D01*
X31600578Y66865947D01*
X31527615Y66641392D01*
X31490681Y66408197D01*
X1165012Y66408197D01*
X1162423Y67465650D01*
X1160430Y68279447D01*
X42230000Y68279447D01*
X42230000Y68066954D01*
X42263242Y67857073D01*
X42263242Y67857070D01*
X42328904Y67654983D01*
X42425375Y67465650D01*
X42464728Y67411484D01*
X43097037Y68043792D01*
X43114075Y67980207D01*
X43179901Y67866193D01*
X43272993Y67773101D01*
X43387007Y67707275D01*
X43450590Y67690238D01*
X42818282Y67057931D01*
X42818282Y67057930D01*
X42872449Y67018576D01*
X43061782Y66922105D01*
X43237973Y66864857D01*
X43295648Y66825420D01*
X43322847Y66761061D01*
X43310932Y66692215D01*
X43263688Y66640739D01*
X43247108Y66632365D01*
X43082403Y66564143D01*
X42910342Y66449176D01*
X42764024Y66302858D01*
X42649058Y66130797D01*
X42569870Y65939621D01*
X42569868Y65939613D01*
X42529500Y65736670D01*
X42529500Y65529731D01*
X42569868Y65326788D01*
X42569870Y65326780D01*
X42649058Y65135604D01*
X42764024Y64963543D01*
X42910342Y64817225D01*
X42910345Y64817223D01*
X43082402Y64702259D01*
X43273580Y64623070D01*
X43416202Y64594701D01*
X43476530Y64582701D01*
X43476534Y64582700D01*
X43476535Y64582700D01*
X43683466Y64582700D01*
X43683467Y64582701D01*
X43886420Y64623070D01*
X44077598Y64702259D01*
X44249655Y64817223D01*
X44395977Y64963545D01*
X44510941Y65135602D01*
X44590130Y65326780D01*
X44630500Y65529735D01*
X44630500Y65736665D01*
X44590130Y65939620D01*
X44510941Y66130798D01*
X44395977Y66302855D01*
X44395975Y66302858D01*
X44249657Y66449176D01*
X44130451Y66528826D01*
X44077598Y66564141D01*
X44077593Y66564143D01*
X43933569Y66623800D01*
X43912890Y66632366D01*
X43858488Y66676206D01*
X43836423Y66742500D01*
X43853702Y66810199D01*
X43904839Y66857810D01*
X43922026Y66864857D01*
X44098217Y66922105D01*
X44287554Y67018578D01*
X44341716Y67057930D01*
X44341717Y67057930D01*
X43709408Y67690238D01*
X43772993Y67707275D01*
X43887007Y67773101D01*
X43980099Y67866193D01*
X44045925Y67980207D01*
X44062962Y68043792D01*
X44695270Y67411483D01*
X44695270Y67411484D01*
X44734622Y67465646D01*
X44831095Y67654983D01*
X44896757Y67857070D01*
X44896757Y67857073D01*
X44930000Y68066954D01*
X44930000Y68279447D01*
X44896757Y68489328D01*
X44896757Y68489331D01*
X44831095Y68691418D01*
X44734624Y68880751D01*
X44695270Y68934918D01*
X44695269Y68934918D01*
X44062962Y68302610D01*
X44045925Y68366193D01*
X43980099Y68480207D01*
X43887007Y68573299D01*
X43772993Y68639125D01*
X43709409Y68656163D01*
X44341716Y69288472D01*
X44287550Y69327825D01*
X44098216Y69424296D01*
X43922026Y69481544D01*
X43864350Y69520982D01*
X43837152Y69585340D01*
X43849067Y69654187D01*
X43896311Y69705662D01*
X43912882Y69714032D01*
X44077598Y69782259D01*
X44249655Y69897223D01*
X44395977Y70043545D01*
X44510941Y70215602D01*
X44515913Y70227604D01*
X44554662Y70321153D01*
X44598503Y70375556D01*
X44664797Y70397621D01*
X44669223Y70397700D01*
X48704753Y70397700D01*
X48771792Y70378015D01*
X48792434Y70361381D01*
X49798181Y69355635D01*
X49831666Y69294312D01*
X49834500Y69267954D01*
X49834500Y45654649D01*
X49814815Y45587610D01*
X49798181Y45566968D01*
X49408181Y45176968D01*
X49390577Y45167356D01*
X49375879Y45153702D01*
X49360536Y45150952D01*
X49346858Y45143483D01*
X49326849Y45144914D01*
X49307106Y45141375D01*
X49292715Y45147356D01*
X49277166Y45148467D01*
X49261105Y45160490D01*
X49242585Y45168186D01*
X49233710Y45180999D01*
X49221233Y45190339D01*
X49214223Y45209133D01*
X49202801Y45225623D01*
X49198777Y45250545D01*
X49196816Y45255803D01*
X49196574Y45260363D01*
X49196500Y45262503D01*
X49196500Y45358608D01*
X49196362Y45359122D01*
X49190727Y45380152D01*
X49190727Y45380153D01*
X49190727Y45380154D01*
X49190724Y45380162D01*
X49189723Y45383899D01*
X49185500Y45415983D01*
X49185500Y47086679D01*
X49205185Y47153718D01*
X49221819Y47174360D01*
X49255495Y47208036D01*
X49318095Y47316464D01*
X49350500Y47437399D01*
X49350500Y47562601D01*
X49318095Y47683536D01*
X49255495Y47791964D01*
X49166964Y47880495D01*
X49058536Y47943095D01*
X49058537Y47943095D01*
X49018224Y47953897D01*
X48937601Y47975500D01*
X48812399Y47975500D01*
X48731775Y47953897D01*
X48691463Y47943095D01*
X48583037Y47880496D01*
X48583034Y47880494D01*
X48494506Y47791966D01*
X48494504Y47791963D01*
X48431905Y47683537D01*
X48431905Y47683536D01*
X48399500Y47562601D01*
X48399500Y47437399D01*
X48431905Y47316464D01*
X48494504Y47208038D01*
X48494506Y47208035D01*
X48528181Y47174360D01*
X48561666Y47113037D01*
X48564500Y47086679D01*
X48564500Y45287852D01*
X48571275Y45262567D01*
X48575500Y45230474D01*
X48575500Y45012246D01*
X48555815Y44945207D01*
X48539181Y44924565D01*
X47151539Y43536924D01*
X47151535Y43536919D01*
X47110659Y43466120D01*
X47110660Y43466120D01*
X47110660Y43466119D01*
X47089500Y43387148D01*
X47089500Y39560957D01*
X47069815Y39493918D01*
X47017011Y39448163D01*
X46947853Y39438219D01*
X46903504Y39453568D01*
X46883542Y39465093D01*
X46883537Y39465095D01*
X46843224Y39475897D01*
X46762601Y39497500D01*
X46637399Y39497500D01*
X46556775Y39475897D01*
X46516463Y39465095D01*
X46408037Y39402496D01*
X46408034Y39402494D01*
X46319506Y39313966D01*
X46319504Y39313963D01*
X46256905Y39205537D01*
X46256905Y39205536D01*
X46224500Y39084601D01*
X46224500Y38959399D01*
X46256905Y38838464D01*
X46319505Y38730036D01*
X46408036Y38641505D01*
X46516464Y38578905D01*
X46637399Y38546500D01*
X46637401Y38546500D01*
X46762599Y38546500D01*
X46762601Y38546500D01*
X46883536Y38578905D01*
X46892748Y38584224D01*
X46903501Y38590431D01*
X46971401Y38606904D01*
X47037428Y38584051D01*
X47080618Y38529130D01*
X47089500Y38483044D01*
X47089500Y31169609D01*
X47089500Y31087851D01*
X47110660Y31008881D01*
X47110661Y31008880D01*
X47110661Y31008879D01*
X47151535Y30938082D01*
X47151539Y30938077D01*
X47153181Y30936435D01*
X47154123Y30934710D01*
X47156484Y30931633D01*
X47156004Y30931265D01*
X47186666Y30875112D01*
X47189500Y30848754D01*
X47189500Y13213321D01*
X47169815Y13146282D01*
X47153181Y13125640D01*
X47119506Y13091966D01*
X47119504Y13091963D01*
X47056905Y12983537D01*
X47042606Y12930171D01*
X47024500Y12862601D01*
X47024500Y12737399D01*
X47056905Y12616464D01*
X47119505Y12508036D01*
X47208036Y12419505D01*
X47316464Y12356905D01*
X47437399Y12324500D01*
X47437401Y12324500D01*
X47533076Y12324500D01*
X47600115Y12304815D01*
X47645870Y12252011D01*
X47655814Y12182853D01*
X47652851Y12168409D01*
X47624500Y12062601D01*
X47624500Y11937399D01*
X47656905Y11816464D01*
X47719505Y11708036D01*
X47808036Y11619505D01*
X47916464Y11556905D01*
X48037399Y11524500D01*
X48037401Y11524500D01*
X48162599Y11524500D01*
X48162601Y11524500D01*
X48283536Y11556905D01*
X48391964Y11619505D01*
X48480495Y11708036D01*
X48543095Y11816464D01*
X48575500Y11937399D01*
X48575500Y12062601D01*
X48543095Y12183536D01*
X48540679Y12187720D01*
X48524207Y12255619D01*
X48525983Y12266994D01*
X48525439Y12267065D01*
X48526500Y12275123D01*
X48526500Y14712601D01*
X54174500Y14712601D01*
X54174500Y14587399D01*
X54206905Y14466464D01*
X54269505Y14358036D01*
X54358036Y14269505D01*
X54466464Y14206905D01*
X54587399Y14174500D01*
X54587401Y14174500D01*
X54717891Y14174500D01*
X54784930Y14154815D01*
X54830685Y14102011D01*
X54840629Y14032853D01*
X54811604Y13969297D01*
X54779890Y13943112D01*
X54758036Y13930496D01*
X54669506Y13841966D01*
X54669504Y13841963D01*
X54606905Y13733537D01*
X54606905Y13733536D01*
X54574500Y13612601D01*
X54574500Y13487399D01*
X54606905Y13366464D01*
X54669505Y13258036D01*
X54758036Y13169505D01*
X54866464Y13106905D01*
X54987399Y13074500D01*
X54987401Y13074500D01*
X55112600Y13074500D01*
X55112601Y13074500D01*
X55140736Y13082039D01*
X55210586Y13080378D01*
X55268449Y13041216D01*
X55295954Y12976988D01*
X55292606Y12930173D01*
X55274500Y12862601D01*
X55274500Y12737399D01*
X55306905Y12616464D01*
X55369505Y12508036D01*
X55458036Y12419505D01*
X55566464Y12356905D01*
X55687399Y12324500D01*
X55687401Y12324500D01*
X55783076Y12324500D01*
X55850115Y12304815D01*
X55895870Y12252011D01*
X55905814Y12182853D01*
X55902851Y12168409D01*
X55874500Y12062601D01*
X55874500Y11937399D01*
X55906905Y11816464D01*
X55969505Y11708036D01*
X56058036Y11619505D01*
X56166464Y11556905D01*
X56287399Y11524500D01*
X56287401Y11524500D01*
X56412599Y11524500D01*
X56412601Y11524500D01*
X56533536Y11556905D01*
X56641964Y11619505D01*
X56730495Y11708036D01*
X56793095Y11816464D01*
X56825500Y11937399D01*
X56825500Y12062601D01*
X56793095Y12183536D01*
X56747447Y12262601D01*
X59083522Y12262601D01*
X59083522Y12137399D01*
X59115927Y12016464D01*
X59178527Y11908036D01*
X59267058Y11819505D01*
X59375486Y11756905D01*
X59496421Y11724500D01*
X59496423Y11724500D01*
X59621621Y11724500D01*
X59621623Y11724500D01*
X59742558Y11756905D01*
X59850986Y11819505D01*
X59939517Y11908036D01*
X60002117Y12016464D01*
X60034522Y12137399D01*
X60034522Y12262601D01*
X60034522Y12267262D01*
X60054207Y12334301D01*
X60107011Y12380056D01*
X60176169Y12390000D01*
X60190604Y12387039D01*
X60237399Y12374500D01*
X60237400Y12374500D01*
X60362599Y12374500D01*
X60362601Y12374500D01*
X60483536Y12406905D01*
X60591964Y12469505D01*
X60680495Y12558036D01*
X60743095Y12666464D01*
X60775500Y12787399D01*
X60775500Y12912601D01*
X60743095Y13033536D01*
X60680495Y13141964D01*
X60591964Y13230495D01*
X60483536Y13293095D01*
X60483537Y13293095D01*
X60443224Y13303897D01*
X60362601Y13325500D01*
X60237399Y13325500D01*
X60156775Y13303897D01*
X60116463Y13293095D01*
X60008037Y13230496D01*
X60008034Y13230494D01*
X59919506Y13141966D01*
X59919504Y13141963D01*
X59856905Y13033537D01*
X59856905Y13033536D01*
X59836675Y12958036D01*
X59824500Y12912600D01*
X59824500Y12782739D01*
X59804815Y12715700D01*
X59752011Y12669945D01*
X59682853Y12660001D01*
X59668411Y12662963D01*
X59621623Y12675500D01*
X59496421Y12675500D01*
X59415797Y12653897D01*
X59375485Y12643095D01*
X59267059Y12580496D01*
X59267056Y12580494D01*
X59178528Y12491966D01*
X59178526Y12491963D01*
X59115927Y12383537D01*
X59113506Y12374501D01*
X59083522Y12262601D01*
X56747447Y12262601D01*
X56730495Y12291964D01*
X56641964Y12380495D01*
X56533536Y12443095D01*
X56533537Y12443095D01*
X56493224Y12453897D01*
X56412601Y12475500D01*
X56316924Y12475500D01*
X56249885Y12495185D01*
X56204130Y12547989D01*
X56194186Y12617147D01*
X56197149Y12631594D01*
X56205555Y12662964D01*
X56225500Y12737399D01*
X56225500Y12862601D01*
X56193095Y12983536D01*
X56130495Y13091964D01*
X56041964Y13180495D01*
X55933536Y13243095D01*
X55933537Y13243095D01*
X55874044Y13259036D01*
X55812601Y13275500D01*
X55687399Y13275500D01*
X55687393Y13275500D01*
X55659259Y13267961D01*
X55589410Y13269625D01*
X55531548Y13308788D01*
X55504045Y13373017D01*
X55503722Y13399448D01*
X55504702Y13409784D01*
X55525500Y13487399D01*
X55525500Y13612601D01*
X55525232Y13613601D01*
X57774500Y13613601D01*
X57774500Y13488399D01*
X57806905Y13367464D01*
X57869505Y13259036D01*
X57958036Y13170505D01*
X58066464Y13107905D01*
X58187399Y13075500D01*
X58187401Y13075500D01*
X58312599Y13075500D01*
X58312601Y13075500D01*
X58433536Y13107905D01*
X58541964Y13170505D01*
X58630495Y13259036D01*
X58693095Y13367464D01*
X58725500Y13488399D01*
X58725500Y13613601D01*
X58693095Y13734536D01*
X58630495Y13842964D01*
X58541964Y13931495D01*
X58433536Y13994095D01*
X58433537Y13994095D01*
X58393224Y14004897D01*
X58312601Y14026500D01*
X58187399Y14026500D01*
X58106775Y14004897D01*
X58066463Y13994095D01*
X57958037Y13931496D01*
X57958034Y13931494D01*
X57869506Y13842966D01*
X57869504Y13842963D01*
X57806905Y13734537D01*
X57796172Y13694482D01*
X57774500Y13613601D01*
X55525232Y13613601D01*
X55493095Y13733536D01*
X55430495Y13841964D01*
X55341964Y13930495D01*
X55233536Y13993095D01*
X55233537Y13993095D01*
X55193224Y14003897D01*
X55112601Y14025500D01*
X54987399Y14025500D01*
X54982109Y14025500D01*
X54915070Y14045185D01*
X54869315Y14097989D01*
X54859371Y14167147D01*
X54888396Y14230703D01*
X54920110Y14256888D01*
X54941964Y14269505D01*
X55030495Y14358036D01*
X55093095Y14466464D01*
X55125500Y14587399D01*
X55125500Y14712601D01*
X55093095Y14833536D01*
X55030495Y14941964D01*
X54941964Y15030495D01*
X54833536Y15093095D01*
X54833537Y15093095D01*
X54793224Y15103897D01*
X54712601Y15125500D01*
X54587399Y15125500D01*
X54506775Y15103897D01*
X54466463Y15093095D01*
X54358037Y15030496D01*
X54358034Y15030494D01*
X54269506Y14941966D01*
X54269504Y14941963D01*
X54206905Y14833537D01*
X54206905Y14833536D01*
X54174500Y14712601D01*
X48526500Y14712601D01*
X48526500Y15412601D01*
X59524500Y15412601D01*
X59524500Y15287399D01*
X59556905Y15166464D01*
X59619505Y15058036D01*
X59708036Y14969505D01*
X59816464Y14906905D01*
X59937399Y14874500D01*
X59937401Y14874500D01*
X60062599Y14874500D01*
X60062601Y14874500D01*
X60183536Y14906905D01*
X60291964Y14969505D01*
X60380495Y15058036D01*
X60443095Y15166464D01*
X60475500Y15287399D01*
X60475500Y15412601D01*
X60443095Y15533536D01*
X60380495Y15641964D01*
X60355752Y15666707D01*
X60322267Y15728030D01*
X60327251Y15797722D01*
X60369123Y15853655D01*
X60411339Y15874163D01*
X60412597Y15874500D01*
X60412601Y15874500D01*
X60533536Y15906905D01*
X60641964Y15969505D01*
X60730495Y16058036D01*
X60793095Y16166464D01*
X60825500Y16287399D01*
X60825500Y16412601D01*
X60793095Y16533536D01*
X60730495Y16641964D01*
X60641964Y16730495D01*
X60533536Y16793095D01*
X60533537Y16793095D01*
X60493224Y16803897D01*
X60412601Y16825500D01*
X60287399Y16825500D01*
X60206775Y16803897D01*
X60166463Y16793095D01*
X60058037Y16730496D01*
X60058034Y16730494D01*
X59969506Y16641966D01*
X59969504Y16641963D01*
X59906905Y16533537D01*
X59906905Y16533536D01*
X59874500Y16412601D01*
X59874500Y16287399D01*
X59894596Y16212401D01*
X59906905Y16166464D01*
X59969504Y16058038D01*
X59969506Y16058035D01*
X59994247Y16033294D01*
X60027732Y15971971D01*
X60022748Y15902279D01*
X59980876Y15846346D01*
X59938661Y15825838D01*
X59937400Y15825500D01*
X59937399Y15825500D01*
X59816464Y15793095D01*
X59816462Y15793095D01*
X59816462Y15793094D01*
X59708037Y15730496D01*
X59708034Y15730494D01*
X59619506Y15641966D01*
X59619504Y15641963D01*
X59556905Y15533537D01*
X59556905Y15533536D01*
X59524500Y15412601D01*
X48526500Y15412601D01*
X48526500Y16337601D01*
X51574500Y16337601D01*
X51574500Y16212399D01*
X51606905Y16091464D01*
X51669505Y15983036D01*
X51758036Y15894505D01*
X51866464Y15831905D01*
X51987399Y15799500D01*
X51987401Y15799500D01*
X52112599Y15799500D01*
X52112601Y15799500D01*
X52233536Y15831905D01*
X52341964Y15894505D01*
X52430495Y15983036D01*
X52493095Y16091464D01*
X52525500Y16212399D01*
X52525500Y16337601D01*
X52493095Y16458536D01*
X52430495Y16566964D01*
X52341964Y16655495D01*
X52233536Y16718095D01*
X52233537Y16718095D01*
X52187259Y16730495D01*
X52112601Y16750500D01*
X51987399Y16750500D01*
X51912741Y16730495D01*
X51866463Y16718095D01*
X51758037Y16655496D01*
X51758034Y16655494D01*
X51669506Y16566966D01*
X51669504Y16566963D01*
X51606905Y16458537D01*
X51594596Y16412600D01*
X51574500Y16337601D01*
X48526500Y16337601D01*
X48526500Y17262601D01*
X50574500Y17262601D01*
X50574500Y17137399D01*
X50606905Y17016464D01*
X50669505Y16908036D01*
X50758036Y16819505D01*
X50866464Y16756905D01*
X50987399Y16724500D01*
X50987401Y16724500D01*
X51112599Y16724500D01*
X51112601Y16724500D01*
X51233536Y16756905D01*
X51341964Y16819505D01*
X51430495Y16908036D01*
X51493095Y17016464D01*
X51525500Y17137399D01*
X51525500Y17262601D01*
X51493095Y17383536D01*
X51430495Y17491964D01*
X51341964Y17580495D01*
X51233536Y17643095D01*
X51233537Y17643095D01*
X51193224Y17653897D01*
X51112601Y17675500D01*
X50987399Y17675500D01*
X50906775Y17653897D01*
X50866463Y17643095D01*
X50758037Y17580496D01*
X50758034Y17580494D01*
X50669506Y17491966D01*
X50669504Y17491963D01*
X50606905Y17383537D01*
X50606905Y17383536D01*
X50574500Y17262601D01*
X48526500Y17262601D01*
X48526500Y19212601D01*
X60824500Y19212601D01*
X60824500Y19087399D01*
X60856905Y18966464D01*
X60919505Y18858036D01*
X61008036Y18769505D01*
X61116464Y18706905D01*
X61237399Y18674500D01*
X61237401Y18674500D01*
X61362599Y18674500D01*
X61362601Y18674500D01*
X61483536Y18706905D01*
X61591964Y18769505D01*
X61680495Y18858036D01*
X61743095Y18966464D01*
X61775500Y19087399D01*
X61775500Y19212601D01*
X61743095Y19333536D01*
X61680495Y19441964D01*
X61591964Y19530495D01*
X61483536Y19593095D01*
X61483537Y19593095D01*
X61427769Y19608038D01*
X61362601Y19625500D01*
X61237399Y19625500D01*
X61172231Y19608038D01*
X61116463Y19593095D01*
X61008037Y19530496D01*
X61008034Y19530494D01*
X60919506Y19441966D01*
X60919504Y19441963D01*
X60856905Y19333537D01*
X60856905Y19333536D01*
X60824500Y19212601D01*
X48526500Y19212601D01*
X48526500Y19962601D01*
X49074500Y19962601D01*
X49074500Y19837399D01*
X49106905Y19716464D01*
X49169505Y19608036D01*
X49258036Y19519505D01*
X49366464Y19456905D01*
X49487399Y19424500D01*
X49487401Y19424500D01*
X49612599Y19424500D01*
X49612601Y19424500D01*
X49733536Y19456905D01*
X49841964Y19519505D01*
X49930495Y19608036D01*
X49993095Y19716464D01*
X50025500Y19837399D01*
X50025500Y19962601D01*
X49993095Y20083536D01*
X49930495Y20191964D01*
X49841964Y20280495D01*
X49733536Y20343095D01*
X49733537Y20343095D01*
X49693224Y20353897D01*
X49612601Y20375500D01*
X49487399Y20375500D01*
X49406775Y20353897D01*
X49366463Y20343095D01*
X49258037Y20280496D01*
X49258034Y20280494D01*
X49169506Y20191966D01*
X49169504Y20191963D01*
X49106905Y20083537D01*
X49106905Y20083536D01*
X49074500Y19962601D01*
X48526500Y19962601D01*
X48526500Y21719411D01*
X48546185Y21786450D01*
X48598989Y21832205D01*
X48663275Y21842751D01*
X48673074Y21841736D01*
X48737399Y21824500D01*
X48839479Y21824500D01*
X48845851Y21823840D01*
X48872491Y21812927D01*
X48900115Y21804815D01*
X48904420Y21799846D01*
X48910506Y21797353D01*
X48927018Y21773767D01*
X48945870Y21752011D01*
X48946805Y21745503D01*
X48950577Y21740116D01*
X48951716Y21711349D01*
X48955814Y21682853D01*
X48953326Y21670724D01*
X48953343Y21670301D01*
X48953184Y21670032D01*
X48952851Y21668409D01*
X48924500Y21562601D01*
X48924500Y21437399D01*
X48956905Y21316464D01*
X49019505Y21208036D01*
X49108036Y21119505D01*
X49216464Y21056905D01*
X49337399Y21024500D01*
X49337401Y21024500D01*
X49462599Y21024500D01*
X49462601Y21024500D01*
X49583536Y21056905D01*
X49691964Y21119505D01*
X49780495Y21208036D01*
X49788745Y21222327D01*
X49839312Y21270542D01*
X49907919Y21283766D01*
X49972784Y21257798D01*
X50003521Y21222326D01*
X50006904Y21216466D01*
X50006905Y21216464D01*
X50069505Y21108036D01*
X50158036Y21019505D01*
X50266464Y20956905D01*
X50387399Y20924500D01*
X50387401Y20924500D01*
X50512599Y20924500D01*
X50512601Y20924500D01*
X50633536Y20956905D01*
X50741964Y21019505D01*
X50830495Y21108036D01*
X50852845Y21146749D01*
X50903411Y21194965D01*
X50972018Y21208189D01*
X51036883Y21182222D01*
X51077412Y21125308D01*
X51080006Y21116850D01*
X51106905Y21016464D01*
X51169505Y20908036D01*
X51258036Y20819505D01*
X51366464Y20756905D01*
X51487399Y20724500D01*
X51487401Y20724500D01*
X51612599Y20724500D01*
X51612601Y20724500D01*
X51733536Y20756905D01*
X51841964Y20819505D01*
X51930495Y20908036D01*
X51993095Y21016464D01*
X52018855Y21112601D01*
X60424500Y21112601D01*
X60424500Y20987399D01*
X60456905Y20866464D01*
X60519505Y20758036D01*
X60608036Y20669505D01*
X60716464Y20606905D01*
X60837399Y20574500D01*
X60837401Y20574500D01*
X60962599Y20574500D01*
X60962601Y20574500D01*
X61083536Y20606905D01*
X61191964Y20669505D01*
X61280495Y20758036D01*
X61343095Y20866464D01*
X61375500Y20987399D01*
X61375500Y21112601D01*
X61343095Y21233536D01*
X61280495Y21341964D01*
X61191964Y21430495D01*
X61083536Y21493095D01*
X61083537Y21493095D01*
X61043224Y21503897D01*
X60962601Y21525500D01*
X60837399Y21525500D01*
X60756775Y21503897D01*
X60716463Y21493095D01*
X60608037Y21430496D01*
X60608034Y21430494D01*
X60519506Y21341966D01*
X60519504Y21341963D01*
X60456905Y21233537D01*
X60456905Y21233536D01*
X60424500Y21112601D01*
X52018855Y21112601D01*
X52025500Y21137399D01*
X52025500Y21262601D01*
X51993095Y21383536D01*
X51930495Y21491964D01*
X51841964Y21580495D01*
X51733536Y21643095D01*
X51733537Y21643095D01*
X51693224Y21653897D01*
X51612601Y21675500D01*
X51612599Y21675500D01*
X51572047Y21675500D01*
X51505008Y21695185D01*
X51484366Y21711819D01*
X50751819Y22444366D01*
X50718334Y22505689D01*
X50715500Y22532047D01*
X50715500Y24791101D01*
X56053000Y24791101D01*
X56053000Y24665899D01*
X56085405Y24544964D01*
X56148005Y24436536D01*
X56236536Y24348005D01*
X56344964Y24285405D01*
X56465899Y24253000D01*
X56465901Y24253000D01*
X56591099Y24253000D01*
X56591101Y24253000D01*
X56712036Y24285405D01*
X56820464Y24348005D01*
X56908995Y24436536D01*
X56957708Y24520911D01*
X57455499Y24520911D01*
X57455499Y24395709D01*
X57487904Y24274774D01*
X57550504Y24166346D01*
X57639035Y24077815D01*
X57747463Y24015215D01*
X57868398Y23982810D01*
X57916023Y23982810D01*
X57983062Y23963125D01*
X58003704Y23946491D01*
X58298658Y23651538D01*
X58369460Y23610660D01*
X58448431Y23589500D01*
X61720024Y23589500D01*
X61787063Y23569815D01*
X61807705Y23553181D01*
X62603181Y22757705D01*
X62636666Y22696382D01*
X62639500Y22670024D01*
X62639500Y17504976D01*
X62630855Y17475536D01*
X62624332Y17445549D01*
X62620577Y17440534D01*
X62619815Y17437937D01*
X62603185Y17417300D01*
X62501382Y17315496D01*
X62484353Y17298467D01*
X62423030Y17264983D01*
X62353338Y17269967D01*
X62308991Y17298468D01*
X62291965Y17315494D01*
X62291964Y17315495D01*
X62183536Y17378095D01*
X62183537Y17378095D01*
X62143224Y17388897D01*
X62062601Y17410500D01*
X61937399Y17410500D01*
X61856775Y17388897D01*
X61816463Y17378095D01*
X61708037Y17315496D01*
X61708034Y17315494D01*
X61619506Y17226966D01*
X61619504Y17226963D01*
X61556905Y17118537D01*
X61556905Y17118536D01*
X61524500Y16997601D01*
X61524500Y16872399D01*
X61556905Y16751464D01*
X61619505Y16643036D01*
X61708036Y16554505D01*
X61816464Y16491905D01*
X61937399Y16459500D01*
X61937401Y16459500D01*
X62062599Y16459500D01*
X62062601Y16459500D01*
X62183536Y16491905D01*
X62291964Y16554505D01*
X62325640Y16588181D01*
X62386963Y16621666D01*
X62413321Y16624500D01*
X62600876Y16624500D01*
X62600879Y16624500D01*
X62679849Y16645660D01*
X62750652Y16686538D01*
X63198462Y17134348D01*
X63239339Y17205151D01*
X63239340Y17205152D01*
X63260500Y17284122D01*
X63260500Y18597601D01*
X64089500Y18597601D01*
X64089500Y18472399D01*
X64121905Y18351464D01*
X64184505Y18243036D01*
X64273036Y18154505D01*
X64381464Y18091905D01*
X64502399Y18059500D01*
X64502401Y18059500D01*
X64627600Y18059500D01*
X64627601Y18059500D01*
X64683405Y18074453D01*
X64753255Y18072791D01*
X64811118Y18033630D01*
X64838623Y17969401D01*
X64839500Y17954679D01*
X64839500Y15413321D01*
X64819815Y15346282D01*
X64803181Y15325640D01*
X64769506Y15291966D01*
X64769504Y15291963D01*
X64706905Y15183537D01*
X64706905Y15183536D01*
X64674500Y15062601D01*
X64674500Y14937399D01*
X64706905Y14816464D01*
X64769505Y14708036D01*
X64858036Y14619505D01*
X64966464Y14556905D01*
X65087399Y14524500D01*
X65087401Y14524500D01*
X65212598Y14524500D01*
X65212601Y14524500D01*
X65234145Y14530273D01*
X65303990Y14528612D01*
X65361854Y14489452D01*
X65389361Y14425225D01*
X65377777Y14356322D01*
X65373627Y14348503D01*
X65356908Y14319543D01*
X65356905Y14319538D01*
X65343499Y14269505D01*
X65324500Y14198601D01*
X65324500Y14073399D01*
X65356905Y13952464D01*
X65419505Y13844036D01*
X65508036Y13755505D01*
X65616464Y13692905D01*
X65737399Y13660500D01*
X65737401Y13660500D01*
X65862599Y13660500D01*
X65862601Y13660500D01*
X65983536Y13692905D01*
X66091964Y13755505D01*
X66180495Y13844036D01*
X66243095Y13952464D01*
X66275500Y14073399D01*
X66275500Y14198601D01*
X66243095Y14319536D01*
X66180495Y14427964D01*
X66146819Y14461640D01*
X66113334Y14522963D01*
X66110500Y14549321D01*
X66110500Y26150000D01*
X67250000Y26150000D01*
X67810371Y26150000D01*
X67877410Y26130315D01*
X67923165Y26077511D01*
X67933109Y26008353D01*
X67904084Y25944797D01*
X67883255Y25925681D01*
X67848282Y25900273D01*
X67848282Y25900272D01*
X68480591Y25267963D01*
X68417007Y25250925D01*
X68302993Y25185099D01*
X68209901Y25092007D01*
X68144075Y24977993D01*
X68127037Y24914409D01*
X67494728Y25546718D01*
X67494727Y25546718D01*
X67455380Y25492561D01*
X67358904Y25303218D01*
X67293242Y25101131D01*
X67293242Y25101128D01*
X67260000Y24891247D01*
X67260000Y24678754D01*
X67293242Y24468873D01*
X67293242Y24468870D01*
X67358904Y24266783D01*
X67455375Y24077450D01*
X67494728Y24023284D01*
X68127037Y24655592D01*
X68144075Y24592007D01*
X68209901Y24477993D01*
X68302993Y24384901D01*
X68417007Y24319075D01*
X68480589Y24302038D01*
X67848282Y23669731D01*
X67848282Y23669730D01*
X67902449Y23630376D01*
X68091782Y23533905D01*
X68293870Y23468243D01*
X68503754Y23435000D01*
X68716246Y23435000D01*
X68926127Y23468243D01*
X68926130Y23468243D01*
X69128214Y23533904D01*
X69128544Y23534040D01*
X69128679Y23534055D01*
X69132854Y23535411D01*
X69133138Y23534535D01*
X69198013Y23541510D01*
X69260493Y23510238D01*
X69296147Y23450150D01*
X69300000Y23419480D01*
X69300000Y23400000D01*
X75150000Y23400000D01*
X75150000Y28650000D01*
X67250000Y28700000D01*
X67250000Y26150000D01*
X66110500Y26150000D01*
X66110500Y32036679D01*
X66130185Y32103718D01*
X66146819Y32124360D01*
X66152781Y32130322D01*
X66180495Y32158036D01*
X66243095Y32266464D01*
X66275500Y32387399D01*
X66275500Y32512601D01*
X66243095Y32633536D01*
X66180495Y32741964D01*
X66091964Y32830495D01*
X65983536Y32893095D01*
X65983537Y32893095D01*
X65943224Y32903897D01*
X65862601Y32925500D01*
X65737399Y32925500D01*
X65662805Y32905513D01*
X65616594Y32893130D01*
X65546744Y32894793D01*
X65488881Y32933955D01*
X65461377Y32998184D01*
X65460500Y33012905D01*
X65460500Y37212601D01*
X66574500Y37212601D01*
X66574500Y37087399D01*
X66606905Y36966464D01*
X66669505Y36858036D01*
X66758036Y36769505D01*
X66866464Y36706905D01*
X66987399Y36674500D01*
X66987401Y36674500D01*
X67112599Y36674500D01*
X67112601Y36674500D01*
X67233536Y36706905D01*
X67341964Y36769505D01*
X67430495Y36858036D01*
X67493095Y36966464D01*
X67525500Y37087399D01*
X67525500Y37212601D01*
X67493095Y37333536D01*
X67430495Y37441964D01*
X67341964Y37530495D01*
X67233536Y37593095D01*
X67233537Y37593095D01*
X67193224Y37603897D01*
X67112601Y37625500D01*
X66987399Y37625500D01*
X66906775Y37603897D01*
X66866463Y37593095D01*
X66758037Y37530496D01*
X66758034Y37530494D01*
X66669506Y37441966D01*
X66669504Y37441963D01*
X66606905Y37333537D01*
X66596069Y37293095D01*
X66574500Y37212601D01*
X65460500Y37212601D01*
X65460500Y39262601D01*
X75424500Y39262601D01*
X75424500Y39137399D01*
X75456905Y39016464D01*
X75519505Y38908036D01*
X75608036Y38819505D01*
X75716464Y38756905D01*
X75837399Y38724500D01*
X75837401Y38724500D01*
X75962599Y38724500D01*
X75962601Y38724500D01*
X76083536Y38756905D01*
X76191964Y38819505D01*
X76280495Y38908036D01*
X76343095Y39016464D01*
X76375500Y39137399D01*
X76375500Y39262601D01*
X76343095Y39383536D01*
X76280495Y39491964D01*
X76191964Y39580495D01*
X76083536Y39643095D01*
X76083537Y39643095D01*
X76043224Y39653897D01*
X75962601Y39675500D01*
X75837399Y39675500D01*
X75756775Y39653897D01*
X75716463Y39643095D01*
X75608037Y39580496D01*
X75608034Y39580494D01*
X75519506Y39491966D01*
X75519504Y39491963D01*
X75456905Y39383537D01*
X75456905Y39383536D01*
X75424500Y39262601D01*
X65460500Y39262601D01*
X65460500Y41190968D01*
X66802867Y41190968D01*
X66802867Y41065766D01*
X66835272Y40944831D01*
X66897872Y40836403D01*
X66986403Y40747872D01*
X67094831Y40685272D01*
X67215766Y40652867D01*
X67215768Y40652867D01*
X67340966Y40652867D01*
X67340968Y40652867D01*
X67461903Y40685272D01*
X67570331Y40747872D01*
X67658862Y40836403D01*
X67721462Y40944831D01*
X67753867Y41065766D01*
X67753867Y41190968D01*
X67721462Y41311903D01*
X67658862Y41420331D01*
X67570331Y41508862D01*
X67461903Y41571462D01*
X67461904Y41571462D01*
X67421591Y41582264D01*
X67340968Y41603867D01*
X67215766Y41603867D01*
X67135142Y41582264D01*
X67094830Y41571462D01*
X66986404Y41508863D01*
X66986401Y41508861D01*
X66897873Y41420333D01*
X66897871Y41420330D01*
X66835272Y41311904D01*
X66835272Y41311903D01*
X66802867Y41190968D01*
X65460500Y41190968D01*
X65460500Y45702314D01*
X65480185Y45769353D01*
X65532989Y45815108D01*
X65555010Y45821429D01*
X65554751Y45822397D01*
X65562599Y45824500D01*
X65562601Y45824500D01*
X65683536Y45856905D01*
X65791964Y45919505D01*
X65835060Y45962601D01*
X75424500Y45962601D01*
X75424500Y45837399D01*
X75456905Y45716464D01*
X75519505Y45608036D01*
X75608036Y45519505D01*
X75716464Y45456905D01*
X75837399Y45424500D01*
X75837401Y45424500D01*
X75962599Y45424500D01*
X75962601Y45424500D01*
X76083536Y45456905D01*
X76191964Y45519505D01*
X76280495Y45608036D01*
X76343095Y45716464D01*
X76345649Y45725997D01*
X82244500Y45725997D01*
X82244500Y19973993D01*
X82249197Y19930314D01*
X82260397Y19878826D01*
X82262890Y19868628D01*
X82262891Y19868625D01*
X82305899Y19787917D01*
X82305901Y19787914D01*
X82351660Y19735105D01*
X82369242Y19717161D01*
X82369246Y19717157D01*
X82369247Y19717156D01*
X82369249Y19717155D01*
X82423330Y19686904D01*
X82449063Y19672510D01*
X82516102Y19652825D01*
X82574000Y19644500D01*
X83447000Y19644500D01*
X83514039Y19624815D01*
X83559794Y19572011D01*
X83571000Y19520500D01*
X83571000Y5449500D01*
X83551315Y5382461D01*
X83498511Y5336706D01*
X83447000Y5325500D01*
X83437399Y5325500D01*
X83356775Y5303897D01*
X83316463Y5293095D01*
X83208037Y5230496D01*
X83208034Y5230494D01*
X83119506Y5141966D01*
X83119504Y5141963D01*
X83056905Y5033537D01*
X83048053Y5000500D01*
X83024500Y4912601D01*
X83024500Y4787399D01*
X83056905Y4666464D01*
X83119505Y4558036D01*
X83208036Y4469505D01*
X83316464Y4406905D01*
X83437399Y4374500D01*
X83437401Y4374500D01*
X83562599Y4374500D01*
X83562601Y4374500D01*
X83683536Y4406905D01*
X83791964Y4469505D01*
X83880495Y4558036D01*
X83943095Y4666464D01*
X83975500Y4787399D01*
X83975500Y4835025D01*
X83995185Y4902064D01*
X84011819Y4922706D01*
X84057208Y4968095D01*
X84129961Y5040848D01*
X84163225Y5098462D01*
X84170840Y5111652D01*
X84192000Y5190622D01*
X84192000Y10062601D01*
X88624500Y10062601D01*
X88624500Y9937399D01*
X88656905Y9816464D01*
X88719505Y9708036D01*
X88808036Y9619505D01*
X88916464Y9556905D01*
X89037399Y9524500D01*
X89037401Y9524500D01*
X89162599Y9524500D01*
X89162601Y9524500D01*
X89283536Y9556905D01*
X89391964Y9619505D01*
X89480495Y9708036D01*
X89543095Y9816464D01*
X89575500Y9937399D01*
X89575500Y10062601D01*
X89543095Y10183536D01*
X89480495Y10291964D01*
X89391964Y10380495D01*
X89283536Y10443095D01*
X89283537Y10443095D01*
X89243224Y10453897D01*
X89162601Y10475500D01*
X89037399Y10475500D01*
X88956775Y10453897D01*
X88916463Y10443095D01*
X88808037Y10380496D01*
X88808034Y10380494D01*
X88719506Y10291966D01*
X88719504Y10291963D01*
X88656905Y10183537D01*
X88649326Y10155250D01*
X88624500Y10062601D01*
X84192000Y10062601D01*
X84192000Y11762601D01*
X98724500Y11762601D01*
X98724500Y11637399D01*
X98756905Y11516464D01*
X98819505Y11408036D01*
X98908036Y11319505D01*
X99011783Y11259608D01*
X99059998Y11209042D01*
X99073222Y11140436D01*
X99047254Y11075570D01*
X99037465Y11064540D01*
X98964887Y10991963D01*
X98902289Y10883537D01*
X98888078Y10830500D01*
X98869884Y10762601D01*
X98869884Y10637399D01*
X98902289Y10516464D01*
X98964889Y10408036D01*
X99053420Y10319505D01*
X99072097Y10308722D01*
X99076715Y10306056D01*
X99124931Y10255489D01*
X99138155Y10186882D01*
X99112187Y10122017D01*
X99076718Y10091282D01*
X99058039Y10080498D01*
X99058034Y10080494D01*
X98969506Y9991966D01*
X98969504Y9991963D01*
X98906905Y9883537D01*
X98906905Y9883536D01*
X98874500Y9762601D01*
X98874500Y9637399D01*
X98906905Y9516464D01*
X98969505Y9408036D01*
X99058036Y9319505D01*
X99166464Y9256905D01*
X99287399Y9224500D01*
X99287401Y9224500D01*
X99412599Y9224500D01*
X99412601Y9224500D01*
X99533536Y9256905D01*
X99641964Y9319505D01*
X99730495Y9408036D01*
X99793095Y9516464D01*
X99825500Y9637399D01*
X99825500Y9762601D01*
X99793095Y9883536D01*
X99730495Y9991964D01*
X99661454Y10061005D01*
X105519499Y10061005D01*
X105546418Y9925678D01*
X105546421Y9925668D01*
X105599221Y9798196D01*
X105599228Y9798183D01*
X105675885Y9683459D01*
X105675888Y9683455D01*
X105773454Y9585889D01*
X105773458Y9585886D01*
X105888182Y9509229D01*
X105888195Y9509222D01*
X106011773Y9458035D01*
X106015672Y9456420D01*
X106015676Y9456420D01*
X106015677Y9456419D01*
X106151004Y9429500D01*
X106151007Y9429500D01*
X107388995Y9429500D01*
X107480041Y9447611D01*
X107524328Y9456420D01*
X107622924Y9497260D01*
X107651804Y9509222D01*
X107651804Y9509223D01*
X107651811Y9509225D01*
X107766542Y9585886D01*
X107864114Y9683458D01*
X107940775Y9798189D01*
X107993580Y9925672D01*
X108016712Y10041964D01*
X108020500Y10061005D01*
X108020500Y10198996D01*
X107993581Y10334323D01*
X107993580Y10334324D01*
X107993580Y10334328D01*
X107993578Y10334333D01*
X107940778Y10461805D01*
X107940771Y10461818D01*
X107864114Y10576542D01*
X107864111Y10576546D01*
X107766545Y10674112D01*
X107766541Y10674115D01*
X107651817Y10750772D01*
X107651804Y10750779D01*
X107524332Y10803579D01*
X107524322Y10803582D01*
X107445032Y10819354D01*
X107383121Y10851739D01*
X107348547Y10912455D01*
X107352288Y10982225D01*
X107393154Y11038897D01*
X107437128Y11060745D01*
X107472836Y11070312D01*
X107592665Y11139495D01*
X107690505Y11237335D01*
X107759688Y11357164D01*
X107795500Y11490817D01*
X107795500Y11629183D01*
X107759688Y11762836D01*
X107690505Y11882665D01*
X107592665Y11980505D01*
X107592664Y11980506D01*
X107592661Y11980508D01*
X107472838Y12049687D01*
X107472837Y12049688D01*
X107472836Y12049688D01*
X107339183Y12085500D01*
X107200817Y12085500D01*
X107067164Y12049688D01*
X107067161Y12049687D01*
X106947338Y11980508D01*
X106947333Y11980504D01*
X106849496Y11882667D01*
X106849492Y11882662D01*
X106780313Y11762839D01*
X106780312Y11762836D01*
X106744500Y11629183D01*
X106744500Y11490817D01*
X106766682Y11408035D01*
X106780312Y11357165D01*
X106780313Y11357162D01*
X106849492Y11237339D01*
X106849494Y11237336D01*
X106849495Y11237335D01*
X106947335Y11139495D01*
X107067164Y11070312D01*
X107067167Y11070311D01*
X107070182Y11069062D01*
X107072337Y11067325D01*
X107074203Y11066248D01*
X107074035Y11065958D01*
X107124587Y11025222D01*
X107146653Y10958928D01*
X107129375Y10891229D01*
X107078239Y10843617D01*
X107022732Y10830500D01*
X106151005Y10830500D01*
X106015677Y10803582D01*
X106015667Y10803579D01*
X105888195Y10750779D01*
X105888182Y10750772D01*
X105773458Y10674115D01*
X105773454Y10674112D01*
X105675888Y10576546D01*
X105675885Y10576542D01*
X105599228Y10461818D01*
X105599221Y10461805D01*
X105546421Y10334333D01*
X105546418Y10334323D01*
X105519500Y10198996D01*
X105519500Y10198993D01*
X105519500Y10061007D01*
X105519500Y10061005D01*
X105519499Y10061005D01*
X99661454Y10061005D01*
X99641964Y10080495D01*
X99641963Y10080496D01*
X99641960Y10080498D01*
X99618667Y10093946D01*
X99614476Y10098341D01*
X99608738Y10100327D01*
X99590648Y10123331D01*
X99570451Y10144513D01*
X99569301Y10150477D01*
X99565548Y10155250D01*
X99562766Y10184388D01*
X99557229Y10213120D01*
X99559485Y10218756D01*
X99558908Y10224803D01*
X99572322Y10250822D01*
X99583197Y10277985D01*
X99588854Y10282888D01*
X99590926Y10286905D01*
X99618663Y10308718D01*
X99637348Y10319505D01*
X99725879Y10408036D01*
X99788479Y10516464D01*
X99820884Y10637399D01*
X99820884Y10762601D01*
X99788479Y10883536D01*
X99725879Y10991964D01*
X99637348Y11080495D01*
X99637347Y11080496D01*
X99587878Y11109056D01*
X99533600Y11140394D01*
X99485385Y11190959D01*
X99472161Y11259566D01*
X99498129Y11324431D01*
X99507903Y11335445D01*
X99580495Y11408036D01*
X99643095Y11516464D01*
X99675500Y11637399D01*
X99675500Y11762601D01*
X99643095Y11883536D01*
X99580495Y11991964D01*
X99491964Y12080495D01*
X99383536Y12143095D01*
X99383537Y12143095D01*
X99343224Y12153897D01*
X99262601Y12175500D01*
X99137399Y12175500D01*
X99056775Y12153897D01*
X99016463Y12143095D01*
X98908037Y12080496D01*
X98908034Y12080494D01*
X98819506Y11991966D01*
X98819504Y11991963D01*
X98756905Y11883537D01*
X98756671Y11882662D01*
X98724500Y11762601D01*
X84192000Y11762601D01*
X84192000Y14153217D01*
X96933884Y14153217D01*
X96933884Y14028015D01*
X96966289Y13907080D01*
X97028889Y13798652D01*
X97117420Y13710121D01*
X97117421Y13710120D01*
X97117423Y13710119D01*
X97140660Y13696703D01*
X97188876Y13646136D01*
X97202099Y13577529D01*
X97186048Y13527317D01*
X97131905Y13433537D01*
X97122771Y13399448D01*
X97099500Y13312601D01*
X97099500Y13187399D01*
X97131905Y13066464D01*
X97194505Y12958036D01*
X97283036Y12869505D01*
X97391464Y12806905D01*
X97512399Y12774500D01*
X97512401Y12774500D01*
X97637599Y12774500D01*
X97637601Y12774500D01*
X97758536Y12806905D01*
X97866964Y12869505D01*
X97955495Y12958036D01*
X97955495Y12958037D01*
X97961242Y12963783D01*
X97962968Y12962057D01*
X98009404Y12995975D01*
X98079150Y13000140D01*
X98140075Y12965937D01*
X98158757Y12941292D01*
X98189502Y12888040D01*
X98189504Y12888038D01*
X98189505Y12888036D01*
X98278036Y12799505D01*
X98386464Y12736905D01*
X98507399Y12704500D01*
X98507401Y12704500D01*
X98632599Y12704500D01*
X98632601Y12704500D01*
X98753536Y12736905D01*
X98861964Y12799505D01*
X98950495Y12888036D01*
X99013095Y12996464D01*
X99045500Y13117399D01*
X99045500Y13242601D01*
X99013095Y13363536D01*
X98950495Y13471964D01*
X98861964Y13560495D01*
X98753536Y13623095D01*
X98753537Y13623095D01*
X98713224Y13633897D01*
X98632601Y13655500D01*
X98507399Y13655500D01*
X98426775Y13633897D01*
X98386463Y13623095D01*
X98278037Y13560496D01*
X98278034Y13560494D01*
X98183758Y13466217D01*
X98182036Y13467939D01*
X98135554Y13434012D01*
X98065807Y13429870D01*
X98004894Y13464095D01*
X97986242Y13488709D01*
X97955497Y13541961D01*
X97955493Y13541966D01*
X97866965Y13630494D01*
X97866964Y13630495D01*
X97860765Y13634074D01*
X97843722Y13643914D01*
X97795507Y13694482D01*
X97782285Y13763089D01*
X97798336Y13813301D01*
X97814884Y13841963D01*
X97852479Y13907080D01*
X97884884Y14028015D01*
X97884884Y14153217D01*
X97852479Y14274152D01*
X97789879Y14382580D01*
X97701348Y14471111D01*
X97592920Y14533711D01*
X97592921Y14533711D01*
X97552608Y14544513D01*
X97471985Y14566116D01*
X97346783Y14566116D01*
X97266159Y14544513D01*
X97225847Y14533711D01*
X97117421Y14471112D01*
X97117418Y14471110D01*
X97028890Y14382582D01*
X97028888Y14382579D01*
X96966289Y14274153D01*
X96966289Y14274152D01*
X96933884Y14153217D01*
X84192000Y14153217D01*
X84192000Y18701005D01*
X105519499Y18701005D01*
X105546418Y18565678D01*
X105546421Y18565668D01*
X105599221Y18438196D01*
X105599228Y18438183D01*
X105675885Y18323459D01*
X105675888Y18323455D01*
X105773454Y18225889D01*
X105773458Y18225886D01*
X105888182Y18149229D01*
X105888195Y18149222D01*
X106015667Y18096422D01*
X106015672Y18096420D01*
X106015676Y18096420D01*
X106015677Y18096419D01*
X106151004Y18069500D01*
X107022732Y18069500D01*
X107089771Y18049815D01*
X107135526Y17997011D01*
X107145470Y17927853D01*
X107116445Y17864297D01*
X107074168Y17833813D01*
X107074203Y17833752D01*
X107073608Y17833409D01*
X107070182Y17830938D01*
X107067163Y17829688D01*
X106947338Y17760508D01*
X106947333Y17760504D01*
X106849496Y17662667D01*
X106849492Y17662662D01*
X106780313Y17542839D01*
X106780312Y17542836D01*
X106744500Y17409183D01*
X106744500Y17270817D01*
X106780249Y17137401D01*
X106780312Y17137165D01*
X106780313Y17137162D01*
X106849492Y17017339D01*
X106849494Y17017336D01*
X106849495Y17017335D01*
X106947335Y16919495D01*
X106947336Y16919494D01*
X106947338Y16919493D01*
X106967184Y16908035D01*
X107067164Y16850312D01*
X107200817Y16814500D01*
X107200819Y16814500D01*
X107339181Y16814500D01*
X107339183Y16814500D01*
X107472836Y16850312D01*
X107592665Y16919495D01*
X107690505Y17017335D01*
X107759688Y17137164D01*
X107795500Y17270817D01*
X107795500Y17409183D01*
X107759688Y17542836D01*
X107690505Y17662665D01*
X107592665Y17760505D01*
X107592664Y17760506D01*
X107592661Y17760508D01*
X107472838Y17829687D01*
X107472837Y17829688D01*
X107457017Y17833927D01*
X107437129Y17839256D01*
X107377470Y17875621D01*
X107346941Y17938468D01*
X107355236Y18007843D01*
X107399722Y18061721D01*
X107445033Y18080647D01*
X107459297Y18083485D01*
X107524328Y18096420D01*
X107651811Y18149225D01*
X107766542Y18225886D01*
X107864114Y18323458D01*
X107940775Y18438189D01*
X107993580Y18565672D01*
X108002389Y18609959D01*
X108020500Y18701005D01*
X108020500Y18838996D01*
X107993581Y18974323D01*
X107993580Y18974324D01*
X107993580Y18974328D01*
X107946744Y19087401D01*
X107940778Y19101805D01*
X107940771Y19101818D01*
X107864114Y19216542D01*
X107864111Y19216546D01*
X107766545Y19314112D01*
X107766541Y19314115D01*
X107651817Y19390772D01*
X107651804Y19390779D01*
X107524332Y19443579D01*
X107524322Y19443582D01*
X107388995Y19470500D01*
X107388993Y19470500D01*
X106151007Y19470500D01*
X106151005Y19470500D01*
X106015677Y19443582D01*
X106015667Y19443579D01*
X105888195Y19390779D01*
X105888182Y19390772D01*
X105773458Y19314115D01*
X105773454Y19314112D01*
X105675888Y19216546D01*
X105675885Y19216542D01*
X105599228Y19101818D01*
X105599221Y19101805D01*
X105546421Y18974333D01*
X105546418Y18974323D01*
X105519500Y18838996D01*
X105519500Y18838993D01*
X105519500Y18701007D01*
X105519500Y18701005D01*
X105519499Y18701005D01*
X84192000Y18701005D01*
X84192000Y19520500D01*
X84211685Y19587539D01*
X84264489Y19633294D01*
X84316000Y19644500D01*
X85275991Y19644500D01*
X85276000Y19644500D01*
X85319684Y19649197D01*
X85348875Y19655548D01*
X85371174Y19660398D01*
X85371190Y19660402D01*
X85371195Y19660403D01*
X85381373Y19662890D01*
X85462085Y19705900D01*
X85514889Y19751655D01*
X85532843Y19769246D01*
X85577490Y19849063D01*
X85597175Y19916102D01*
X85605500Y19974000D01*
X85605500Y33112601D01*
X88624500Y33112601D01*
X88624500Y32987399D01*
X88656905Y32866464D01*
X88719505Y32758036D01*
X88808036Y32669505D01*
X88916464Y32606905D01*
X89037399Y32574500D01*
X89037401Y32574500D01*
X89162599Y32574500D01*
X89162601Y32574500D01*
X89283536Y32606905D01*
X89391964Y32669505D01*
X89480495Y32758036D01*
X89543095Y32866464D01*
X89575500Y32987399D01*
X89575500Y33112601D01*
X89543095Y33233536D01*
X89480495Y33341964D01*
X89391964Y33430495D01*
X89283536Y33493095D01*
X89283537Y33493095D01*
X89243224Y33503897D01*
X89162601Y33525500D01*
X89037399Y33525500D01*
X88956775Y33503897D01*
X88916463Y33493095D01*
X88808037Y33430496D01*
X88808034Y33430494D01*
X88719506Y33341966D01*
X88719504Y33341963D01*
X88656905Y33233537D01*
X88656905Y33233536D01*
X88624500Y33112601D01*
X85605500Y33112601D01*
X85605500Y36912601D01*
X95374500Y36912601D01*
X95374500Y36787399D01*
X95406905Y36666464D01*
X95469505Y36558036D01*
X95558036Y36469505D01*
X95666464Y36406905D01*
X95787399Y36374500D01*
X95787401Y36374500D01*
X95912599Y36374500D01*
X95912601Y36374500D01*
X96033536Y36406905D01*
X96141964Y36469505D01*
X96230495Y36558036D01*
X96293095Y36666464D01*
X96325500Y36787399D01*
X96325500Y36912601D01*
X96298705Y37012601D01*
X97524500Y37012601D01*
X97524500Y36887399D01*
X97556905Y36766464D01*
X97619505Y36658036D01*
X97708036Y36569505D01*
X97816464Y36506905D01*
X97937399Y36474500D01*
X97937401Y36474500D01*
X98062599Y36474500D01*
X98062601Y36474500D01*
X98183536Y36506905D01*
X98291964Y36569505D01*
X98380495Y36658036D01*
X98443095Y36766464D01*
X98475500Y36887399D01*
X98475500Y37012601D01*
X98443095Y37133536D01*
X98380495Y37241964D01*
X98291964Y37330495D01*
X98183536Y37393095D01*
X98183537Y37393095D01*
X98143224Y37403897D01*
X98062601Y37425500D01*
X97937399Y37425500D01*
X97856775Y37403897D01*
X97816463Y37393095D01*
X97708037Y37330496D01*
X97708034Y37330494D01*
X97619506Y37241966D01*
X97619504Y37241963D01*
X97556905Y37133537D01*
X97556905Y37133536D01*
X97524500Y37012601D01*
X96298705Y37012601D01*
X96293095Y37033536D01*
X96230495Y37141964D01*
X96141964Y37230495D01*
X96033536Y37293095D01*
X96033537Y37293095D01*
X95993224Y37303897D01*
X95912601Y37325500D01*
X95787399Y37325500D01*
X95706775Y37303897D01*
X95666463Y37293095D01*
X95558037Y37230496D01*
X95558034Y37230494D01*
X95469506Y37141966D01*
X95469504Y37141963D01*
X95406905Y37033537D01*
X95406905Y37033536D01*
X95374500Y36912601D01*
X85605500Y36912601D01*
X85605500Y45726000D01*
X85600803Y45769684D01*
X85595956Y45791966D01*
X85589602Y45821175D01*
X85588789Y45824500D01*
X85587110Y45831373D01*
X85544100Y45912085D01*
X85498345Y45964889D01*
X85498339Y45964896D01*
X85480757Y45982840D01*
X85480756Y45982841D01*
X85480754Y45982843D01*
X85480752Y45982844D01*
X85480750Y45982846D01*
X85400940Y46027489D01*
X85400935Y46027491D01*
X85333903Y46047174D01*
X85333899Y46047175D01*
X85333898Y46047175D01*
X85276000Y46055500D01*
X82574000Y46055500D01*
X82573992Y46055500D01*
X82530313Y46050803D01*
X82478825Y46039603D01*
X82468627Y46037110D01*
X82468624Y46037109D01*
X82387916Y45994101D01*
X82387913Y45994099D01*
X82335104Y45948340D01*
X82317160Y45930758D01*
X82317154Y45930751D01*
X82272511Y45850941D01*
X82272509Y45850936D01*
X82252826Y45783904D01*
X82252825Y45783899D01*
X82252825Y45783898D01*
X82244502Y45726008D01*
X82244500Y45725997D01*
X76345649Y45725997D01*
X76375500Y45837399D01*
X76375500Y45962601D01*
X76343095Y46083536D01*
X76280495Y46191964D01*
X76191964Y46280495D01*
X76083536Y46343095D01*
X76083537Y46343095D01*
X76043224Y46353897D01*
X75962601Y46375500D01*
X75837399Y46375500D01*
X75756775Y46353897D01*
X75716463Y46343095D01*
X75608037Y46280496D01*
X75608034Y46280494D01*
X75519506Y46191966D01*
X75519504Y46191963D01*
X75456905Y46083537D01*
X75456905Y46083536D01*
X75424500Y45962601D01*
X65835060Y45962601D01*
X65880495Y46008036D01*
X65884854Y46015587D01*
X65894752Y46032729D01*
X65924085Y46083537D01*
X65943095Y46116464D01*
X65975500Y46237399D01*
X65975500Y46362601D01*
X65943095Y46483536D01*
X65880495Y46591964D01*
X65791964Y46680495D01*
X65683536Y46743095D01*
X65683537Y46743095D01*
X65643224Y46753897D01*
X65562601Y46775500D01*
X65437399Y46775500D01*
X65356775Y46753897D01*
X65316463Y46743095D01*
X65225499Y46690577D01*
X65157599Y46674105D01*
X65091572Y46696958D01*
X65048382Y46751880D01*
X65039500Y46797965D01*
X65039500Y63208670D01*
X70463500Y63208670D01*
X70463500Y63001731D01*
X70503868Y62798788D01*
X70503870Y62798780D01*
X70583058Y62607604D01*
X70698024Y62435543D01*
X70844342Y62289225D01*
X70844345Y62289223D01*
X71016402Y62174259D01*
X71207580Y62095070D01*
X71410530Y62054701D01*
X71410534Y62054700D01*
X71410535Y62054700D01*
X71617466Y62054700D01*
X71617467Y62054701D01*
X71820420Y62095070D01*
X72011598Y62174259D01*
X72183655Y62289223D01*
X72329977Y62435545D01*
X72444941Y62607602D01*
X72524130Y62798780D01*
X72564500Y63001735D01*
X72564500Y63208665D01*
X72526163Y63401401D01*
X95387000Y63401401D01*
X95387000Y63276199D01*
X95419405Y63155264D01*
X95482005Y63046836D01*
X95570536Y62958305D01*
X95678964Y62895705D01*
X95799899Y62863300D01*
X95799901Y62863300D01*
X95925099Y62863300D01*
X95925101Y62863300D01*
X96046036Y62895705D01*
X96154464Y62958305D01*
X96242995Y63046836D01*
X96305595Y63155264D01*
X96338000Y63276199D01*
X96338000Y63401401D01*
X96305595Y63522336D01*
X96242995Y63630764D01*
X96154464Y63719295D01*
X96046036Y63781895D01*
X96046037Y63781895D01*
X96005724Y63792697D01*
X95925101Y63814300D01*
X95799899Y63814300D01*
X95719275Y63792697D01*
X95678963Y63781895D01*
X95570537Y63719296D01*
X95570534Y63719294D01*
X95482006Y63630766D01*
X95482004Y63630763D01*
X95419405Y63522337D01*
X95419405Y63522336D01*
X95387000Y63401401D01*
X72526163Y63401401D01*
X72524130Y63411620D01*
X72444941Y63602798D01*
X72329977Y63774855D01*
X72329975Y63774858D01*
X72183657Y63921176D01*
X72029556Y64024142D01*
X72011598Y64036141D01*
X71820420Y64115330D01*
X71820412Y64115332D01*
X71617469Y64155700D01*
X71617465Y64155700D01*
X71410535Y64155700D01*
X71410530Y64155700D01*
X71207587Y64115332D01*
X71207579Y64115330D01*
X71016403Y64036142D01*
X70844342Y63921176D01*
X70698024Y63774858D01*
X70583058Y63602797D01*
X70503870Y63411621D01*
X70503868Y63411613D01*
X70463500Y63208670D01*
X65039500Y63208670D01*
X65039500Y65748670D01*
X70463500Y65748670D01*
X70463500Y65541731D01*
X70503868Y65338788D01*
X70503870Y65338780D01*
X70583058Y65147604D01*
X70698024Y64975543D01*
X70844342Y64829225D01*
X70844345Y64829223D01*
X71016402Y64714259D01*
X71207580Y64635070D01*
X71410530Y64594701D01*
X71410534Y64594700D01*
X71410535Y64594700D01*
X71617466Y64594700D01*
X71617467Y64594701D01*
X71820420Y64635070D01*
X72011598Y64714259D01*
X72183655Y64829223D01*
X72329977Y64975545D01*
X72444941Y65147602D01*
X72524130Y65338780D01*
X72564500Y65541735D01*
X72564500Y65748665D01*
X72524130Y65951620D01*
X72444941Y66142798D01*
X72329977Y66314855D01*
X72329975Y66314858D01*
X72183657Y66461176D01*
X72082410Y66528826D01*
X72082408Y66528829D01*
X72011599Y66576141D01*
X71896538Y66623801D01*
X95927000Y66623801D01*
X95927000Y66498599D01*
X95959405Y66377664D01*
X96022005Y66269236D01*
X96110536Y66180705D01*
X96218964Y66118105D01*
X96339899Y66085700D01*
X96339901Y66085700D01*
X96465099Y66085700D01*
X96465101Y66085700D01*
X96586036Y66118105D01*
X96694464Y66180705D01*
X96782995Y66269236D01*
X96845595Y66377664D01*
X96878000Y66498599D01*
X96878000Y66623801D01*
X96845595Y66744736D01*
X96782995Y66853164D01*
X96694464Y66941695D01*
X96586036Y67004295D01*
X96586037Y67004295D01*
X96545724Y67015097D01*
X96465101Y67036700D01*
X96339899Y67036700D01*
X96259275Y67015097D01*
X96218963Y67004295D01*
X96110537Y66941696D01*
X96110534Y66941694D01*
X96022006Y66853166D01*
X96022004Y66853163D01*
X95959405Y66744737D01*
X95959405Y66744736D01*
X95927000Y66623801D01*
X71896538Y66623801D01*
X71820420Y66655330D01*
X71820412Y66655332D01*
X71617469Y66695700D01*
X71617465Y66695700D01*
X71410535Y66695700D01*
X71410530Y66695700D01*
X71207587Y66655332D01*
X71207579Y66655330D01*
X71016403Y66576142D01*
X70844342Y66461176D01*
X70698024Y66314858D01*
X70583058Y66142797D01*
X70503870Y65951621D01*
X70503868Y65951613D01*
X70463500Y65748670D01*
X65039500Y65748670D01*
X65039500Y68267801D01*
X65488500Y68267801D01*
X65488500Y68142599D01*
X65520905Y68021664D01*
X65583505Y67913236D01*
X65672036Y67824705D01*
X65780464Y67762105D01*
X65901399Y67729700D01*
X65901401Y67729700D01*
X66026599Y67729700D01*
X66026601Y67729700D01*
X66147536Y67762105D01*
X66255964Y67824705D01*
X66344495Y67913236D01*
X66407095Y68021664D01*
X66439500Y68142599D01*
X66439500Y68267801D01*
X66433908Y68288670D01*
X70463500Y68288670D01*
X70463500Y68081731D01*
X70503868Y67878788D01*
X70503870Y67878780D01*
X70583059Y67687602D01*
X70592682Y67673200D01*
X70698024Y67515543D01*
X70844342Y67369225D01*
X70844345Y67369223D01*
X71016402Y67254259D01*
X71207580Y67175070D01*
X71410530Y67134701D01*
X71410534Y67134700D01*
X71410535Y67134700D01*
X71617466Y67134700D01*
X71617467Y67134701D01*
X71820420Y67175070D01*
X72011598Y67254259D01*
X72183655Y67369223D01*
X72329977Y67515545D01*
X72444941Y67687602D01*
X72524130Y67878780D01*
X72564500Y68081735D01*
X72564500Y68288665D01*
X72524130Y68491620D01*
X72444941Y68682798D01*
X72329977Y68854855D01*
X72329975Y68854858D01*
X72183657Y69001176D01*
X72097626Y69058659D01*
X72011598Y69116141D01*
X71820420Y69195330D01*
X71820412Y69195332D01*
X71617469Y69235700D01*
X71617465Y69235700D01*
X71410535Y69235700D01*
X71410530Y69235700D01*
X71207587Y69195332D01*
X71207579Y69195330D01*
X71016403Y69116142D01*
X70844342Y69001176D01*
X70698024Y68854858D01*
X70583058Y68682797D01*
X70503870Y68491621D01*
X70503868Y68491613D01*
X70463500Y68288670D01*
X66433908Y68288670D01*
X66407095Y68388736D01*
X66344495Y68497164D01*
X66255964Y68585695D01*
X66147536Y68648295D01*
X66147537Y68648295D01*
X66107224Y68659097D01*
X66026601Y68680700D01*
X65901399Y68680700D01*
X65820775Y68659097D01*
X65780463Y68648295D01*
X65672037Y68585696D01*
X65672034Y68585694D01*
X65583506Y68497166D01*
X65583504Y68497163D01*
X65520905Y68388737D01*
X65504702Y68328269D01*
X65488500Y68267801D01*
X65039500Y68267801D01*
X65039500Y70828670D01*
X70463500Y70828670D01*
X70463500Y70621731D01*
X70503868Y70418788D01*
X70503870Y70418780D01*
X70583058Y70227604D01*
X70698024Y70055543D01*
X70844342Y69909225D01*
X70844345Y69909223D01*
X71016402Y69794259D01*
X71207580Y69715070D01*
X71410530Y69674701D01*
X71410534Y69674700D01*
X71410535Y69674700D01*
X71617466Y69674700D01*
X71617467Y69674701D01*
X71820420Y69715070D01*
X72011598Y69794259D01*
X72171948Y69901401D01*
X96512000Y69901401D01*
X96512000Y69776199D01*
X96544405Y69655264D01*
X96607005Y69546836D01*
X96695536Y69458305D01*
X96803964Y69395705D01*
X96924899Y69363300D01*
X96924901Y69363300D01*
X97050099Y69363300D01*
X97050101Y69363300D01*
X97171036Y69395705D01*
X97279464Y69458305D01*
X97367995Y69546836D01*
X97430595Y69655264D01*
X97463000Y69776199D01*
X97463000Y69901401D01*
X97430595Y70022336D01*
X97367995Y70130764D01*
X97279464Y70219295D01*
X97171036Y70281895D01*
X97171037Y70281895D01*
X97130724Y70292697D01*
X97050101Y70314300D01*
X96924899Y70314300D01*
X96844275Y70292697D01*
X96803963Y70281895D01*
X96695537Y70219296D01*
X96695534Y70219294D01*
X96607006Y70130766D01*
X96607004Y70130763D01*
X96544405Y70022337D01*
X96537672Y69997210D01*
X96512000Y69901401D01*
X72171948Y69901401D01*
X72183655Y69909223D01*
X72207440Y69933008D01*
X72271643Y69997210D01*
X72329974Y70055542D01*
X72329975Y70055543D01*
X72329977Y70055545D01*
X72444941Y70227602D01*
X72524130Y70418780D01*
X72564500Y70621735D01*
X72564500Y70828665D01*
X72524130Y71031620D01*
X72444941Y71222798D01*
X72329977Y71394855D01*
X72329975Y71394858D01*
X72183657Y71541176D01*
X72029556Y71644142D01*
X72011598Y71656141D01*
X71820420Y71735330D01*
X71820412Y71735332D01*
X71617469Y71775700D01*
X71617465Y71775700D01*
X71410535Y71775700D01*
X71410530Y71775700D01*
X71207587Y71735332D01*
X71207579Y71735330D01*
X71016403Y71656142D01*
X70844342Y71541176D01*
X70698024Y71394858D01*
X70583058Y71222797D01*
X70503870Y71031621D01*
X70503868Y71031613D01*
X70463500Y70828670D01*
X65039500Y70828670D01*
X65039500Y73317801D01*
X66988500Y73317801D01*
X66988500Y73192599D01*
X67020905Y73071664D01*
X67083505Y72963236D01*
X67172036Y72874705D01*
X67280464Y72812105D01*
X67401399Y72779700D01*
X67401401Y72779700D01*
X67526599Y72779700D01*
X67526601Y72779700D01*
X67647536Y72812105D01*
X67755964Y72874705D01*
X67844495Y72963236D01*
X67907095Y73071664D01*
X67939500Y73192599D01*
X67939500Y73317801D01*
X67925869Y73368670D01*
X70463500Y73368670D01*
X70463500Y73161731D01*
X70503868Y72958788D01*
X70503870Y72958780D01*
X70583058Y72767604D01*
X70698024Y72595543D01*
X70844342Y72449225D01*
X70844345Y72449223D01*
X71016402Y72334259D01*
X71207580Y72255070D01*
X71410530Y72214701D01*
X71410534Y72214700D01*
X71410535Y72214700D01*
X71617466Y72214700D01*
X71617467Y72214701D01*
X71820420Y72255070D01*
X72011598Y72334259D01*
X72183655Y72449223D01*
X72329977Y72595545D01*
X72444941Y72767602D01*
X72524130Y72958780D01*
X72532608Y73001401D01*
X97212000Y73001401D01*
X97212000Y72876199D01*
X97244405Y72755264D01*
X97307005Y72646836D01*
X97395536Y72558305D01*
X97503964Y72495705D01*
X97624899Y72463300D01*
X97624901Y72463300D01*
X97750099Y72463300D01*
X97750101Y72463300D01*
X97871036Y72495705D01*
X97979464Y72558305D01*
X98067995Y72646836D01*
X98130595Y72755264D01*
X98163000Y72876199D01*
X98163000Y73001401D01*
X98130595Y73122336D01*
X98067995Y73230764D01*
X97979464Y73319295D01*
X97871036Y73381895D01*
X97871037Y73381895D01*
X97830724Y73392697D01*
X97750101Y73414300D01*
X97624899Y73414300D01*
X97544275Y73392697D01*
X97503963Y73381895D01*
X97395537Y73319296D01*
X97395534Y73319294D01*
X97307006Y73230766D01*
X97307004Y73230763D01*
X97244405Y73122337D01*
X97244405Y73122336D01*
X97212000Y73001401D01*
X72532608Y73001401D01*
X72539037Y73033720D01*
X72564499Y73161731D01*
X72564500Y73161734D01*
X72564500Y73368666D01*
X72564499Y73368670D01*
X72550562Y73438738D01*
X72524130Y73571620D01*
X72444941Y73762798D01*
X72329977Y73934855D01*
X72329975Y73934858D01*
X72183657Y74081176D01*
X72029556Y74184142D01*
X72011598Y74196141D01*
X71820420Y74275330D01*
X71820412Y74275332D01*
X71617469Y74315700D01*
X71617465Y74315700D01*
X71410535Y74315700D01*
X71410530Y74315700D01*
X71207587Y74275332D01*
X71207579Y74275330D01*
X71016403Y74196142D01*
X70844342Y74081176D01*
X70698024Y73934858D01*
X70583058Y73762797D01*
X70503870Y73571621D01*
X70503868Y73571613D01*
X70463500Y73368670D01*
X67925869Y73368670D01*
X67907095Y73438736D01*
X67844495Y73547164D01*
X67755964Y73635695D01*
X67647536Y73698295D01*
X67647537Y73698295D01*
X67607224Y73709097D01*
X67526601Y73730700D01*
X67401399Y73730700D01*
X67320775Y73709097D01*
X67280463Y73698295D01*
X67172037Y73635696D01*
X67172034Y73635694D01*
X67083506Y73547166D01*
X67083504Y73547163D01*
X67020905Y73438737D01*
X67020905Y73438736D01*
X66988500Y73317801D01*
X65039500Y73317801D01*
X65039500Y75867801D01*
X68338500Y75867801D01*
X68338500Y75742599D01*
X68370905Y75621664D01*
X68433505Y75513236D01*
X68522036Y75424705D01*
X68630464Y75362105D01*
X68751399Y75329700D01*
X68751401Y75329700D01*
X68876599Y75329700D01*
X68876601Y75329700D01*
X68997536Y75362105D01*
X69105964Y75424705D01*
X69194495Y75513236D01*
X69257095Y75621664D01*
X69289500Y75742599D01*
X69289500Y75867801D01*
X69278549Y75908670D01*
X70463500Y75908670D01*
X70463500Y75701731D01*
X70503868Y75498788D01*
X70503870Y75498780D01*
X70583058Y75307604D01*
X70698024Y75135543D01*
X70844342Y74989225D01*
X70844345Y74989223D01*
X71016402Y74874259D01*
X71207580Y74795070D01*
X71410530Y74754701D01*
X71410534Y74754700D01*
X71410535Y74754700D01*
X71617466Y74754700D01*
X71617467Y74754701D01*
X71820420Y74795070D01*
X72011598Y74874259D01*
X72183655Y74989223D01*
X72329977Y75135545D01*
X72444941Y75307602D01*
X72524130Y75498780D01*
X72564500Y75701735D01*
X72564500Y75908665D01*
X72563717Y75912601D01*
X102374500Y75912601D01*
X102374500Y75787399D01*
X102406905Y75666464D01*
X102469505Y75558036D01*
X102558036Y75469505D01*
X102666464Y75406905D01*
X102787399Y75374500D01*
X102787401Y75374500D01*
X102912599Y75374500D01*
X102912601Y75374500D01*
X103033536Y75406905D01*
X103141964Y75469505D01*
X103230495Y75558036D01*
X103293095Y75666464D01*
X103325500Y75787399D01*
X103325500Y75912601D01*
X103293095Y76033536D01*
X103230495Y76141964D01*
X103141964Y76230495D01*
X103033536Y76293095D01*
X103033537Y76293095D01*
X102993224Y76303897D01*
X102912601Y76325500D01*
X102787399Y76325500D01*
X102706775Y76303897D01*
X102666463Y76293095D01*
X102558037Y76230496D01*
X102558034Y76230494D01*
X102469506Y76141966D01*
X102469504Y76141963D01*
X102406905Y76033537D01*
X102406905Y76033536D01*
X102374500Y75912601D01*
X72563717Y75912601D01*
X72524130Y76111620D01*
X72444941Y76302798D01*
X72329977Y76474855D01*
X72329975Y76474858D01*
X72183657Y76621176D01*
X72029556Y76724142D01*
X72011598Y76736141D01*
X71820420Y76815330D01*
X71820412Y76815332D01*
X71617469Y76855700D01*
X71617465Y76855700D01*
X71410535Y76855700D01*
X71410530Y76855700D01*
X71207587Y76815332D01*
X71207579Y76815330D01*
X71016403Y76736142D01*
X70844342Y76621176D01*
X70698024Y76474858D01*
X70583058Y76302797D01*
X70503870Y76111621D01*
X70503868Y76111613D01*
X70463500Y75908670D01*
X69278549Y75908670D01*
X69257095Y75988736D01*
X69194495Y76097164D01*
X69105964Y76185695D01*
X68997536Y76248295D01*
X68997537Y76248295D01*
X68957224Y76259097D01*
X68876601Y76280700D01*
X68751399Y76280700D01*
X68670775Y76259097D01*
X68630463Y76248295D01*
X68522037Y76185696D01*
X68522034Y76185694D01*
X68433506Y76097166D01*
X68433504Y76097163D01*
X68370905Y75988737D01*
X68370905Y75988736D01*
X68338500Y75867801D01*
X65039500Y75867801D01*
X65039500Y78417801D01*
X65488500Y78417801D01*
X65488500Y78292599D01*
X65520905Y78171664D01*
X65583505Y78063236D01*
X65672036Y77974705D01*
X65780464Y77912105D01*
X65901399Y77879700D01*
X65901401Y77879700D01*
X66026599Y77879700D01*
X66026601Y77879700D01*
X66147536Y77912105D01*
X66255964Y77974705D01*
X66344495Y78063236D01*
X66407095Y78171664D01*
X66439500Y78292599D01*
X66439500Y78417801D01*
X66431229Y78448670D01*
X70463500Y78448670D01*
X70463500Y78241731D01*
X70503868Y78038788D01*
X70503870Y78038780D01*
X70583058Y77847604D01*
X70698024Y77675543D01*
X70844342Y77529225D01*
X70844345Y77529223D01*
X71016402Y77414259D01*
X71207580Y77335070D01*
X71410530Y77294701D01*
X71410534Y77294700D01*
X71410535Y77294700D01*
X71617466Y77294700D01*
X71617467Y77294701D01*
X71820420Y77335070D01*
X72011598Y77414259D01*
X72183655Y77529223D01*
X72329977Y77675545D01*
X72444941Y77847602D01*
X72524130Y78038780D01*
X72564500Y78241735D01*
X72564500Y78448665D01*
X72524130Y78651620D01*
X72444941Y78842798D01*
X72329977Y79014855D01*
X72329975Y79014858D01*
X72183657Y79161176D01*
X72029556Y79264142D01*
X72011598Y79276141D01*
X71820420Y79355330D01*
X71820412Y79355332D01*
X71617469Y79395700D01*
X71617465Y79395700D01*
X71410535Y79395700D01*
X71410530Y79395700D01*
X71207587Y79355332D01*
X71207579Y79355330D01*
X71016403Y79276142D01*
X70844342Y79161176D01*
X70698024Y79014858D01*
X70583058Y78842797D01*
X70503870Y78651621D01*
X70503868Y78651613D01*
X70463500Y78448670D01*
X66431229Y78448670D01*
X66407095Y78538736D01*
X66344495Y78647164D01*
X66255964Y78735695D01*
X66147536Y78798295D01*
X66147537Y78798295D01*
X66107224Y78809097D01*
X66026601Y78830700D01*
X65901399Y78830700D01*
X65820775Y78809097D01*
X65780463Y78798295D01*
X65672037Y78735696D01*
X65672034Y78735694D01*
X65583506Y78647166D01*
X65583504Y78647163D01*
X65520905Y78538737D01*
X65520905Y78538736D01*
X65488500Y78417801D01*
X65039500Y78417801D01*
X65039500Y80988670D01*
X70463500Y80988670D01*
X70463500Y80781731D01*
X70503868Y80578788D01*
X70503870Y80578780D01*
X70583058Y80387604D01*
X70698024Y80215543D01*
X70844342Y80069225D01*
X70844345Y80069223D01*
X71016402Y79954259D01*
X71207580Y79875070D01*
X71410530Y79834701D01*
X71410534Y79834700D01*
X71410535Y79834700D01*
X71617466Y79834700D01*
X71617467Y79834701D01*
X71820420Y79875070D01*
X72011598Y79954259D01*
X72183655Y80069223D01*
X72329977Y80215545D01*
X72444941Y80387602D01*
X72524130Y80578780D01*
X72564500Y80781735D01*
X72564500Y80988665D01*
X72524130Y81191620D01*
X72444941Y81382798D01*
X72329977Y81554855D01*
X72329975Y81554858D01*
X72183657Y81701176D01*
X72029556Y81804142D01*
X72011598Y81816141D01*
X71820420Y81895330D01*
X71820412Y81895332D01*
X71617469Y81935700D01*
X71617465Y81935700D01*
X71410535Y81935700D01*
X71410530Y81935700D01*
X71207587Y81895332D01*
X71207579Y81895330D01*
X71016403Y81816142D01*
X70844342Y81701176D01*
X70698024Y81554858D01*
X70583058Y81382797D01*
X70503870Y81191621D01*
X70503868Y81191613D01*
X70463500Y80988670D01*
X65039500Y80988670D01*
X65039500Y83528670D01*
X70463500Y83528670D01*
X70463500Y83321731D01*
X70503868Y83118788D01*
X70503870Y83118780D01*
X70583058Y82927604D01*
X70698024Y82755543D01*
X70844342Y82609225D01*
X70844345Y82609223D01*
X71016402Y82494259D01*
X71207580Y82415070D01*
X71410530Y82374701D01*
X71410534Y82374700D01*
X71410535Y82374700D01*
X71617466Y82374700D01*
X71617467Y82374701D01*
X71820420Y82415070D01*
X72011598Y82494259D01*
X72183655Y82609223D01*
X72329977Y82755545D01*
X72444941Y82927602D01*
X72524130Y83118780D01*
X72564500Y83321735D01*
X72564500Y83528665D01*
X72524130Y83731620D01*
X72444941Y83922798D01*
X72329977Y84094855D01*
X72329975Y84094858D01*
X72183657Y84241176D01*
X72029556Y84344142D01*
X72011598Y84356141D01*
X71820420Y84435330D01*
X71820412Y84435332D01*
X71617469Y84475700D01*
X71617465Y84475700D01*
X71410535Y84475700D01*
X71410530Y84475700D01*
X71207587Y84435332D01*
X71207579Y84435330D01*
X71016403Y84356142D01*
X70844342Y84241176D01*
X70698024Y84094858D01*
X70583058Y83922797D01*
X70503870Y83731621D01*
X70503868Y83731613D01*
X70463500Y83528670D01*
X65039500Y83528670D01*
X65039500Y86068670D01*
X70463500Y86068670D01*
X70463500Y85861731D01*
X70503868Y85658788D01*
X70503870Y85658780D01*
X70525574Y85606381D01*
X70583059Y85467602D01*
X70619022Y85413779D01*
X70698024Y85295543D01*
X70844342Y85149225D01*
X70844345Y85149223D01*
X71016402Y85034259D01*
X71207580Y84955070D01*
X71410530Y84914701D01*
X71410534Y84914700D01*
X71410535Y84914700D01*
X71617466Y84914700D01*
X71617467Y84914701D01*
X71820420Y84955070D01*
X72011598Y85034259D01*
X72183655Y85149223D01*
X72329977Y85295545D01*
X72341373Y85312601D01*
X102999500Y85312601D01*
X102999500Y85187399D01*
X103031905Y85066464D01*
X103094505Y84958036D01*
X103183036Y84869505D01*
X103291464Y84806905D01*
X103412399Y84774500D01*
X103412401Y84774500D01*
X103537599Y84774500D01*
X103537601Y84774500D01*
X103658536Y84806905D01*
X103766964Y84869505D01*
X103855495Y84958036D01*
X103918095Y85066464D01*
X103950500Y85187399D01*
X103950500Y85312601D01*
X103918095Y85433536D01*
X103855495Y85541964D01*
X103766964Y85630495D01*
X103658536Y85693095D01*
X103658537Y85693095D01*
X103618224Y85703897D01*
X103537601Y85725500D01*
X103412399Y85725500D01*
X103331775Y85703897D01*
X103291463Y85693095D01*
X103183037Y85630496D01*
X103183034Y85630494D01*
X103094506Y85541966D01*
X103094504Y85541963D01*
X103031905Y85433537D01*
X103015702Y85373069D01*
X102999500Y85312601D01*
X72341373Y85312601D01*
X72355363Y85333538D01*
X72392836Y85389620D01*
X72408979Y85413780D01*
X72444941Y85467602D01*
X72524130Y85658780D01*
X72564500Y85861735D01*
X72564500Y86068665D01*
X72524130Y86271620D01*
X72444941Y86462798D01*
X72329977Y86634855D01*
X72329975Y86634858D01*
X72183657Y86781176D01*
X72029556Y86884142D01*
X72011598Y86896141D01*
X71820420Y86975330D01*
X71820412Y86975332D01*
X71617469Y87015700D01*
X71617465Y87015700D01*
X71410535Y87015700D01*
X71410530Y87015700D01*
X71207587Y86975332D01*
X71207579Y86975330D01*
X71016403Y86896142D01*
X70844342Y86781176D01*
X70698024Y86634858D01*
X70583058Y86462797D01*
X70503870Y86271621D01*
X70503868Y86271613D01*
X70463500Y86068670D01*
X65039500Y86068670D01*
X65039500Y88608670D01*
X70463500Y88608670D01*
X70463500Y88401731D01*
X70503868Y88198788D01*
X70503870Y88198780D01*
X70560482Y88062106D01*
X70583059Y88007602D01*
X70591076Y87995604D01*
X70698024Y87835543D01*
X70844342Y87689225D01*
X70844345Y87689223D01*
X71016402Y87574259D01*
X71207580Y87495070D01*
X71410530Y87454701D01*
X71410534Y87454700D01*
X71410535Y87454700D01*
X71617466Y87454700D01*
X71617467Y87454701D01*
X71820420Y87495070D01*
X72011598Y87574259D01*
X72183655Y87689223D01*
X72329977Y87835545D01*
X72444941Y88007602D01*
X72524130Y88198780D01*
X72564500Y88401735D01*
X72564500Y88608665D01*
X72524130Y88811620D01*
X72444941Y89002798D01*
X72329977Y89174855D01*
X72329975Y89174858D01*
X72183657Y89321176D01*
X72029556Y89424142D01*
X72011598Y89436141D01*
X71820420Y89515330D01*
X71820412Y89515332D01*
X71617469Y89555700D01*
X71617465Y89555700D01*
X71410535Y89555700D01*
X71410530Y89555700D01*
X71207587Y89515332D01*
X71207579Y89515330D01*
X71016403Y89436142D01*
X70844342Y89321176D01*
X70698024Y89174858D01*
X70583058Y89002797D01*
X70503870Y88811621D01*
X70503868Y88811613D01*
X70463500Y88608670D01*
X65039500Y88608670D01*
X65039500Y91148670D01*
X70463500Y91148670D01*
X70463500Y90941731D01*
X70503868Y90738788D01*
X70503870Y90738780D01*
X70583058Y90547604D01*
X70698024Y90375543D01*
X70844342Y90229225D01*
X70844345Y90229223D01*
X71016402Y90114259D01*
X71207580Y90035070D01*
X71410530Y89994701D01*
X71410534Y89994700D01*
X71410535Y89994700D01*
X71617466Y89994700D01*
X71617467Y89994701D01*
X71820420Y90035070D01*
X72011598Y90114259D01*
X72183655Y90229223D01*
X72329977Y90375545D01*
X72444941Y90547602D01*
X72524130Y90738780D01*
X72564500Y90941735D01*
X72564500Y91148665D01*
X72524130Y91351620D01*
X72444941Y91542798D01*
X72329977Y91714855D01*
X72329975Y91714858D01*
X72183657Y91861176D01*
X72029556Y91964142D01*
X72011598Y91976141D01*
X71820420Y92055330D01*
X71820412Y92055332D01*
X71617469Y92095700D01*
X71617465Y92095700D01*
X71410535Y92095700D01*
X71410530Y92095700D01*
X71207587Y92055332D01*
X71207579Y92055330D01*
X71016403Y91976142D01*
X70844342Y91861176D01*
X70698024Y91714858D01*
X70583058Y91542797D01*
X70503870Y91351621D01*
X70503868Y91351613D01*
X70463500Y91148670D01*
X65039500Y91148670D01*
X65039500Y92406096D01*
X65059185Y92473135D01*
X65075819Y92493777D01*
X65825423Y93243381D01*
X65886746Y93276866D01*
X65913104Y93279700D01*
X70420635Y93279700D01*
X70487674Y93260015D01*
X70533429Y93207211D01*
X70535196Y93203153D01*
X70583058Y93087604D01*
X70698024Y92915543D01*
X70844342Y92769225D01*
X70844345Y92769223D01*
X71016402Y92654259D01*
X71207580Y92575070D01*
X71410530Y92534701D01*
X71410534Y92534700D01*
X71410535Y92534700D01*
X71617466Y92534700D01*
X71617467Y92534701D01*
X71820420Y92575070D01*
X72011598Y92654259D01*
X72183655Y92769223D01*
X72329977Y92915545D01*
X72444941Y93087602D01*
X72524130Y93278780D01*
X72564500Y93481735D01*
X72564500Y93688665D01*
X72524130Y93891620D01*
X72444941Y94082798D01*
X72329977Y94254855D01*
X72329975Y94254858D01*
X72183657Y94401176D01*
X72029556Y94504142D01*
X72011598Y94516141D01*
X71820420Y94595330D01*
X71820412Y94595332D01*
X71617469Y94635700D01*
X71617465Y94635700D01*
X71410535Y94635700D01*
X71410530Y94635700D01*
X71207587Y94595332D01*
X71207579Y94595330D01*
X71016403Y94516142D01*
X70844342Y94401176D01*
X70698024Y94254858D01*
X70583058Y94082797D01*
X70535196Y93967247D01*
X70491355Y93912844D01*
X70425061Y93890779D01*
X70420635Y93890700D01*
X65694980Y93890700D01*
X65617277Y93869880D01*
X65617275Y93869879D01*
X65547625Y93829665D01*
X65547616Y93829659D01*
X64489541Y92771584D01*
X64489535Y92771575D01*
X64449321Y92701925D01*
X64449320Y92701923D01*
X64428500Y92624220D01*
X64428500Y19686904D01*
X64408815Y19619865D01*
X64392181Y19599223D01*
X64320541Y19527584D01*
X64320535Y19527575D01*
X64280321Y19457925D01*
X64280320Y19457923D01*
X64259500Y19380220D01*
X64259500Y18953321D01*
X64239815Y18886282D01*
X64223181Y18865640D01*
X64184506Y18826966D01*
X64184504Y18826963D01*
X64121905Y18718537D01*
X64110105Y18674500D01*
X64089500Y18597601D01*
X63260500Y18597601D01*
X63260500Y22890878D01*
X63239340Y22969848D01*
X63222062Y22999774D01*
X63222062Y22999775D01*
X63222060Y22999777D01*
X63198461Y23040653D01*
X63198458Y23040657D01*
X62090653Y24148461D01*
X62090648Y24148465D01*
X62019851Y24189339D01*
X62019850Y24189340D01*
X62019849Y24189340D01*
X61940879Y24210500D01*
X61940878Y24210500D01*
X61940877Y24210500D01*
X58669284Y24210500D01*
X58639843Y24219145D01*
X58609857Y24225668D01*
X58604841Y24229423D01*
X58602245Y24230185D01*
X58581608Y24246815D01*
X58442816Y24385607D01*
X58409333Y24446928D01*
X58406499Y24473286D01*
X58406499Y24520910D01*
X58395721Y24561133D01*
X58374094Y24641846D01*
X58311494Y24750274D01*
X58222963Y24838805D01*
X58114535Y24901405D01*
X58114536Y24901405D01*
X58050949Y24918443D01*
X57993600Y24933810D01*
X57868398Y24933810D01*
X57811049Y24918443D01*
X57747462Y24901405D01*
X57639036Y24838806D01*
X57639033Y24838804D01*
X57550505Y24750276D01*
X57550503Y24750273D01*
X57487904Y24641847D01*
X57474549Y24592007D01*
X57455499Y24520911D01*
X56957708Y24520911D01*
X56971595Y24544964D01*
X57004000Y24665899D01*
X57004000Y24791101D01*
X56971595Y24912036D01*
X56908995Y25020464D01*
X56820464Y25108995D01*
X56820463Y25108996D01*
X56812936Y25113341D01*
X56712036Y25171595D01*
X56712037Y25171595D01*
X56661639Y25185099D01*
X56591101Y25204000D01*
X56465899Y25204000D01*
X56395361Y25185099D01*
X56344963Y25171595D01*
X56236537Y25108996D01*
X56236534Y25108994D01*
X56148006Y25020466D01*
X56148004Y25020463D01*
X56085405Y24912037D01*
X56075239Y24874096D01*
X56053000Y24791101D01*
X50715500Y24791101D01*
X50715500Y25212601D01*
X62024500Y25212601D01*
X62024500Y25087399D01*
X62056905Y24966464D01*
X62119505Y24858036D01*
X62208036Y24769505D01*
X62316464Y24706905D01*
X62437399Y24674500D01*
X62437401Y24674500D01*
X62562599Y24674500D01*
X62562601Y24674500D01*
X62683536Y24706905D01*
X62791964Y24769505D01*
X62880495Y24858036D01*
X62943095Y24966464D01*
X62975500Y25087399D01*
X62975500Y25212601D01*
X62943095Y25333536D01*
X62880495Y25441964D01*
X62791964Y25530495D01*
X62683536Y25593095D01*
X62683537Y25593095D01*
X62643224Y25603897D01*
X62562601Y25625500D01*
X62437399Y25625500D01*
X62356775Y25603897D01*
X62316463Y25593095D01*
X62208037Y25530496D01*
X62208034Y25530494D01*
X62119506Y25441966D01*
X62119504Y25441963D01*
X62056905Y25333537D01*
X62056905Y25333536D01*
X62024500Y25212601D01*
X50715500Y25212601D01*
X50715500Y31626538D01*
X56211122Y31626538D01*
X56211122Y31501336D01*
X56243527Y31380401D01*
X56306127Y31271973D01*
X56394658Y31183442D01*
X56503086Y31120842D01*
X56624021Y31088437D01*
X56624023Y31088437D01*
X56749221Y31088437D01*
X56749223Y31088437D01*
X56870158Y31120842D01*
X56978586Y31183442D01*
X57048664Y31253521D01*
X57109983Y31287003D01*
X57179675Y31282019D01*
X57224023Y31253518D01*
X57258036Y31219505D01*
X57366464Y31156905D01*
X57487399Y31124500D01*
X57487401Y31124500D01*
X57612599Y31124500D01*
X57612601Y31124500D01*
X57733536Y31156905D01*
X57841964Y31219505D01*
X57930495Y31308036D01*
X57993095Y31416464D01*
X58025500Y31537399D01*
X58025500Y31662601D01*
X57993095Y31783536D01*
X57930495Y31891964D01*
X57896819Y31925640D01*
X57863334Y31986963D01*
X57860500Y32013321D01*
X57860500Y34399024D01*
X57880185Y34466063D01*
X57896819Y34486705D01*
X58098462Y34688348D01*
X58139340Y34759151D01*
X58160500Y34838121D01*
X58160500Y34919879D01*
X58160500Y43642979D01*
X58180185Y43710018D01*
X58196819Y43730660D01*
X58230495Y43764336D01*
X58293095Y43872764D01*
X58325500Y43993699D01*
X58325500Y44118901D01*
X58293095Y44239836D01*
X58230495Y44348264D01*
X58141964Y44436795D01*
X58033536Y44499395D01*
X58033537Y44499395D01*
X57993224Y44510197D01*
X57912601Y44531800D01*
X57787399Y44531800D01*
X57706775Y44510197D01*
X57666463Y44499395D01*
X57558037Y44436796D01*
X57558034Y44436794D01*
X57469506Y44348266D01*
X57469504Y44348263D01*
X57406905Y44239837D01*
X57406905Y44239836D01*
X57374500Y44118901D01*
X57374500Y43993699D01*
X57406905Y43872764D01*
X57469504Y43764338D01*
X57469506Y43764335D01*
X57503181Y43730660D01*
X57536666Y43669337D01*
X57539500Y43642979D01*
X57539500Y38306128D01*
X57519815Y38239089D01*
X57467011Y38193334D01*
X57397853Y38183390D01*
X57334297Y38212415D01*
X57308112Y38244129D01*
X57280495Y38291964D01*
X57191964Y38380495D01*
X57083536Y38443095D01*
X57083537Y38443095D01*
X57043224Y38453897D01*
X56962601Y38475500D01*
X56837399Y38475500D01*
X56756775Y38453897D01*
X56716463Y38443095D01*
X56608037Y38380496D01*
X56608034Y38380494D01*
X56519506Y38291966D01*
X56519504Y38291963D01*
X56456905Y38183537D01*
X56456905Y38183536D01*
X56424500Y38062601D01*
X56424500Y37937399D01*
X56432671Y37906906D01*
X56456905Y37816464D01*
X56519504Y37708038D01*
X56519506Y37708035D01*
X56603181Y37624360D01*
X56636666Y37563037D01*
X56639500Y37536679D01*
X56639500Y35329976D01*
X56619815Y35262937D01*
X56603181Y35242295D01*
X56438161Y35077276D01*
X56438157Y35077271D01*
X56397281Y35006472D01*
X56397282Y35006472D01*
X56397282Y35006471D01*
X56376122Y34927500D01*
X56376122Y31977258D01*
X56356437Y31910219D01*
X56339803Y31889577D01*
X56306128Y31855903D01*
X56306126Y31855900D01*
X56243527Y31747474D01*
X56227324Y31687006D01*
X56211122Y31626538D01*
X50715500Y31626538D01*
X50715500Y42460319D01*
X50735185Y42527358D01*
X50751819Y42548000D01*
X51260430Y43056611D01*
X51810462Y43606643D01*
X51851998Y43678586D01*
X51856540Y43695541D01*
X51856541Y43695541D01*
X51856541Y43695546D01*
X51873499Y43758829D01*
X51873499Y85333537D01*
X51856541Y85396823D01*
X51851998Y85413780D01*
X51810462Y85485723D01*
X49993722Y87302463D01*
X49921779Y87343999D01*
X49921777Y87344000D01*
X49904818Y87348544D01*
X49904818Y87348545D01*
X49841537Y87365500D01*
X49841536Y87365500D01*
X45205247Y87365500D01*
X45138208Y87385185D01*
X45117566Y87401819D01*
X44573289Y87946096D01*
X44539804Y88007419D01*
X44544788Y88077111D01*
X44546409Y88081230D01*
X44564418Y88124707D01*
X44590130Y88186780D01*
X44630500Y88389735D01*
X44630500Y88567801D01*
X49974500Y88567801D01*
X49974500Y88442599D01*
X50006905Y88321664D01*
X50069505Y88213236D01*
X50158036Y88124705D01*
X50266464Y88062105D01*
X50387399Y88029700D01*
X50387401Y88029700D01*
X50512599Y88029700D01*
X50512601Y88029700D01*
X50633536Y88062105D01*
X50741964Y88124705D01*
X50830495Y88213236D01*
X50893095Y88321664D01*
X50925500Y88442599D01*
X50925500Y88567801D01*
X50893095Y88688736D01*
X50830495Y88797164D01*
X50741964Y88885695D01*
X50633536Y88948295D01*
X50633537Y88948295D01*
X50593224Y88959097D01*
X50512601Y88980700D01*
X50387399Y88980700D01*
X50306775Y88959097D01*
X50266463Y88948295D01*
X50158037Y88885696D01*
X50158034Y88885694D01*
X50069506Y88797166D01*
X50069504Y88797163D01*
X50006905Y88688737D01*
X50006905Y88688736D01*
X49974500Y88567801D01*
X44630500Y88567801D01*
X44630500Y88596665D01*
X44590130Y88799620D01*
X44510941Y88990798D01*
X44395977Y89162855D01*
X44395975Y89162858D01*
X44249657Y89309176D01*
X44163626Y89366659D01*
X44077598Y89424141D01*
X44048625Y89436142D01*
X43886420Y89503330D01*
X43886412Y89503332D01*
X43683469Y89543700D01*
X43683465Y89543700D01*
X43476535Y89543700D01*
X43476530Y89543700D01*
X43273587Y89503332D01*
X43273579Y89503330D01*
X43082403Y89424142D01*
X42910342Y89309176D01*
X42764024Y89162858D01*
X42649058Y88990797D01*
X42569870Y88799621D01*
X42569868Y88799613D01*
X42529500Y88596670D01*
X42529500Y88389731D01*
X42569868Y88186788D01*
X42569870Y88186780D01*
X42649058Y87995604D01*
X42764024Y87823543D01*
X42910342Y87677225D01*
X42910345Y87677223D01*
X43082402Y87562259D01*
X43273580Y87483070D01*
X43416202Y87454701D01*
X43476530Y87442701D01*
X43476534Y87442700D01*
X43476535Y87442700D01*
X43683466Y87442700D01*
X43683467Y87442701D01*
X43886420Y87483070D01*
X43991970Y87526792D01*
X44061439Y87534260D01*
X44123918Y87502985D01*
X44127104Y87499911D01*
X44829478Y86797537D01*
X44901421Y86756001D01*
X44918372Y86751460D01*
X44918375Y86751458D01*
X44918376Y86751458D01*
X44945124Y86744291D01*
X44981664Y86734500D01*
X49617953Y86734500D01*
X49684992Y86714815D01*
X49705634Y86698181D01*
X49928434Y86475381D01*
X49961919Y86414058D01*
X49956935Y86344366D01*
X49915063Y86288433D01*
X49849599Y86264016D01*
X49840753Y86263700D01*
X44671294Y86263700D01*
X44604255Y86283385D01*
X44558500Y86336189D01*
X44556733Y86340247D01*
X44510941Y86450797D01*
X44510941Y86450798D01*
X44395977Y86622855D01*
X44395975Y86622858D01*
X44249657Y86769176D01*
X44163626Y86826659D01*
X44077598Y86884141D01*
X44048625Y86896142D01*
X43886420Y86963330D01*
X43886412Y86963332D01*
X43683469Y87003700D01*
X43683465Y87003700D01*
X43476535Y87003700D01*
X43476530Y87003700D01*
X43273587Y86963332D01*
X43273579Y86963330D01*
X43082403Y86884142D01*
X42910342Y86769176D01*
X42764024Y86622858D01*
X42649058Y86450797D01*
X42569870Y86259621D01*
X42569868Y86259613D01*
X42529500Y86056670D01*
X42529500Y85849731D01*
X42569868Y85646788D01*
X42569870Y85646780D01*
X42644087Y85467604D01*
X42649059Y85455602D01*
X42706541Y85369574D01*
X42764024Y85283543D01*
X42910342Y85137225D01*
X42910345Y85137223D01*
X43082402Y85022259D01*
X43273580Y84943070D01*
X43416202Y84914701D01*
X43476530Y84902701D01*
X43476534Y84902700D01*
X43476535Y84902700D01*
X43683466Y84902700D01*
X43683467Y84902701D01*
X43886420Y84943070D01*
X44077598Y85022259D01*
X44249655Y85137223D01*
X44395977Y85283545D01*
X44510941Y85455602D01*
X44556733Y85566154D01*
X44600574Y85620556D01*
X44666868Y85642621D01*
X44671294Y85642700D01*
X49816824Y85642700D01*
X49883863Y85623015D01*
X49904505Y85606381D01*
X50770180Y84740707D01*
X50803665Y84679384D01*
X50806499Y84653026D01*
X50806499Y83581977D01*
X50786814Y83514938D01*
X50734010Y83469183D01*
X50664852Y83459239D01*
X50601296Y83488264D01*
X50594818Y83494296D01*
X50427453Y83661661D01*
X50427448Y83661665D01*
X50356651Y83702539D01*
X50356650Y83702540D01*
X50356649Y83702540D01*
X50277679Y83723700D01*
X50277678Y83723700D01*
X50277677Y83723700D01*
X44671294Y83723700D01*
X44604255Y83743385D01*
X44558500Y83796189D01*
X44556733Y83800247D01*
X44510941Y83910797D01*
X44510941Y83910798D01*
X44395977Y84082855D01*
X44395975Y84082858D01*
X44249657Y84229176D01*
X44163626Y84286659D01*
X44077598Y84344141D01*
X44048625Y84356142D01*
X43886420Y84423330D01*
X43886412Y84423332D01*
X43683469Y84463700D01*
X43683465Y84463700D01*
X43476535Y84463700D01*
X43476530Y84463700D01*
X43273587Y84423332D01*
X43273579Y84423330D01*
X43082403Y84344142D01*
X42910342Y84229176D01*
X42764024Y84082858D01*
X42649058Y83910797D01*
X42569870Y83719621D01*
X42569868Y83719613D01*
X42529500Y83516670D01*
X42529500Y83309731D01*
X42569868Y83106788D01*
X42569870Y83106780D01*
X42649058Y82915604D01*
X42764024Y82743543D01*
X42910342Y82597225D01*
X42910345Y82597223D01*
X43082402Y82482259D01*
X43273580Y82403070D01*
X43416202Y82374701D01*
X43476530Y82362701D01*
X43476534Y82362700D01*
X43476535Y82362700D01*
X43683466Y82362700D01*
X43683467Y82362701D01*
X43886420Y82403070D01*
X44077598Y82482259D01*
X44249655Y82597223D01*
X44395977Y82743545D01*
X44510941Y82915602D01*
X44556733Y83026154D01*
X44600574Y83080556D01*
X44666868Y83102621D01*
X44671294Y83102700D01*
X50056824Y83102700D01*
X50086264Y83094056D01*
X50116251Y83087532D01*
X50121266Y83083778D01*
X50123863Y83083015D01*
X50144505Y83066381D01*
X50309181Y82901705D01*
X50342666Y82840382D01*
X50345500Y82814024D01*
X50345500Y70000047D01*
X50325815Y69933008D01*
X50273011Y69887253D01*
X50203853Y69877309D01*
X50140297Y69906334D01*
X50133819Y69912366D01*
X49080523Y70965662D01*
X49080522Y70965663D01*
X49008579Y71007199D01*
X49008577Y71007200D01*
X48991618Y71011744D01*
X48991618Y71011745D01*
X48928337Y71028700D01*
X48928336Y71028700D01*
X44669223Y71028700D01*
X44602184Y71048385D01*
X44556429Y71101189D01*
X44554662Y71105247D01*
X44510942Y71210797D01*
X44395975Y71382858D01*
X44249657Y71529176D01*
X44163626Y71586659D01*
X44077598Y71644141D01*
X44048625Y71656142D01*
X43886420Y71723330D01*
X43886412Y71723332D01*
X43683469Y71763700D01*
X43683465Y71763700D01*
X43476535Y71763700D01*
X43476530Y71763700D01*
X43273587Y71723332D01*
X43273579Y71723330D01*
X43082403Y71644142D01*
X42910342Y71529176D01*
X42764024Y71382858D01*
X42649058Y71210797D01*
X42569870Y71019621D01*
X42569868Y71019613D01*
X42529500Y70816670D01*
X42529500Y70609731D01*
X42569868Y70406788D01*
X42569870Y70406780D01*
X42649058Y70215604D01*
X42764024Y70043543D01*
X42910342Y69897225D01*
X43082405Y69782257D01*
X43185043Y69739744D01*
X43247108Y69714036D01*
X43301511Y69670195D01*
X43323576Y69603901D01*
X43306297Y69536202D01*
X43255160Y69488591D01*
X43237974Y69481544D01*
X43061781Y69424295D01*
X42872439Y69327820D01*
X42818282Y69288473D01*
X42818282Y69288472D01*
X43450591Y68656163D01*
X43387007Y68639125D01*
X43272993Y68573299D01*
X43179901Y68480207D01*
X43114075Y68366193D01*
X43097037Y68302609D01*
X42464728Y68934918D01*
X42464727Y68934918D01*
X42425380Y68880761D01*
X42328904Y68691418D01*
X42263242Y68489331D01*
X42263242Y68489328D01*
X42230000Y68279447D01*
X1160430Y68279447D01*
X1160419Y68284015D01*
X1147997Y73356670D01*
X42529500Y73356670D01*
X42529500Y73149731D01*
X42569868Y72946788D01*
X42569870Y72946780D01*
X42649058Y72755604D01*
X42764024Y72583543D01*
X42910342Y72437225D01*
X42910345Y72437223D01*
X43082402Y72322259D01*
X43273580Y72243070D01*
X43416202Y72214701D01*
X43476530Y72202701D01*
X43476534Y72202700D01*
X43476535Y72202700D01*
X43683466Y72202700D01*
X43683467Y72202701D01*
X43886420Y72243070D01*
X44077598Y72322259D01*
X44249655Y72437223D01*
X44395977Y72583545D01*
X44510941Y72755602D01*
X44590130Y72946780D01*
X44630500Y73149735D01*
X44630500Y73356665D01*
X44590130Y73559620D01*
X44510941Y73750798D01*
X44395977Y73922855D01*
X44395975Y73922858D01*
X44249657Y74069176D01*
X44163626Y74126659D01*
X44077598Y74184141D01*
X44048625Y74196142D01*
X43886420Y74263330D01*
X43886412Y74263332D01*
X43683469Y74303700D01*
X43683465Y74303700D01*
X43476535Y74303700D01*
X43476530Y74303700D01*
X43273587Y74263332D01*
X43273579Y74263330D01*
X43082403Y74184142D01*
X42910342Y74069176D01*
X42764024Y73922858D01*
X42649058Y73750797D01*
X42569870Y73559621D01*
X42569868Y73559613D01*
X42529500Y73356670D01*
X1147997Y73356670D01*
X1147983Y73362453D01*
X1141777Y75896670D01*
X42529500Y75896670D01*
X42529500Y75689731D01*
X42569868Y75486788D01*
X42569870Y75486780D01*
X42649058Y75295604D01*
X42764024Y75123543D01*
X42910342Y74977225D01*
X42910345Y74977223D01*
X43082402Y74862259D01*
X43273580Y74783070D01*
X43416202Y74754701D01*
X43476530Y74742701D01*
X43476534Y74742700D01*
X43476535Y74742700D01*
X43683466Y74742700D01*
X43683467Y74742701D01*
X43886420Y74783070D01*
X44077598Y74862259D01*
X44249655Y74977223D01*
X44395977Y75123545D01*
X44510941Y75295602D01*
X44590130Y75486780D01*
X44630500Y75689735D01*
X44630500Y75896665D01*
X44590130Y76099620D01*
X44510941Y76290798D01*
X44395977Y76462855D01*
X44395975Y76462858D01*
X44249657Y76609176D01*
X44163626Y76666659D01*
X44077598Y76724141D01*
X44048625Y76736142D01*
X43886420Y76803330D01*
X43886412Y76803332D01*
X43683469Y76843700D01*
X43683465Y76843700D01*
X43476535Y76843700D01*
X43476530Y76843700D01*
X43273587Y76803332D01*
X43273579Y76803330D01*
X43082403Y76724142D01*
X42910342Y76609176D01*
X42764024Y76462858D01*
X42649058Y76290797D01*
X42569870Y76099621D01*
X42569868Y76099613D01*
X42529500Y75896670D01*
X1141777Y75896670D01*
X1135557Y78436670D01*
X42529500Y78436670D01*
X42529500Y78229731D01*
X42569868Y78026788D01*
X42569870Y78026780D01*
X42649058Y77835604D01*
X42764024Y77663543D01*
X42910342Y77517225D01*
X42910345Y77517223D01*
X43082402Y77402259D01*
X43273580Y77323070D01*
X43416202Y77294701D01*
X43476530Y77282701D01*
X43476534Y77282700D01*
X43476535Y77282700D01*
X43683466Y77282700D01*
X43683467Y77282701D01*
X43886420Y77323070D01*
X44077598Y77402259D01*
X44249655Y77517223D01*
X44395977Y77663545D01*
X44510941Y77835602D01*
X44590130Y78026780D01*
X44630500Y78229735D01*
X44630500Y78436665D01*
X44590130Y78639620D01*
X44510941Y78830798D01*
X44395977Y79002855D01*
X44395975Y79002858D01*
X44249657Y79149176D01*
X44163626Y79206659D01*
X44077598Y79264141D01*
X44048625Y79276142D01*
X43886420Y79343330D01*
X43886412Y79343332D01*
X43683469Y79383700D01*
X43683465Y79383700D01*
X43476535Y79383700D01*
X43476530Y79383700D01*
X43273587Y79343332D01*
X43273579Y79343330D01*
X43082403Y79264142D01*
X42910342Y79149176D01*
X42764024Y79002858D01*
X42649058Y78830797D01*
X42569870Y78639621D01*
X42569868Y78639613D01*
X42529500Y78436670D01*
X1135557Y78436670D01*
X1129337Y80976670D01*
X42529500Y80976670D01*
X42529500Y80769731D01*
X42569868Y80566788D01*
X42569870Y80566780D01*
X42649058Y80375604D01*
X42764024Y80203543D01*
X42910342Y80057225D01*
X42910345Y80057223D01*
X43082402Y79942259D01*
X43273580Y79863070D01*
X43416202Y79834701D01*
X43476530Y79822701D01*
X43476534Y79822700D01*
X43476535Y79822700D01*
X43683466Y79822700D01*
X43683467Y79822701D01*
X43886420Y79863070D01*
X44077598Y79942259D01*
X44249655Y80057223D01*
X44395977Y80203545D01*
X44510941Y80375602D01*
X44590130Y80566780D01*
X44630500Y80769735D01*
X44630500Y80976665D01*
X44590130Y81179620D01*
X44510941Y81370798D01*
X44395977Y81542855D01*
X44395975Y81542858D01*
X44249657Y81689176D01*
X44163626Y81746659D01*
X44077598Y81804141D01*
X44048625Y81816142D01*
X43886420Y81883330D01*
X43886412Y81883332D01*
X43683469Y81923700D01*
X43683465Y81923700D01*
X43476535Y81923700D01*
X43476530Y81923700D01*
X43273587Y81883332D01*
X43273579Y81883330D01*
X43082403Y81804142D01*
X42910342Y81689176D01*
X42764024Y81542858D01*
X42649058Y81370797D01*
X42569870Y81179621D01*
X42569868Y81179613D01*
X42529500Y80976670D01*
X1129337Y80976670D01*
X1127311Y81804142D01*
X1104457Y91136670D01*
X42529500Y91136670D01*
X42529500Y90929731D01*
X42569868Y90726788D01*
X42569870Y90726780D01*
X42649058Y90535604D01*
X42764024Y90363543D01*
X42910342Y90217225D01*
X42910345Y90217223D01*
X43082402Y90102259D01*
X43273580Y90023070D01*
X43416202Y89994701D01*
X43476530Y89982701D01*
X43476534Y89982700D01*
X43476535Y89982700D01*
X43683466Y89982700D01*
X43683467Y89982701D01*
X43886420Y90023070D01*
X44077598Y90102259D01*
X44249655Y90217223D01*
X44395977Y90363545D01*
X44510941Y90535602D01*
X44590130Y90726780D01*
X44608235Y90817801D01*
X50924500Y90817801D01*
X50924500Y90692599D01*
X50956905Y90571664D01*
X51019505Y90463236D01*
X51108036Y90374705D01*
X51216464Y90312105D01*
X51337399Y90279700D01*
X51337401Y90279700D01*
X51462599Y90279700D01*
X51462601Y90279700D01*
X51583536Y90312105D01*
X51691964Y90374705D01*
X51780495Y90463236D01*
X51843095Y90571664D01*
X51875500Y90692599D01*
X51875500Y90817801D01*
X51843095Y90938736D01*
X51780495Y91047164D01*
X51691964Y91135695D01*
X51583536Y91198295D01*
X51583537Y91198295D01*
X51543224Y91209097D01*
X51462601Y91230700D01*
X51337399Y91230700D01*
X51256775Y91209097D01*
X51216463Y91198295D01*
X51108037Y91135696D01*
X51108034Y91135694D01*
X51019506Y91047166D01*
X51019504Y91047163D01*
X50956905Y90938737D01*
X50956905Y90938736D01*
X50924500Y90817801D01*
X44608235Y90817801D01*
X44630500Y90929735D01*
X44630500Y91136665D01*
X44590130Y91339620D01*
X44510941Y91530798D01*
X44395977Y91702855D01*
X44395975Y91702858D01*
X44249657Y91849176D01*
X44163626Y91906659D01*
X44077598Y91964141D01*
X44048625Y91976142D01*
X43886420Y92043330D01*
X43886412Y92043332D01*
X43683469Y92083700D01*
X43683465Y92083700D01*
X43476535Y92083700D01*
X43476530Y92083700D01*
X43273587Y92043332D01*
X43273579Y92043330D01*
X43082403Y91964142D01*
X42910342Y91849176D01*
X42764024Y91702858D01*
X42649058Y91530797D01*
X42569870Y91339621D01*
X42569868Y91339613D01*
X42529500Y91136670D01*
X1104457Y91136670D01*
X1098237Y93676670D01*
X42529500Y93676670D01*
X42529500Y93469731D01*
X42569868Y93266788D01*
X42569870Y93266780D01*
X42649058Y93075604D01*
X42764024Y92903543D01*
X42910342Y92757225D01*
X42910345Y92757223D01*
X43082402Y92642259D01*
X43273580Y92563070D01*
X43416202Y92534701D01*
X43476530Y92522701D01*
X43476534Y92522700D01*
X43476535Y92522700D01*
X43683466Y92522700D01*
X43683467Y92522701D01*
X43886420Y92563070D01*
X44077598Y92642259D01*
X44249655Y92757223D01*
X44395977Y92903545D01*
X44510941Y93075602D01*
X44590130Y93266780D01*
X44630500Y93469735D01*
X44630500Y93676665D01*
X44590130Y93879620D01*
X44510941Y94070798D01*
X44395977Y94242855D01*
X44395975Y94242858D01*
X44249657Y94389176D01*
X44163626Y94446659D01*
X44077598Y94504141D01*
X44048625Y94516142D01*
X43886420Y94583330D01*
X43886412Y94583332D01*
X43683469Y94623700D01*
X43683465Y94623700D01*
X43476535Y94623700D01*
X43476530Y94623700D01*
X43273587Y94583332D01*
X43273579Y94583330D01*
X43082403Y94504142D01*
X42910342Y94389176D01*
X42764024Y94242858D01*
X42649058Y94070797D01*
X42569870Y93879621D01*
X42569868Y93879613D01*
X42529500Y93676670D01*
X1098237Y93676670D01*
X1092017Y96216670D01*
X42529500Y96216670D01*
X42529500Y96009731D01*
X42569868Y95806788D01*
X42569870Y95806780D01*
X42649058Y95615604D01*
X42764024Y95443543D01*
X42910342Y95297225D01*
X42910345Y95297223D01*
X43082402Y95182259D01*
X43273580Y95103070D01*
X43416202Y95074701D01*
X43476530Y95062701D01*
X43476534Y95062700D01*
X43476535Y95062700D01*
X43683466Y95062700D01*
X43683467Y95062701D01*
X43886420Y95103070D01*
X44077598Y95182259D01*
X44249655Y95297223D01*
X44395977Y95443545D01*
X44510941Y95615602D01*
X44590130Y95806780D01*
X44630500Y96009735D01*
X44630500Y96216665D01*
X44630499Y96216670D01*
X44630499Y96216673D01*
X44628113Y96228670D01*
X70463500Y96228670D01*
X70463500Y96021731D01*
X70503868Y95818788D01*
X70503870Y95818780D01*
X70583058Y95627604D01*
X70698024Y95455543D01*
X70844342Y95309225D01*
X70844345Y95309223D01*
X71016402Y95194259D01*
X71207580Y95115070D01*
X71410530Y95074701D01*
X71410534Y95074700D01*
X71410535Y95074700D01*
X71617466Y95074700D01*
X71617467Y95074701D01*
X71820420Y95115070D01*
X72011598Y95194259D01*
X72183655Y95309223D01*
X72329977Y95455545D01*
X72444941Y95627602D01*
X72524130Y95818780D01*
X72564500Y96021735D01*
X72564500Y96228665D01*
X72524130Y96431620D01*
X72444941Y96622798D01*
X72329977Y96794855D01*
X72329975Y96794858D01*
X72183657Y96941176D01*
X72029556Y97044142D01*
X72011598Y97056141D01*
X71820420Y97135330D01*
X71820412Y97135332D01*
X71617469Y97175700D01*
X71617465Y97175700D01*
X71410535Y97175700D01*
X71410530Y97175700D01*
X71207587Y97135332D01*
X71207579Y97135330D01*
X71016403Y97056142D01*
X70844342Y96941176D01*
X70698024Y96794858D01*
X70583058Y96622797D01*
X70503870Y96431621D01*
X70503868Y96431613D01*
X70463500Y96228670D01*
X44628113Y96228670D01*
X44590131Y96419613D01*
X44590130Y96419620D01*
X44510941Y96610798D01*
X44395977Y96782855D01*
X44395975Y96782858D01*
X44249657Y96929176D01*
X44136015Y97005108D01*
X44077598Y97044141D01*
X44048625Y97056142D01*
X43886420Y97123330D01*
X43886412Y97123332D01*
X43683469Y97163700D01*
X43683465Y97163700D01*
X43476535Y97163700D01*
X43476530Y97163700D01*
X43273587Y97123332D01*
X43273579Y97123330D01*
X43082403Y97044142D01*
X42910342Y96929176D01*
X42764024Y96782858D01*
X42649058Y96610797D01*
X42569870Y96419621D01*
X42569868Y96419613D01*
X42529500Y96216670D01*
X1092017Y96216670D01*
X1085797Y98756670D01*
X42529500Y98756670D01*
X42529500Y98549731D01*
X42569868Y98346788D01*
X42569870Y98346780D01*
X42649058Y98155604D01*
X42764024Y97983543D01*
X42910342Y97837225D01*
X42910345Y97837223D01*
X43082402Y97722259D01*
X43273580Y97643070D01*
X43416202Y97614701D01*
X43476530Y97602701D01*
X43476534Y97602700D01*
X43476535Y97602700D01*
X43683466Y97602700D01*
X43683467Y97602701D01*
X43886420Y97643070D01*
X44077598Y97722259D01*
X44249655Y97837223D01*
X44395977Y97983545D01*
X44510941Y98155602D01*
X44590130Y98346780D01*
X44630500Y98549735D01*
X44630500Y98756665D01*
X44630499Y98756670D01*
X44630499Y98756673D01*
X44628113Y98768670D01*
X70463500Y98768670D01*
X70463500Y98561731D01*
X70503868Y98358788D01*
X70503870Y98358780D01*
X70583058Y98167604D01*
X70698024Y97995543D01*
X70844342Y97849225D01*
X70844345Y97849223D01*
X71016402Y97734259D01*
X71207580Y97655070D01*
X71410530Y97614701D01*
X71410534Y97614700D01*
X71410535Y97614700D01*
X71617466Y97614700D01*
X71617467Y97614701D01*
X71820420Y97655070D01*
X72011598Y97734259D01*
X72183655Y97849223D01*
X72329977Y97995545D01*
X72417380Y98126354D01*
X80813500Y98126354D01*
X80813500Y97937381D01*
X80843059Y97750749D01*
X80901454Y97571031D01*
X80987240Y97402668D01*
X81098310Y97249794D01*
X81231927Y97116177D01*
X81384801Y97005107D01*
X81464347Y96964577D01*
X81553163Y96919322D01*
X81553165Y96919322D01*
X81553168Y96919320D01*
X81649497Y96888021D01*
X81732881Y96860927D01*
X81919514Y96831367D01*
X81919519Y96831367D01*
X82108486Y96831367D01*
X82295118Y96860927D01*
X82474832Y96919320D01*
X82643199Y97005107D01*
X82796073Y97116177D01*
X82929690Y97249794D01*
X83040760Y97402668D01*
X83126547Y97571035D01*
X83184940Y97750749D01*
X83198636Y97837223D01*
X83214500Y97937381D01*
X83214500Y98126354D01*
X83184940Y98312986D01*
X83126545Y98492704D01*
X83040759Y98661067D01*
X82929690Y98813940D01*
X82796073Y98947557D01*
X82643199Y99058627D01*
X82474836Y99144413D01*
X82295118Y99202808D01*
X82108486Y99232367D01*
X82108481Y99232367D01*
X81919519Y99232367D01*
X81919514Y99232367D01*
X81732881Y99202808D01*
X81553163Y99144413D01*
X81384800Y99058627D01*
X81297579Y98995257D01*
X81231927Y98947557D01*
X81231925Y98947555D01*
X81231924Y98947555D01*
X81098312Y98813943D01*
X81098312Y98813942D01*
X81098310Y98813940D01*
X81065416Y98768665D01*
X80987240Y98661067D01*
X80901454Y98492704D01*
X80843059Y98312986D01*
X80813500Y98126354D01*
X72417380Y98126354D01*
X72444941Y98167602D01*
X72524130Y98358780D01*
X72564500Y98561735D01*
X72564500Y98768665D01*
X72524130Y98971620D01*
X72444941Y99162798D01*
X72329977Y99334855D01*
X72329975Y99334858D01*
X72183657Y99481176D01*
X72029556Y99584142D01*
X72011598Y99596141D01*
X71820420Y99675330D01*
X71820412Y99675332D01*
X71617469Y99715700D01*
X71617465Y99715700D01*
X71410535Y99715700D01*
X71410530Y99715700D01*
X71207587Y99675332D01*
X71207579Y99675330D01*
X71016403Y99596142D01*
X70844342Y99481176D01*
X70698024Y99334858D01*
X70583058Y99162797D01*
X70503870Y98971621D01*
X70503868Y98971613D01*
X70463500Y98768670D01*
X44628113Y98768670D01*
X44590131Y98959613D01*
X44590130Y98959620D01*
X44510941Y99150798D01*
X44395977Y99322855D01*
X44395975Y99322858D01*
X44249657Y99469176D01*
X44163626Y99526659D01*
X44077598Y99584141D01*
X44048625Y99596142D01*
X43886420Y99663330D01*
X43886412Y99663332D01*
X43683469Y99703700D01*
X43683465Y99703700D01*
X43476535Y99703700D01*
X43476530Y99703700D01*
X43273587Y99663332D01*
X43273579Y99663330D01*
X43082403Y99584142D01*
X42910342Y99469176D01*
X42764024Y99322858D01*
X42649058Y99150797D01*
X42569870Y98959621D01*
X42569868Y98959613D01*
X42529500Y98756670D01*
X1085797Y98756670D01*
X1080350Y100981134D01*
X39024500Y100981134D01*
X39024500Y100855932D01*
X39056905Y100734997D01*
X39119505Y100626569D01*
X39208036Y100538038D01*
X39316464Y100475438D01*
X39437399Y100443033D01*
X39437401Y100443033D01*
X39562599Y100443033D01*
X39562601Y100443033D01*
X39683536Y100475438D01*
X39791964Y100538038D01*
X39880495Y100626569D01*
X39943095Y100734997D01*
X39975500Y100855932D01*
X39975500Y100981134D01*
X39943095Y101102069D01*
X39880495Y101210497D01*
X39791964Y101299028D01*
X39683536Y101361628D01*
X39683537Y101361628D01*
X39643224Y101372430D01*
X39562601Y101394033D01*
X39437399Y101394033D01*
X39356775Y101372430D01*
X39316463Y101361628D01*
X39208037Y101299029D01*
X39208034Y101299027D01*
X39119506Y101210499D01*
X39119504Y101210496D01*
X39056905Y101102070D01*
X39056905Y101102069D01*
X39024500Y100981134D01*
X1080350Y100981134D01*
X1077701Y102062953D01*
X42529500Y102062953D01*
X42529500Y100323448D01*
X42541131Y100264971D01*
X42541132Y100264970D01*
X42585447Y100198648D01*
X42651769Y100154333D01*
X42651770Y100154332D01*
X42710247Y100142701D01*
X42710250Y100142700D01*
X42710252Y100142700D01*
X44449750Y100142700D01*
X44449751Y100142701D01*
X44464568Y100145648D01*
X44508229Y100154332D01*
X44508229Y100154333D01*
X44508231Y100154333D01*
X44574552Y100198648D01*
X44618867Y100264969D01*
X44618867Y100264971D01*
X44618868Y100264971D01*
X44630499Y100323448D01*
X44630500Y100323450D01*
X44630500Y102062946D01*
X44630498Y102062958D01*
X44628112Y102074953D01*
X70463500Y102074953D01*
X70463500Y100335448D01*
X70475131Y100276971D01*
X70475132Y100276970D01*
X70519447Y100210648D01*
X70585769Y100166333D01*
X70585770Y100166332D01*
X70644247Y100154701D01*
X70644250Y100154700D01*
X70644252Y100154700D01*
X72383750Y100154700D01*
X72383751Y100154701D01*
X72398568Y100157648D01*
X72442229Y100166332D01*
X72442229Y100166333D01*
X72442231Y100166333D01*
X72508552Y100210648D01*
X72552867Y100276969D01*
X72552867Y100276971D01*
X72552868Y100276971D01*
X72564499Y100335448D01*
X72564500Y100335450D01*
X72564500Y102074951D01*
X72564499Y102074953D01*
X72552868Y102133430D01*
X72552867Y102133431D01*
X72508552Y102199753D01*
X72442230Y102244068D01*
X72442229Y102244069D01*
X72383752Y102255700D01*
X72383748Y102255700D01*
X70644252Y102255700D01*
X70644247Y102255700D01*
X70585770Y102244069D01*
X70585769Y102244068D01*
X70519447Y102199753D01*
X70475132Y102133431D01*
X70475131Y102133430D01*
X70463500Y102074953D01*
X44628112Y102074953D01*
X44618868Y102121430D01*
X44618867Y102121431D01*
X44574552Y102187753D01*
X44508230Y102232068D01*
X44508229Y102232069D01*
X44449752Y102243700D01*
X44449748Y102243700D01*
X42710252Y102243700D01*
X42710247Y102243700D01*
X42651770Y102232069D01*
X42651769Y102232068D01*
X42585447Y102187753D01*
X42541132Y102121431D01*
X42541131Y102121430D01*
X42529500Y102062953D01*
X1077701Y102062953D01*
X1053687Y111869183D01*
X1054045Y111878869D01*
X1070840Y112099090D01*
X1073839Y112118319D01*
X1123759Y112328425D01*
X1129732Y112346952D01*
X1211914Y112546645D01*
X1220712Y112564009D01*
X1329903Y112743084D01*
X1333140Y112748394D01*
X1344537Y112764153D01*
X1484442Y112928678D01*
X1498161Y112942456D01*
X1662100Y113083067D01*
X1677798Y113094521D01*
X1861718Y113207741D01*
X1879025Y113216602D01*
X2078386Y113299639D01*
X2096877Y113305687D01*
X2306772Y113356499D01*
X2325986Y113359579D01*
X2546122Y113377310D01*
X2555841Y113377709D01*
X110714429Y113572283D01*
X110724143Y113571917D01*
G37*
%TD.AperFunction*%
%TD*%
D19*
X113550000Y112700000D02*
X113550000Y2000000D01*
X2000000Y0D02*
G75*
G02*
X0Y2000000I0J2000000D01*
G01*
X1992517Y114685786D02*
X111450000Y114700000D01*
X111550000Y0D02*
X2000000Y0D01*
X111450000Y114700000D02*
G75*
G02*
X113549980Y112700000I97600J-2000000D01*
G01*
X0Y2000000D02*
X0Y112685786D01*
X113550000Y2000000D02*
G75*
G02*
X111550000Y0I-2000000J0D01*
G01*
X0Y112685786D02*
G75*
G02*
X2000000Y114685800I2000000J14D01*
G01*
M02*
