%TF.GenerationSoftware,KiCad,Pcbnew,9.0.7*%
%TF.CreationDate,2026-01-21T16:50:36+00:00*%
%TF.ProjectId,OE PyBoard tester,4f452050-7942-46f6-9172-642074657374,rev?*%
%TF.SameCoordinates,PX4feafc0PY9062e40*%
%TF.FileFunction,Soldermask,Bot*%
%TF.FilePolarity,Negative*%
%FSLAX46Y46*%
G04 Gerber Fmt 4.6, Leading zero omitted, Abs format (unit mm)*
G04 Created by KiCad (PCBNEW 9.0.7) date 2026-01-21 16:50:36*
%MOMM*%
%LPD*%
G01*
G04 APERTURE LIST*
%ADD10R,1.700000X1.700000*%
%ADD11C,1.700000*%
%ADD12C,2.000000*%
%ADD13C,0.650000*%
%ADD14O,2.100000X1.000000*%
%ADD15O,1.800000X1.000000*%
%TA.AperFunction,Profile*%
%ADD16C,0.500000*%
%TD*%
G04 APERTURE END LIST*
D10*
%TO.C,J5*%
X71514000Y101205200D03*
D11*
X71514000Y98665200D03*
X71514000Y96125200D03*
X71514000Y93585200D03*
X71514000Y91045200D03*
X71514000Y88505200D03*
X71514000Y85965200D03*
X71514000Y83425200D03*
X71514000Y80885200D03*
X71514000Y78345200D03*
X71514000Y75805200D03*
X71514000Y73265200D03*
X71514000Y70725200D03*
X71514000Y68185200D03*
X71514000Y65645200D03*
X71514000Y63105200D03*
%TD*%
D12*
%TO.C,TP27*%
X32990681Y66290144D03*
%TD*%
D10*
%TO.C,J2*%
X73690000Y27325000D03*
D11*
X73690000Y24785000D03*
X71150000Y27325000D03*
X71150000Y24785000D03*
X68610000Y27325000D03*
X68610000Y24785000D03*
%TD*%
D13*
%TO.C,J1*%
X107270000Y11560000D03*
X107270000Y17340000D03*
D14*
X106770000Y10130000D03*
D15*
X110950000Y10130000D03*
D14*
X106770000Y18770000D03*
D15*
X110950000Y18770000D03*
%TD*%
D12*
%TO.C,TP6*%
X82014000Y98031867D03*
%TD*%
D10*
%TO.C,J4*%
X43580000Y101193200D03*
D11*
X43580000Y98653200D03*
X43580000Y96113200D03*
X43580000Y93573200D03*
X43580000Y91033200D03*
X43580000Y88493200D03*
X43580000Y85953200D03*
X43580000Y83413200D03*
X43580000Y80873200D03*
X43580000Y78333200D03*
X43580000Y75793200D03*
X43580000Y73253200D03*
X43580000Y70713200D03*
X43580000Y68173200D03*
X43580000Y65633200D03*
X43580000Y63093200D03*
%TD*%
D16*
X113550000Y112700000D02*
X113550000Y2000000D01*
X2000000Y0D02*
G75*
G02*
X0Y2000000I0J2000000D01*
G01*
X1992517Y114685786D02*
X111450000Y114700000D01*
X111550000Y0D02*
X2000000Y0D01*
X111450000Y114700000D02*
G75*
G02*
X113549980Y112700000I97600J-2000000D01*
G01*
X0Y2000000D02*
X0Y112685786D01*
X113550000Y2000000D02*
G75*
G02*
X111550000Y0I-2000000J0D01*
G01*
X0Y112685786D02*
G75*
G02*
X2000000Y114685800I2000000J14D01*
G01*
M02*
