%TF.GenerationSoftware,KiCad,Pcbnew,9.0.7*%
%TF.CreationDate,2026-01-21T16:50:28+00:00*%
%TF.ProjectId,OE PyBoard tester,4f452050-7942-46f6-9172-642074657374,rev?*%
%TF.SameCoordinates,PX4feafc0PY9062e40*%
%TF.FileFunction,Drillmap*%
%TF.FilePolarity,Positive*%
%FSLAX45Y45*%
G04 Gerber Fmt 4.5, Leading zero omitted, Abs format (unit mm)*
G04 Created by KiCad (PCBNEW 9.0.7) date 2026-01-21 16:50:28*
%MOMM*%
%LPD*%
G01*
G04 APERTURE LIST*
%ADD10C,0.500000*%
%ADD11C,0.200000*%
%ADD12C,0.100000*%
G04 APERTURE END LIST*
D10*
X11355000Y11270000D02*
X11355000Y200000D01*
X200000Y0D02*
G75*
G02*
X0Y200000I0J200000D01*
G01*
X199252Y11468579D02*
X11145000Y11470000D01*
X11155000Y0D02*
X200000Y0D01*
X11145000Y11470000D02*
G75*
G02*
X11354998Y11270000I9760J-200000D01*
G01*
X0Y200000D02*
X0Y11268579D01*
X11355000Y200000D02*
G75*
G02*
X11155000Y0I-200000J0D01*
G01*
X0Y11268579D02*
G75*
G02*
X200000Y11468580I200000J1D01*
G01*
D11*
D12*
X10694500Y1766500D02*
X10759500Y1701500D01*
X10759500Y1766500D02*
X10694500Y1701500D01*
X10694500Y1188500D02*
X10759500Y1123500D01*
X10759500Y1188500D02*
X10694500Y1123500D01*
D11*
X235777Y-336484D02*
X235777Y-136484D01*
X235777Y-136484D02*
X283396Y-136484D01*
X283396Y-136484D02*
X311967Y-146008D01*
X311967Y-146008D02*
X331015Y-165055D01*
X331015Y-165055D02*
X340539Y-184103D01*
X340539Y-184103D02*
X350062Y-222198D01*
X350062Y-222198D02*
X350062Y-250769D01*
X350062Y-250769D02*
X340539Y-288865D01*
X340539Y-288865D02*
X331015Y-307912D01*
X331015Y-307912D02*
X311967Y-326960D01*
X311967Y-326960D02*
X283396Y-336484D01*
X283396Y-336484D02*
X235777Y-336484D01*
X435777Y-336484D02*
X435777Y-203150D01*
X435777Y-241246D02*
X445301Y-222198D01*
X445301Y-222198D02*
X454824Y-212674D01*
X454824Y-212674D02*
X473872Y-203150D01*
X473872Y-203150D02*
X492920Y-203150D01*
X559586Y-336484D02*
X559586Y-203150D01*
X559586Y-136484D02*
X550063Y-146008D01*
X550063Y-146008D02*
X559586Y-155531D01*
X559586Y-155531D02*
X569110Y-146008D01*
X569110Y-146008D02*
X559586Y-136484D01*
X559586Y-136484D02*
X559586Y-155531D01*
X683396Y-336484D02*
X664348Y-326960D01*
X664348Y-326960D02*
X654824Y-307912D01*
X654824Y-307912D02*
X654824Y-136484D01*
X788158Y-336484D02*
X769110Y-326960D01*
X769110Y-326960D02*
X759586Y-307912D01*
X759586Y-307912D02*
X759586Y-136484D01*
X1016729Y-336484D02*
X1016729Y-136484D01*
X1016729Y-136484D02*
X1083396Y-279341D01*
X1083396Y-279341D02*
X1150063Y-136484D01*
X1150063Y-136484D02*
X1150063Y-336484D01*
X1331015Y-336484D02*
X1331015Y-231722D01*
X1331015Y-231722D02*
X1321491Y-212674D01*
X1321491Y-212674D02*
X1302444Y-203150D01*
X1302444Y-203150D02*
X1264348Y-203150D01*
X1264348Y-203150D02*
X1245301Y-212674D01*
X1331015Y-326960D02*
X1311967Y-336484D01*
X1311967Y-336484D02*
X1264348Y-336484D01*
X1264348Y-336484D02*
X1245301Y-326960D01*
X1245301Y-326960D02*
X1235777Y-307912D01*
X1235777Y-307912D02*
X1235777Y-288865D01*
X1235777Y-288865D02*
X1245301Y-269817D01*
X1245301Y-269817D02*
X1264348Y-260293D01*
X1264348Y-260293D02*
X1311967Y-260293D01*
X1311967Y-260293D02*
X1331015Y-250769D01*
X1426253Y-203150D02*
X1426253Y-403150D01*
X1426253Y-212674D02*
X1445301Y-203150D01*
X1445301Y-203150D02*
X1483396Y-203150D01*
X1483396Y-203150D02*
X1502443Y-212674D01*
X1502443Y-212674D02*
X1511967Y-222198D01*
X1511967Y-222198D02*
X1521491Y-241246D01*
X1521491Y-241246D02*
X1521491Y-298389D01*
X1521491Y-298389D02*
X1511967Y-317436D01*
X1511967Y-317436D02*
X1502443Y-326960D01*
X1502443Y-326960D02*
X1483396Y-336484D01*
X1483396Y-336484D02*
X1445301Y-336484D01*
X1445301Y-336484D02*
X1426253Y-326960D01*
X1607205Y-317436D02*
X1616729Y-326960D01*
X1616729Y-326960D02*
X1607205Y-336484D01*
X1607205Y-336484D02*
X1597682Y-326960D01*
X1597682Y-326960D02*
X1607205Y-317436D01*
X1607205Y-317436D02*
X1607205Y-336484D01*
X1607205Y-212674D02*
X1616729Y-222198D01*
X1616729Y-222198D02*
X1607205Y-231722D01*
X1607205Y-231722D02*
X1597682Y-222198D01*
X1597682Y-222198D02*
X1607205Y-212674D01*
X1607205Y-212674D02*
X1607205Y-231722D01*
D12*
X-90000Y-632500D02*
X-25000Y-697500D01*
X-25000Y-632500D02*
X-90000Y-697500D01*
D11*
X273872Y-556484D02*
X292920Y-556484D01*
X292920Y-556484D02*
X311967Y-566008D01*
X311967Y-566008D02*
X321491Y-575531D01*
X321491Y-575531D02*
X331015Y-594579D01*
X331015Y-594579D02*
X340539Y-632674D01*
X340539Y-632674D02*
X340539Y-680293D01*
X340539Y-680293D02*
X331015Y-718388D01*
X331015Y-718388D02*
X321491Y-737436D01*
X321491Y-737436D02*
X311967Y-746960D01*
X311967Y-746960D02*
X292920Y-756484D01*
X292920Y-756484D02*
X273872Y-756484D01*
X273872Y-756484D02*
X254824Y-746960D01*
X254824Y-746960D02*
X245301Y-737436D01*
X245301Y-737436D02*
X235777Y-718388D01*
X235777Y-718388D02*
X226253Y-680293D01*
X226253Y-680293D02*
X226253Y-632674D01*
X226253Y-632674D02*
X235777Y-594579D01*
X235777Y-594579D02*
X245301Y-575531D01*
X245301Y-575531D02*
X254824Y-566008D01*
X254824Y-566008D02*
X273872Y-556484D01*
X426253Y-737436D02*
X435777Y-746960D01*
X435777Y-746960D02*
X426253Y-756484D01*
X426253Y-756484D02*
X416729Y-746960D01*
X416729Y-746960D02*
X426253Y-737436D01*
X426253Y-737436D02*
X426253Y-756484D01*
X607205Y-556484D02*
X569110Y-556484D01*
X569110Y-556484D02*
X550063Y-566008D01*
X550063Y-566008D02*
X540539Y-575531D01*
X540539Y-575531D02*
X521491Y-604103D01*
X521491Y-604103D02*
X511967Y-642198D01*
X511967Y-642198D02*
X511967Y-718388D01*
X511967Y-718388D02*
X521491Y-737436D01*
X521491Y-737436D02*
X531015Y-746960D01*
X531015Y-746960D02*
X550063Y-756484D01*
X550063Y-756484D02*
X588158Y-756484D01*
X588158Y-756484D02*
X607205Y-746960D01*
X607205Y-746960D02*
X616729Y-737436D01*
X616729Y-737436D02*
X626253Y-718388D01*
X626253Y-718388D02*
X626253Y-670770D01*
X626253Y-670770D02*
X616729Y-651722D01*
X616729Y-651722D02*
X607205Y-642198D01*
X607205Y-642198D02*
X588158Y-632674D01*
X588158Y-632674D02*
X550063Y-632674D01*
X550063Y-632674D02*
X531015Y-642198D01*
X531015Y-642198D02*
X521491Y-651722D01*
X521491Y-651722D02*
X511967Y-670770D01*
X807205Y-556484D02*
X711967Y-556484D01*
X711967Y-556484D02*
X702443Y-651722D01*
X702443Y-651722D02*
X711967Y-642198D01*
X711967Y-642198D02*
X731015Y-632674D01*
X731015Y-632674D02*
X778634Y-632674D01*
X778634Y-632674D02*
X797682Y-642198D01*
X797682Y-642198D02*
X807205Y-651722D01*
X807205Y-651722D02*
X816729Y-670770D01*
X816729Y-670770D02*
X816729Y-718388D01*
X816729Y-718388D02*
X807205Y-737436D01*
X807205Y-737436D02*
X797682Y-746960D01*
X797682Y-746960D02*
X778634Y-756484D01*
X778634Y-756484D02*
X731015Y-756484D01*
X731015Y-756484D02*
X711967Y-746960D01*
X711967Y-746960D02*
X702443Y-737436D01*
X940539Y-556484D02*
X959586Y-556484D01*
X959586Y-556484D02*
X978634Y-566008D01*
X978634Y-566008D02*
X988158Y-575531D01*
X988158Y-575531D02*
X997682Y-594579D01*
X997682Y-594579D02*
X1007205Y-632674D01*
X1007205Y-632674D02*
X1007205Y-680293D01*
X1007205Y-680293D02*
X997682Y-718388D01*
X997682Y-718388D02*
X988158Y-737436D01*
X988158Y-737436D02*
X978634Y-746960D01*
X978634Y-746960D02*
X959586Y-756484D01*
X959586Y-756484D02*
X940539Y-756484D01*
X940539Y-756484D02*
X921491Y-746960D01*
X921491Y-746960D02*
X911967Y-737436D01*
X911967Y-737436D02*
X902443Y-718388D01*
X902443Y-718388D02*
X892920Y-680293D01*
X892920Y-680293D02*
X892920Y-632674D01*
X892920Y-632674D02*
X902443Y-594579D01*
X902443Y-594579D02*
X911967Y-575531D01*
X911967Y-575531D02*
X921491Y-566008D01*
X921491Y-566008D02*
X940539Y-556484D01*
X1092920Y-756484D02*
X1092920Y-623150D01*
X1092920Y-642198D02*
X1102444Y-632674D01*
X1102444Y-632674D02*
X1121491Y-623150D01*
X1121491Y-623150D02*
X1150063Y-623150D01*
X1150063Y-623150D02*
X1169110Y-632674D01*
X1169110Y-632674D02*
X1178634Y-651722D01*
X1178634Y-651722D02*
X1178634Y-756484D01*
X1178634Y-651722D02*
X1188158Y-632674D01*
X1188158Y-632674D02*
X1207205Y-623150D01*
X1207205Y-623150D02*
X1235777Y-623150D01*
X1235777Y-623150D02*
X1254825Y-632674D01*
X1254825Y-632674D02*
X1264348Y-651722D01*
X1264348Y-651722D02*
X1264348Y-756484D01*
X1359586Y-756484D02*
X1359586Y-623150D01*
X1359586Y-642198D02*
X1369110Y-632674D01*
X1369110Y-632674D02*
X1388158Y-623150D01*
X1388158Y-623150D02*
X1416729Y-623150D01*
X1416729Y-623150D02*
X1435777Y-632674D01*
X1435777Y-632674D02*
X1445301Y-651722D01*
X1445301Y-651722D02*
X1445301Y-756484D01*
X1445301Y-651722D02*
X1454824Y-632674D01*
X1454824Y-632674D02*
X1473872Y-623150D01*
X1473872Y-623150D02*
X1502443Y-623150D01*
X1502443Y-623150D02*
X1521491Y-632674D01*
X1521491Y-632674D02*
X1531015Y-651722D01*
X1531015Y-651722D02*
X1531015Y-756484D01*
X1921491Y-546960D02*
X1750063Y-804103D01*
X2178634Y-556484D02*
X2197682Y-556484D01*
X2197682Y-556484D02*
X2216729Y-566008D01*
X2216729Y-566008D02*
X2226253Y-575531D01*
X2226253Y-575531D02*
X2235777Y-594579D01*
X2235777Y-594579D02*
X2245301Y-632674D01*
X2245301Y-632674D02*
X2245301Y-680293D01*
X2245301Y-680293D02*
X2235777Y-718388D01*
X2235777Y-718388D02*
X2226253Y-737436D01*
X2226253Y-737436D02*
X2216729Y-746960D01*
X2216729Y-746960D02*
X2197682Y-756484D01*
X2197682Y-756484D02*
X2178634Y-756484D01*
X2178634Y-756484D02*
X2159587Y-746960D01*
X2159587Y-746960D02*
X2150063Y-737436D01*
X2150063Y-737436D02*
X2140539Y-718388D01*
X2140539Y-718388D02*
X2131015Y-680293D01*
X2131015Y-680293D02*
X2131015Y-632674D01*
X2131015Y-632674D02*
X2140539Y-594579D01*
X2140539Y-594579D02*
X2150063Y-575531D01*
X2150063Y-575531D02*
X2159587Y-566008D01*
X2159587Y-566008D02*
X2178634Y-556484D01*
X2331015Y-737436D02*
X2340539Y-746960D01*
X2340539Y-746960D02*
X2331015Y-756484D01*
X2331015Y-756484D02*
X2321491Y-746960D01*
X2321491Y-746960D02*
X2331015Y-737436D01*
X2331015Y-737436D02*
X2331015Y-756484D01*
X2464348Y-556484D02*
X2483396Y-556484D01*
X2483396Y-556484D02*
X2502444Y-566008D01*
X2502444Y-566008D02*
X2511968Y-575531D01*
X2511968Y-575531D02*
X2521491Y-594579D01*
X2521491Y-594579D02*
X2531015Y-632674D01*
X2531015Y-632674D02*
X2531015Y-680293D01*
X2531015Y-680293D02*
X2521491Y-718388D01*
X2521491Y-718388D02*
X2511968Y-737436D01*
X2511968Y-737436D02*
X2502444Y-746960D01*
X2502444Y-746960D02*
X2483396Y-756484D01*
X2483396Y-756484D02*
X2464348Y-756484D01*
X2464348Y-756484D02*
X2445301Y-746960D01*
X2445301Y-746960D02*
X2435777Y-737436D01*
X2435777Y-737436D02*
X2426253Y-718388D01*
X2426253Y-718388D02*
X2416729Y-680293D01*
X2416729Y-680293D02*
X2416729Y-632674D01*
X2416729Y-632674D02*
X2426253Y-594579D01*
X2426253Y-594579D02*
X2435777Y-575531D01*
X2435777Y-575531D02*
X2445301Y-566008D01*
X2445301Y-566008D02*
X2464348Y-556484D01*
X2607206Y-575531D02*
X2616729Y-566008D01*
X2616729Y-566008D02*
X2635777Y-556484D01*
X2635777Y-556484D02*
X2683396Y-556484D01*
X2683396Y-556484D02*
X2702444Y-566008D01*
X2702444Y-566008D02*
X2711968Y-575531D01*
X2711968Y-575531D02*
X2721491Y-594579D01*
X2721491Y-594579D02*
X2721491Y-613627D01*
X2721491Y-613627D02*
X2711968Y-642198D01*
X2711968Y-642198D02*
X2597682Y-756484D01*
X2597682Y-756484D02*
X2721491Y-756484D01*
X2902444Y-556484D02*
X2807206Y-556484D01*
X2807206Y-556484D02*
X2797682Y-651722D01*
X2797682Y-651722D02*
X2807206Y-642198D01*
X2807206Y-642198D02*
X2826253Y-632674D01*
X2826253Y-632674D02*
X2873872Y-632674D01*
X2873872Y-632674D02*
X2892920Y-642198D01*
X2892920Y-642198D02*
X2902444Y-651722D01*
X2902444Y-651722D02*
X2911967Y-670770D01*
X2911967Y-670770D02*
X2911967Y-718388D01*
X2911967Y-718388D02*
X2902444Y-737436D01*
X2902444Y-737436D02*
X2892920Y-746960D01*
X2892920Y-746960D02*
X2873872Y-756484D01*
X2873872Y-756484D02*
X2826253Y-756484D01*
X2826253Y-756484D02*
X2807206Y-746960D01*
X2807206Y-746960D02*
X2797682Y-737436D01*
X3083396Y-556484D02*
X3045301Y-556484D01*
X3045301Y-556484D02*
X3026253Y-566008D01*
X3026253Y-566008D02*
X3016729Y-575531D01*
X3016729Y-575531D02*
X2997682Y-604103D01*
X2997682Y-604103D02*
X2988158Y-642198D01*
X2988158Y-642198D02*
X2988158Y-718388D01*
X2988158Y-718388D02*
X2997682Y-737436D01*
X2997682Y-737436D02*
X3007206Y-746960D01*
X3007206Y-746960D02*
X3026253Y-756484D01*
X3026253Y-756484D02*
X3064348Y-756484D01*
X3064348Y-756484D02*
X3083396Y-746960D01*
X3083396Y-746960D02*
X3092920Y-737436D01*
X3092920Y-737436D02*
X3102444Y-718388D01*
X3102444Y-718388D02*
X3102444Y-670770D01*
X3102444Y-670770D02*
X3092920Y-651722D01*
X3092920Y-651722D02*
X3083396Y-642198D01*
X3083396Y-642198D02*
X3064348Y-632674D01*
X3064348Y-632674D02*
X3026253Y-632674D01*
X3026253Y-632674D02*
X3007206Y-642198D01*
X3007206Y-642198D02*
X2997682Y-651722D01*
X2997682Y-651722D02*
X2988158Y-670770D01*
X3178634Y-556484D02*
X3178634Y-594579D01*
X3254825Y-556484D02*
X3254825Y-594579D01*
X3550063Y-832674D02*
X3540539Y-823150D01*
X3540539Y-823150D02*
X3521491Y-794579D01*
X3521491Y-794579D02*
X3511968Y-775531D01*
X3511968Y-775531D02*
X3502444Y-746960D01*
X3502444Y-746960D02*
X3492920Y-699341D01*
X3492920Y-699341D02*
X3492920Y-661246D01*
X3492920Y-661246D02*
X3502444Y-613627D01*
X3502444Y-613627D02*
X3511968Y-585055D01*
X3511968Y-585055D02*
X3521491Y-566008D01*
X3521491Y-566008D02*
X3540539Y-537436D01*
X3540539Y-537436D02*
X3550063Y-527912D01*
X3616729Y-575531D02*
X3626253Y-566008D01*
X3626253Y-566008D02*
X3645301Y-556484D01*
X3645301Y-556484D02*
X3692920Y-556484D01*
X3692920Y-556484D02*
X3711968Y-566008D01*
X3711968Y-566008D02*
X3721491Y-575531D01*
X3721491Y-575531D02*
X3731015Y-594579D01*
X3731015Y-594579D02*
X3731015Y-613627D01*
X3731015Y-613627D02*
X3721491Y-642198D01*
X3721491Y-642198D02*
X3607206Y-756484D01*
X3607206Y-756484D02*
X3731015Y-756484D01*
X3969110Y-756484D02*
X3969110Y-556484D01*
X4054825Y-756484D02*
X4054825Y-651722D01*
X4054825Y-651722D02*
X4045301Y-632674D01*
X4045301Y-632674D02*
X4026253Y-623150D01*
X4026253Y-623150D02*
X3997682Y-623150D01*
X3997682Y-623150D02*
X3978634Y-632674D01*
X3978634Y-632674D02*
X3969110Y-642198D01*
X4178634Y-756484D02*
X4159587Y-746960D01*
X4159587Y-746960D02*
X4150063Y-737436D01*
X4150063Y-737436D02*
X4140539Y-718388D01*
X4140539Y-718388D02*
X4140539Y-661246D01*
X4140539Y-661246D02*
X4150063Y-642198D01*
X4150063Y-642198D02*
X4159587Y-632674D01*
X4159587Y-632674D02*
X4178634Y-623150D01*
X4178634Y-623150D02*
X4207206Y-623150D01*
X4207206Y-623150D02*
X4226253Y-632674D01*
X4226253Y-632674D02*
X4235777Y-642198D01*
X4235777Y-642198D02*
X4245301Y-661246D01*
X4245301Y-661246D02*
X4245301Y-718388D01*
X4245301Y-718388D02*
X4235777Y-737436D01*
X4235777Y-737436D02*
X4226253Y-746960D01*
X4226253Y-746960D02*
X4207206Y-756484D01*
X4207206Y-756484D02*
X4178634Y-756484D01*
X4359587Y-756484D02*
X4340539Y-746960D01*
X4340539Y-746960D02*
X4331015Y-727912D01*
X4331015Y-727912D02*
X4331015Y-556484D01*
X4511968Y-746960D02*
X4492920Y-756484D01*
X4492920Y-756484D02*
X4454825Y-756484D01*
X4454825Y-756484D02*
X4435777Y-746960D01*
X4435777Y-746960D02*
X4426253Y-727912D01*
X4426253Y-727912D02*
X4426253Y-651722D01*
X4426253Y-651722D02*
X4435777Y-632674D01*
X4435777Y-632674D02*
X4454825Y-623150D01*
X4454825Y-623150D02*
X4492920Y-623150D01*
X4492920Y-623150D02*
X4511968Y-632674D01*
X4511968Y-632674D02*
X4521492Y-651722D01*
X4521492Y-651722D02*
X4521492Y-670770D01*
X4521492Y-670770D02*
X4426253Y-689817D01*
X4597682Y-746960D02*
X4616730Y-756484D01*
X4616730Y-756484D02*
X4654825Y-756484D01*
X4654825Y-756484D02*
X4673873Y-746960D01*
X4673873Y-746960D02*
X4683396Y-727912D01*
X4683396Y-727912D02*
X4683396Y-718388D01*
X4683396Y-718388D02*
X4673873Y-699341D01*
X4673873Y-699341D02*
X4654825Y-689817D01*
X4654825Y-689817D02*
X4626253Y-689817D01*
X4626253Y-689817D02*
X4607206Y-680293D01*
X4607206Y-680293D02*
X4597682Y-661246D01*
X4597682Y-661246D02*
X4597682Y-651722D01*
X4597682Y-651722D02*
X4607206Y-632674D01*
X4607206Y-632674D02*
X4626253Y-623150D01*
X4626253Y-623150D02*
X4654825Y-623150D01*
X4654825Y-623150D02*
X4673873Y-632674D01*
X4750063Y-832674D02*
X4759587Y-823150D01*
X4759587Y-823150D02*
X4778634Y-794579D01*
X4778634Y-794579D02*
X4788158Y-775531D01*
X4788158Y-775531D02*
X4797682Y-746960D01*
X4797682Y-746960D02*
X4807206Y-699341D01*
X4807206Y-699341D02*
X4807206Y-661246D01*
X4807206Y-661246D02*
X4797682Y-613627D01*
X4797682Y-613627D02*
X4788158Y-585055D01*
X4788158Y-585055D02*
X4778634Y-566008D01*
X4778634Y-566008D02*
X4759587Y-537436D01*
X4759587Y-537436D02*
X4750063Y-527912D01*
X5111968Y-832674D02*
X5102444Y-823150D01*
X5102444Y-823150D02*
X5083396Y-794579D01*
X5083396Y-794579D02*
X5073873Y-775531D01*
X5073873Y-775531D02*
X5064349Y-746960D01*
X5064349Y-746960D02*
X5054825Y-699341D01*
X5054825Y-699341D02*
X5054825Y-661246D01*
X5054825Y-661246D02*
X5064349Y-613627D01*
X5064349Y-613627D02*
X5073873Y-585055D01*
X5073873Y-585055D02*
X5083396Y-566008D01*
X5083396Y-566008D02*
X5102444Y-537436D01*
X5102444Y-537436D02*
X5111968Y-527912D01*
X5188158Y-623150D02*
X5188158Y-756484D01*
X5188158Y-642198D02*
X5197682Y-632674D01*
X5197682Y-632674D02*
X5216730Y-623150D01*
X5216730Y-623150D02*
X5245301Y-623150D01*
X5245301Y-623150D02*
X5264349Y-632674D01*
X5264349Y-632674D02*
X5273873Y-651722D01*
X5273873Y-651722D02*
X5273873Y-756484D01*
X5397682Y-756484D02*
X5378634Y-746960D01*
X5378634Y-746960D02*
X5369111Y-737436D01*
X5369111Y-737436D02*
X5359587Y-718388D01*
X5359587Y-718388D02*
X5359587Y-661246D01*
X5359587Y-661246D02*
X5369111Y-642198D01*
X5369111Y-642198D02*
X5378634Y-632674D01*
X5378634Y-632674D02*
X5397682Y-623150D01*
X5397682Y-623150D02*
X5426254Y-623150D01*
X5426254Y-623150D02*
X5445301Y-632674D01*
X5445301Y-632674D02*
X5454825Y-642198D01*
X5454825Y-642198D02*
X5464349Y-661246D01*
X5464349Y-661246D02*
X5464349Y-718388D01*
X5464349Y-718388D02*
X5454825Y-737436D01*
X5454825Y-737436D02*
X5445301Y-746960D01*
X5445301Y-746960D02*
X5426254Y-756484D01*
X5426254Y-756484D02*
X5397682Y-756484D01*
X5521492Y-623150D02*
X5597682Y-623150D01*
X5550063Y-556484D02*
X5550063Y-727912D01*
X5550063Y-727912D02*
X5559587Y-746960D01*
X5559587Y-746960D02*
X5578634Y-756484D01*
X5578634Y-756484D02*
X5597682Y-756484D01*
X5816730Y-623150D02*
X5816730Y-823150D01*
X5816730Y-632674D02*
X5835777Y-623150D01*
X5835777Y-623150D02*
X5873873Y-623150D01*
X5873873Y-623150D02*
X5892920Y-632674D01*
X5892920Y-632674D02*
X5902444Y-642198D01*
X5902444Y-642198D02*
X5911968Y-661246D01*
X5911968Y-661246D02*
X5911968Y-718388D01*
X5911968Y-718388D02*
X5902444Y-737436D01*
X5902444Y-737436D02*
X5892920Y-746960D01*
X5892920Y-746960D02*
X5873873Y-756484D01*
X5873873Y-756484D02*
X5835777Y-756484D01*
X5835777Y-756484D02*
X5816730Y-746960D01*
X6026253Y-756484D02*
X6007206Y-746960D01*
X6007206Y-746960D02*
X5997682Y-727912D01*
X5997682Y-727912D02*
X5997682Y-556484D01*
X6188158Y-756484D02*
X6188158Y-651722D01*
X6188158Y-651722D02*
X6178634Y-632674D01*
X6178634Y-632674D02*
X6159587Y-623150D01*
X6159587Y-623150D02*
X6121492Y-623150D01*
X6121492Y-623150D02*
X6102444Y-632674D01*
X6188158Y-746960D02*
X6169111Y-756484D01*
X6169111Y-756484D02*
X6121492Y-756484D01*
X6121492Y-756484D02*
X6102444Y-746960D01*
X6102444Y-746960D02*
X6092920Y-727912D01*
X6092920Y-727912D02*
X6092920Y-708865D01*
X6092920Y-708865D02*
X6102444Y-689817D01*
X6102444Y-689817D02*
X6121492Y-680293D01*
X6121492Y-680293D02*
X6169111Y-680293D01*
X6169111Y-680293D02*
X6188158Y-670770D01*
X6254825Y-623150D02*
X6331015Y-623150D01*
X6283396Y-556484D02*
X6283396Y-727912D01*
X6283396Y-727912D02*
X6292920Y-746960D01*
X6292920Y-746960D02*
X6311968Y-756484D01*
X6311968Y-756484D02*
X6331015Y-756484D01*
X6473873Y-746960D02*
X6454825Y-756484D01*
X6454825Y-756484D02*
X6416730Y-756484D01*
X6416730Y-756484D02*
X6397682Y-746960D01*
X6397682Y-746960D02*
X6388158Y-727912D01*
X6388158Y-727912D02*
X6388158Y-651722D01*
X6388158Y-651722D02*
X6397682Y-632674D01*
X6397682Y-632674D02*
X6416730Y-623150D01*
X6416730Y-623150D02*
X6454825Y-623150D01*
X6454825Y-623150D02*
X6473873Y-632674D01*
X6473873Y-632674D02*
X6483396Y-651722D01*
X6483396Y-651722D02*
X6483396Y-670770D01*
X6483396Y-670770D02*
X6388158Y-689817D01*
X6654825Y-756484D02*
X6654825Y-556484D01*
X6654825Y-746960D02*
X6635777Y-756484D01*
X6635777Y-756484D02*
X6597682Y-756484D01*
X6597682Y-756484D02*
X6578634Y-746960D01*
X6578634Y-746960D02*
X6569111Y-737436D01*
X6569111Y-737436D02*
X6559587Y-718388D01*
X6559587Y-718388D02*
X6559587Y-661246D01*
X6559587Y-661246D02*
X6569111Y-642198D01*
X6569111Y-642198D02*
X6578634Y-632674D01*
X6578634Y-632674D02*
X6597682Y-623150D01*
X6597682Y-623150D02*
X6635777Y-623150D01*
X6635777Y-623150D02*
X6654825Y-632674D01*
X6731015Y-832674D02*
X6740539Y-823150D01*
X6740539Y-823150D02*
X6759587Y-794579D01*
X6759587Y-794579D02*
X6769111Y-775531D01*
X6769111Y-775531D02*
X6778634Y-746960D01*
X6778634Y-746960D02*
X6788158Y-699341D01*
X6788158Y-699341D02*
X6788158Y-661246D01*
X6788158Y-661246D02*
X6778634Y-613627D01*
X6778634Y-613627D02*
X6769111Y-585055D01*
X6769111Y-585055D02*
X6759587Y-566008D01*
X6759587Y-566008D02*
X6740539Y-537436D01*
X6740539Y-537436D02*
X6731015Y-527912D01*
M02*
