M48
; DRILL file {KiCad 9.0.7} date 2026-01-21T16:50:28+0000
; FORMAT={-:-/ absolute / inch / decimal}
; #@! TF.CreationDate,2026-01-21T16:50:28+00:00
; #@! TF.GenerationSoftware,Kicad,Pcbnew,9.0.7
; #@! TF.FileFunction,Plated,1,4,PTH
FMAT,2
INCH
; #@! TA.AperFunction,Plated,PTH,ViaDrill
T1C0.0087
; #@! TA.AperFunction,Plated,PTH,ComponentDrill
T2C0.0236
; #@! TA.AperFunction,Plated,PTH,ComponentDrill
T3C0.0394
%
G90
G05
T1
X0.0935Y0.0787
X0.1112Y3.4134
X0.114Y4.3991
X0.1191Y1.8386
X0.123Y2.6407
X0.128Y3.8474
X0.1506Y1.0315
X0.4941Y3.1161
X0.497Y0.44
X0.5354Y4.1358
X0.6093Y2.3967
X0.6673Y2.0207
X0.6713Y1.5709
X0.7687Y4.4272
X0.813Y1.0669
X0.8583Y3.6024
X0.8839Y2.6752
X1.0906Y0.6693
X1.1713Y0.1043
X1.185Y4.2185
X1.189Y1.9882
X1.2756Y1.439
X1.4114Y2.2717
X1.4252Y0.9469
X1.4961Y4.437
X1.5157Y1.6024
X1.5236Y1.5098
X1.524Y1.6909
X1.5256Y1.7913
X1.5272Y1.3465
X1.5315Y1.4272
X1.5551Y3.9732
X1.561Y1.3189
X1.5669Y1.9508
X1.5787Y2.4449
X1.5787Y2.2323
X1.5945Y1.5138
X1.6122Y1.6929
X1.6122Y1.4328
X1.6181Y1.2461
X1.6339Y1.874
X1.8031Y3.0453
X1.8091Y3.1378
X1.8268Y3.4567
X1.8346Y1.2776
X1.8346Y0.8051
X1.8366Y1.4311
X1.8366Y0.5945
X1.8386Y1.5363
X1.8406Y1.0472
X1.8524Y1.8031
X1.8661Y3.3268
X1.8701Y0.5039
X1.8898Y1.2756
X1.8917Y1.3307
X1.8937Y0.4724
X1.8957Y1.6969
X1.8976Y1.5096
X1.8976Y1.4331
X1.8983Y1.2421
X1.9016Y1.7746
X1.9213Y0.878
X1.9242Y1.8701
X1.9311Y4.2146
X1.9311Y0.5512
X1.937Y2.3878
X1.938Y0.0778
X1.939Y2.7087
X1.939Y2.1161
X1.9449Y0.8465
X1.9488Y2.8287
X1.9488Y1.8248
X1.9508Y3.2461
X1.9508Y0.7835
X1.9513Y0.626
X1.9606Y1.7402
X1.9665Y3.3327
X1.9744Y3.5315
X1.9862Y3.4845
X1.9862Y0.8425
X2.0069Y0.5846
X2.0098Y0.6772
X2.0138Y1.002
X2.0177Y0.748
X2.0217Y1.2638
X2.0217Y0.3661
X2.0236Y3.573
X2.0295Y0.8346
X2.0433Y0.9114
X2.0492Y0.6407
X2.0709Y3.6024
X2.0748Y3.3307
X2.0748Y3.0689
X2.0768Y2.6713
X2.0827Y0.1781
X2.0846Y1.4407
X2.0866Y3.252
X2.0866Y1.8445
X2.0886Y2.2539
X2.1024Y1.3307
X2.1122Y0.1791
X2.126Y1.749
X2.1378Y0.5472
X2.1476Y0.8484
X2.1476Y0.7736
X2.1476Y0.7008
X2.1516Y0.5768
X2.1673Y0.5335
X2.1841Y0.3652
X2.1929Y1.2717
X2.1949Y0.5039
X2.2008Y1.3878
X2.2185Y0.4724
X2.2205Y1.1063
X2.2205Y0.8484
X2.2205Y0.7736
X2.2205Y0.7008
X2.2255Y0.9736
X2.2318Y1.2427
X2.2402Y1.4961
X2.2421Y1.5374
X2.248Y1.6772
X2.2589Y4.4291
X2.2657Y1.2441
X2.2677Y1.1457
X2.2776Y1.7345
X2.2807Y0.9629
X2.2815Y2.8661
X2.2933Y3.5256
X2.2933Y0.5335
X2.2953Y0.8484
X2.2953Y0.7736
X2.2953Y0.7008
X2.2992Y0.4902
X2.3031Y1.3406
X2.3228Y2.1043
X2.3448Y0.4803
X2.3622Y0.6043
X2.374Y0.5059
X2.376Y0.6437
X2.3976Y0.8287
X2.4134Y1.6909
X2.4134Y0.7539
X2.4173Y1.4528
X2.4291Y0.4862
X2.4409Y0.6667
X2.4606Y0.9902
X2.4724Y1.1181
X2.4862Y2.9783
X2.5005Y1.6885
X2.5025Y1.4503
X2.5059Y0.937
X2.5079Y2.3248
X2.5138Y3.2402
X2.5138Y2.6673
X2.5138Y1.6004
X2.5157Y1.9272
X2.5157Y0.8248
X2.5177Y3.5276
X2.5177Y1.3386
X2.5197Y1.2618
X2.5419Y0.7297
X2.5453Y0.376
X2.565Y0.5906
X2.5728Y2.8839
X2.5748Y1.8957
X2.5768Y3.1496
X2.5787Y1.8228
X2.5906Y1.2776
X2.5906Y0.5565
X2.5945Y1.6949
X2.5945Y1.4587
X2.597Y3.0849
X2.597Y2.6852
X2.6004Y1.3406
X2.6024Y3.3406
X2.6102Y2.626
X2.6201Y1.2441
X2.6319Y0.9469
X2.6398Y4.2028
X2.6398Y1.4626
X2.6488Y1.6192
X2.6561Y2.8841
X2.6594Y0.7559
X2.6831Y2.7244
X2.6909Y0.4823
X2.7092Y2.9845
X2.7441Y3.7283
X2.7953Y1.7992
X2.7972Y1.1614
X2.8253Y1.3322
X2.8327Y0.7598
X2.8465Y0.5738
X2.8465Y0.0846
X2.8878Y1.2638
X2.8942Y1.6964
X2.8942Y1.4622
X2.9094Y3.128
X2.9114Y2.7835
X2.9173Y3.4528
X2.9193Y2.4272
X2.9213Y3.8228
X2.9213Y2.2047
X2.9252Y1.9606
X2.9272Y1.7953
X2.9331Y0.6181
X2.9547Y3.9232
X2.9843Y1.0551
X2.9882Y1.8071
X2.9882Y1.5433
X2.9887Y1.6177
X2.9887Y1.3874
X3.0098Y4.4183
X3.0236Y2.565
X3.0276Y2.9075
X3.0295Y3.6949
X3.0295Y3.3287
X3.0335Y2.0768
X3.0335Y1.7933
X3.0394Y2.3366
X3.0551Y0.1988
X3.1526Y0.5728
X3.1949Y0.3839
X3.2008Y1.811
X3.2028Y1.2638
X3.2126Y1.6791
X3.2146Y1.0079
X3.2165Y1.5295
X3.2185Y1.3976
X3.2559Y0.7461
X3.2638Y1.3465
X3.2657Y1.1988
X3.2677Y0.8071
X3.2717Y1.002
X3.2736Y1.7874
X3.2756Y1.5748
X3.2756Y0.9055
X3.2874Y0.1909
X3.3268Y1.2618
X3.3287Y0.7579
X3.3287Y0.6673
X3.3406Y1.124
X3.3413Y0.928
X3.3425Y1.685
X3.3425Y1.4547
X3.3425Y0.8386
X3.3839Y1.8327
X3.3878Y4.2067
X3.3996Y1.626
X3.4055Y1.3465
X3.4055Y0.2559
X3.4166Y0.1909
X3.4213Y2.2854
X3.4213Y2.0236
X3.4213Y1.2559
X3.4272Y0.998
X3.4272Y0.9665
X3.4311Y0.6772
X3.4852Y2.0994
X3.4902Y3.1752
X3.5079Y1.3012
X3.5079Y0.6791
X3.5079Y0.3937
X3.5157Y1.1752
X3.5492Y1.1043
X3.5551Y2.6634
X3.5728Y0.7795
X3.5874Y0.9626
X3.6083Y3.6496
X3.622Y1.7628
X3.6594Y1.6122
X3.6614Y4.065
X3.6752Y3.1791
X3.689Y0.2382
X3.6921Y0.9626
X3.6988Y2.3425
X3.7402Y4.4222
X3.7736Y1.4508
X3.7741Y2.4937
X3.7849Y2.8559
X3.7954Y2.6205
X3.811Y3.9488
X3.8184Y2.7496
X3.8219Y0.6565
X3.8228Y0.9124
X3.8268Y1.7441
X3.8297Y1.189
X3.8346Y0.3917
X3.835Y0.5547
X3.8415Y0.5217
X3.846Y2.8716
X3.8514Y0.0758
X3.8583Y1.4547
X3.8807Y0.5189
X3.9055Y0.4606
X3.9112Y0.4213
X3.9114Y0.3819
X3.9705Y0.7303
X3.9764Y2.3927
X3.9828Y0.155
X3.9843Y2.0984
X3.9843Y0.5215
X3.9843Y0.1171
X3.9857Y2.5566
X3.9961Y1.188
X3.9976Y1.4918
X3.998Y1.7411
X3.998Y0.8061
X4.0079Y0.7234
X4.0128Y0.4439
X4.0177Y0.6289
X4.0207Y0.5433
X4.0492Y2.9862
X4.0738Y3.3563
X4.0893Y0.8465
X4.0912Y0.2953
X4.0925Y0.5482
X4.0932Y0.2205
X4.0969Y2.3342
X4.0984Y3.9429
X4.0993Y0.7621
X4.0994Y0.4852
X4.0999Y2.9622
X4.0999Y2.4326
X4.1122Y0.4429
X4.1142Y0.7146
X4.1437Y4.187
X4.1752Y0.9882
X4.1949Y0.1693
X4.2136Y1.498
X4.2215Y1.8543
X4.3337Y1.3031
X4.3376Y2.2717
X4.3455Y1.6299
X4.3494Y2.0591
X4.3504Y2.4882
X4.3533Y0.1004
X4.3622Y4.4154
X4.3622Y2.9764
X4.3671Y3.6811
T3
X1.2988Y2.6098
X1.7157Y3.984
X1.7157Y3.884
X1.7157Y3.784
X1.7157Y3.684
X1.7157Y3.584
X1.7157Y3.484
X1.7157Y3.384
X1.7157Y3.284
X1.7157Y3.184
X1.7157Y3.084
X1.7157Y2.984
X1.7157Y2.884
X1.7157Y2.784
X1.7157Y2.684
X1.7157Y2.584
X1.7157Y2.484
X2.7012Y1.0758
X2.7012Y0.9758
X2.8012Y1.0758
X2.8012Y0.9758
X2.8155Y3.9845
X2.8155Y3.8845
X2.8155Y3.7845
X2.8155Y3.6845
X2.8155Y3.5845
X2.8155Y3.4845
X2.8155Y3.3845
X2.8155Y3.2845
X2.8155Y3.1845
X2.8155Y3.0845
X2.8155Y2.9845
X2.8155Y2.8845
X2.8155Y2.7845
X2.8155Y2.6845
X2.8155Y2.5845
X2.8155Y2.4845
X2.9012Y1.0758
X2.9012Y0.9758
X3.2289Y3.8595
T2
G00X4.1819Y0.739
M15
G01X4.2252Y0.739
M16
G05
G00X4.1819Y0.3988
M15
G01X4.2252Y0.3988
M16
G05
G00X4.3524Y0.739
M15
G01X4.3839Y0.739
M16
G05
G00X4.3524Y0.3988
M15
G01X4.3839Y0.3988
M16
G05
M30
