%TF.GenerationSoftware,KiCad,Pcbnew,9.0.7*%
%TF.CreationDate,2026-01-21T16:50:36+00:00*%
%TF.ProjectId,OE PyBoard tester,4f452050-7942-46f6-9172-642074657374,rev?*%
%TF.SameCoordinates,PX4feafc0PY9062e40*%
%TF.FileFunction,Paste,Top*%
%TF.FilePolarity,Positive*%
%FSLAX46Y46*%
G04 Gerber Fmt 4.6, Leading zero omitted, Abs format (unit mm)*
G04 Created by KiCad (PCBNEW 9.0.7) date 2026-01-21 16:50:36*
%MOMM*%
%LPD*%
G01*
G04 APERTURE LIST*
G04 Aperture macros list*
%AMRoundRect*
0 Rectangle with rounded corners*
0 $1 Rounding radius*
0 $2 $3 $4 $5 $6 $7 $8 $9 X,Y pos of 4 corners*
0 Add a 4 corners polygon primitive as box body*
4,1,4,$2,$3,$4,$5,$6,$7,$8,$9,$2,$3,0*
0 Add four circle primitives for the rounded corners*
1,1,$1+$1,$2,$3*
1,1,$1+$1,$4,$5*
1,1,$1+$1,$6,$7*
1,1,$1+$1,$8,$9*
0 Add four rect primitives between the rounded corners*
20,1,$1+$1,$2,$3,$4,$5,0*
20,1,$1+$1,$4,$5,$6,$7,0*
20,1,$1+$1,$6,$7,$8,$9,0*
20,1,$1+$1,$8,$9,$2,$3,0*%
G04 Aperture macros list end*
%ADD10RoundRect,0.218750X0.218750X0.256250X-0.218750X0.256250X-0.218750X-0.256250X0.218750X-0.256250X0*%
%ADD11R,1.600000X1.400000*%
%ADD12RoundRect,0.135000X-0.185000X0.135000X-0.185000X-0.135000X0.185000X-0.135000X0.185000X0.135000X0*%
%ADD13RoundRect,0.250000X-1.450000X-0.650000X1.450000X-0.650000X1.450000X0.650000X-1.450000X0.650000X0*%
%ADD14RoundRect,0.140000X0.140000X0.170000X-0.140000X0.170000X-0.140000X-0.170000X0.140000X-0.170000X0*%
%ADD15RoundRect,0.135000X-0.135000X-0.185000X0.135000X-0.185000X0.135000X0.185000X-0.135000X0.185000X0*%
%ADD16RoundRect,0.100000X0.100000X-0.850000X0.100000X0.850000X-0.100000X0.850000X-0.100000X-0.850000X0*%
%ADD17RoundRect,0.135000X0.135000X0.185000X-0.135000X0.185000X-0.135000X-0.185000X0.135000X-0.185000X0*%
%ADD18RoundRect,0.250000X0.262500X0.450000X-0.262500X0.450000X-0.262500X-0.450000X0.262500X-0.450000X0*%
%ADD19RoundRect,0.155000X0.155000X-0.212500X0.155000X0.212500X-0.155000X0.212500X-0.155000X-0.212500X0*%
%ADD20RoundRect,0.155000X-0.155000X0.212500X-0.155000X-0.212500X0.155000X-0.212500X0.155000X0.212500X0*%
%ADD21RoundRect,0.150000X0.512500X0.150000X-0.512500X0.150000X-0.512500X-0.150000X0.512500X-0.150000X0*%
%ADD22RoundRect,0.140000X-0.140000X-0.170000X0.140000X-0.170000X0.140000X0.170000X-0.140000X0.170000X0*%
%ADD23RoundRect,0.218750X0.256250X-0.218750X0.256250X0.218750X-0.256250X0.218750X-0.256250X-0.218750X0*%
%ADD24RoundRect,0.150000X-0.512500X-0.150000X0.512500X-0.150000X0.512500X0.150000X-0.512500X0.150000X0*%
%ADD25RoundRect,0.140000X0.170000X-0.140000X0.170000X0.140000X-0.170000X0.140000X-0.170000X-0.140000X0*%
%ADD26R,1.400000X1.200000*%
%ADD27RoundRect,0.140000X-0.170000X0.140000X-0.170000X-0.140000X0.170000X-0.140000X0.170000X0.140000X0*%
%ADD28RoundRect,0.135000X0.185000X-0.135000X0.185000X0.135000X-0.185000X0.135000X-0.185000X-0.135000X0*%
%ADD29RoundRect,0.218750X-0.218750X-0.256250X0.218750X-0.256250X0.218750X0.256250X-0.218750X0.256250X0*%
%ADD30RoundRect,0.250000X-0.275000X-0.275000X0.275000X-0.275000X0.275000X0.275000X-0.275000X0.275000X0*%
%ADD31RoundRect,0.062500X-0.475000X-0.062500X0.475000X-0.062500X0.475000X0.062500X-0.475000X0.062500X0*%
%ADD32RoundRect,0.062500X-0.062500X-0.475000X0.062500X-0.475000X0.062500X0.475000X-0.062500X0.475000X0*%
%ADD33RoundRect,0.225000X0.250000X-0.225000X0.250000X0.225000X-0.250000X0.225000X-0.250000X-0.225000X0*%
%ADD34RoundRect,0.150000X0.425000X-0.150000X0.425000X0.150000X-0.425000X0.150000X-0.425000X-0.150000X0*%
%ADD35RoundRect,0.075000X0.500000X-0.075000X0.500000X0.075000X-0.500000X0.075000X-0.500000X-0.075000X0*%
%ADD36O,2.100000X1.000000*%
%ADD37O,1.800000X1.000000*%
%ADD38RoundRect,0.225000X0.225000X0.250000X-0.225000X0.250000X-0.225000X-0.250000X0.225000X-0.250000X0*%
%TA.AperFunction,Profile*%
%ADD39C,0.500000*%
%TD*%
G04 APERTURE END LIST*
D10*
%TO.C,D11*%
X104612500Y53137500D03*
X106187500Y53137500D03*
%TD*%
%TO.C,D10*%
X94678100Y53062500D03*
X96253100Y53062500D03*
%TD*%
D11*
%TO.C,OK1*%
X98690600Y80750000D03*
X91490600Y80750000D03*
X98690600Y83750000D03*
X91490600Y83750000D03*
%TD*%
%TO.C,NOK1*%
X101425000Y83725000D03*
X108625000Y83725000D03*
X101425000Y80725000D03*
X108625000Y80725000D03*
%TD*%
D12*
%TO.C,R17*%
X98000000Y39410000D03*
X98000000Y38390000D03*
%TD*%
%TO.C,R16*%
X95850000Y39410000D03*
X95850000Y38390000D03*
%TD*%
D13*
%TO.C,TP1*%
X32990681Y103816811D03*
%TD*%
D14*
%TO.C,C11*%
X92230000Y28047500D03*
X91270000Y28047500D03*
%TD*%
D13*
%TO.C,TP11*%
X32990681Y89383478D03*
%TD*%
D11*
%TO.C,SW1*%
X104050000Y95700000D03*
X96850000Y95700000D03*
X104050000Y98700000D03*
X96850000Y98700000D03*
%TD*%
D15*
%TO.C,R32*%
X51490000Y35443200D03*
X52510000Y35443200D03*
%TD*%
D10*
%TO.C,D8*%
X104125000Y66538800D03*
X102550000Y66538800D03*
%TD*%
D15*
%TO.C,R3*%
X100040000Y14100000D03*
X101060000Y14100000D03*
%TD*%
D16*
%TO.C,U2*%
X82600000Y8450000D03*
X83250000Y8450000D03*
X83900000Y8450000D03*
X84550000Y8450000D03*
X85200000Y8450000D03*
X85850000Y8450000D03*
X86500000Y8450000D03*
X87150000Y8450000D03*
X87800000Y8450000D03*
X88450000Y8450000D03*
X89100000Y8450000D03*
X89750000Y8450000D03*
X90400000Y8450000D03*
X91050000Y8450000D03*
X91050000Y15450000D03*
X90400000Y15450000D03*
X89750000Y15450000D03*
X89100000Y15450000D03*
X88450000Y15450000D03*
X87800000Y15450000D03*
X87150000Y15450000D03*
X86500000Y15450000D03*
X85850000Y15450000D03*
X85200000Y15450000D03*
X84550000Y15450000D03*
X83900000Y15450000D03*
X83250000Y15450000D03*
X82600000Y15450000D03*
%TD*%
D17*
%TO.C,R2*%
X101060000Y17400000D03*
X100040000Y17400000D03*
%TD*%
D18*
%TO.C,L1*%
X99512500Y19500000D03*
X97687500Y19500000D03*
%TD*%
D15*
%TO.C,R25*%
X47240000Y42056300D03*
X48260000Y42056300D03*
%TD*%
%TO.C,R11*%
X46461200Y31622000D03*
X47481200Y31622000D03*
%TD*%
D14*
%TO.C,C7*%
X86672500Y19250000D03*
X85712500Y19250000D03*
%TD*%
D15*
%TO.C,R28*%
X38740000Y42093200D03*
X39760000Y42093200D03*
%TD*%
D19*
%TO.C,C15*%
X54050000Y42038800D03*
X54050000Y43173800D03*
%TD*%
D14*
%TO.C,C26*%
X66930000Y42100000D03*
X65970000Y42100000D03*
%TD*%
D20*
%TO.C,C17*%
X64400000Y44006300D03*
X64400000Y42871300D03*
%TD*%
D15*
%TO.C,R10*%
X46711200Y47532400D03*
X47731200Y47532400D03*
%TD*%
%TO.C,R36*%
X38790000Y35143200D03*
X39810000Y35143200D03*
%TD*%
D17*
%TO.C,R34*%
X67060000Y38038800D03*
X66040000Y38038800D03*
%TD*%
%TO.C,R1*%
X101060000Y12450000D03*
X100040000Y12450000D03*
%TD*%
%TO.C,R13*%
X99610000Y69783600D03*
X98590000Y69783600D03*
%TD*%
D21*
%TO.C,U8*%
X71887500Y36188800D03*
X71887500Y37138800D03*
X71887500Y38088800D03*
X69612500Y38088800D03*
X69612500Y36188800D03*
%TD*%
D10*
%TO.C,D3*%
X71787500Y32538800D03*
X70212500Y32538800D03*
%TD*%
D13*
%TO.C,TP22*%
X82014000Y74938533D03*
%TD*%
D15*
%TO.C,R24*%
X51490000Y42056300D03*
X52510000Y42056300D03*
%TD*%
D17*
%TO.C,R37*%
X75910000Y36238800D03*
X74890000Y36238800D03*
%TD*%
D13*
%TO.C,TP24*%
X82014000Y72051867D03*
%TD*%
D22*
%TO.C,C23*%
X47170000Y37343200D03*
X48130000Y37343200D03*
%TD*%
D17*
%TO.C,R14*%
X99610000Y66561200D03*
X98590000Y66561200D03*
%TD*%
D15*
%TO.C,R33*%
X47240000Y35443200D03*
X48260000Y35443200D03*
%TD*%
D22*
%TO.C,C8*%
X85597500Y4882500D03*
X84637500Y4882500D03*
%TD*%
D23*
%TO.C,D1*%
X62950000Y11962500D03*
X62950000Y13537500D03*
%TD*%
D22*
%TO.C,C24*%
X47220000Y43956300D03*
X48180000Y43956300D03*
%TD*%
D13*
%TO.C,TP3*%
X32990681Y100930144D03*
%TD*%
D19*
%TO.C,C19*%
X54050000Y35475700D03*
X54050000Y36610700D03*
%TD*%
D17*
%TO.C,R35*%
X63060000Y37988800D03*
X62040000Y37988800D03*
%TD*%
D14*
%TO.C,C25*%
X66980000Y36138800D03*
X66020000Y36138800D03*
%TD*%
D15*
%TO.C,R23*%
X74880000Y44088800D03*
X75900000Y44088800D03*
%TD*%
D24*
%TO.C,U5*%
X42412500Y43943200D03*
X42412500Y42993200D03*
X42412500Y42043200D03*
X44687500Y42043200D03*
X44687500Y43943200D03*
%TD*%
D13*
%TO.C,TP32*%
X82014000Y60505200D03*
%TD*%
D19*
%TO.C,C20*%
X50100000Y35425700D03*
X50100000Y36560700D03*
%TD*%
D25*
%TO.C,C14*%
X86250000Y23570000D03*
X86250000Y24530000D03*
%TD*%
D17*
%TO.C,R27*%
X63060000Y44050000D03*
X62040000Y44050000D03*
%TD*%
%TO.C,R12*%
X99618700Y73006000D03*
X98598700Y73006000D03*
%TD*%
D13*
%TO.C,TP14*%
X82014000Y86485200D03*
%TD*%
D24*
%TO.C,U7*%
X42412500Y37343200D03*
X42412500Y36393200D03*
X42412500Y35443200D03*
X44687500Y35443200D03*
X44687500Y37343200D03*
%TD*%
D26*
%TO.C,X1*%
X60754000Y27815404D03*
X58154000Y27815404D03*
X58154000Y25815394D03*
X60754000Y25815394D03*
%TD*%
D17*
%TO.C,R26*%
X67060000Y44000000D03*
X66040000Y44000000D03*
%TD*%
D13*
%TO.C,TP25*%
X32990681Y69176811D03*
%TD*%
D22*
%TO.C,C6*%
X105020000Y5600000D03*
X105980000Y5600000D03*
%TD*%
D13*
%TO.C,TP17*%
X32990681Y80723478D03*
%TD*%
D21*
%TO.C,U3*%
X92487500Y23500000D03*
X92487500Y24450000D03*
X92487500Y25400000D03*
X90212500Y25400000D03*
X90212500Y23500000D03*
%TD*%
D13*
%TO.C,TP10*%
X82014000Y92258533D03*
%TD*%
%TO.C,TP9*%
X32990681Y92270144D03*
%TD*%
D12*
%TO.C,R6*%
X88350000Y19810000D03*
X88350000Y18790000D03*
%TD*%
D27*
%TO.C,C2*%
X57354000Y13480000D03*
X57354000Y12520000D03*
%TD*%
D22*
%TO.C,C3*%
X61920000Y21000000D03*
X62880000Y21000000D03*
%TD*%
D28*
%TO.C,R7*%
X62950000Y15440000D03*
X62950000Y16460000D03*
%TD*%
D29*
%TO.C,D4*%
X42912500Y47543200D03*
X44487500Y47543200D03*
%TD*%
D13*
%TO.C,TP21*%
X32990681Y74950144D03*
%TD*%
D17*
%TO.C,R15*%
X99618700Y63338800D03*
X98598700Y63338800D03*
%TD*%
D13*
%TO.C,TP20*%
X82014000Y77825200D03*
%TD*%
%TO.C,TP26*%
X82014000Y69165200D03*
%TD*%
D30*
%TO.C,U1*%
X54400000Y21750000D03*
X54400000Y20450000D03*
X54400000Y19150000D03*
X54400000Y17850000D03*
X55700000Y21750000D03*
X55700000Y20450000D03*
X55700000Y19150000D03*
X55700000Y17850000D03*
X57000000Y21750000D03*
X57000000Y20450000D03*
X57000000Y19150000D03*
X57000000Y17850000D03*
X58300000Y21750000D03*
X58300000Y20450000D03*
X58300000Y19150000D03*
X58300000Y17850000D03*
D31*
X53012500Y22300000D03*
X53012500Y21800000D03*
X53012500Y21300000D03*
X53012500Y20800000D03*
X53012500Y20300000D03*
X53012500Y19800000D03*
X53012500Y19300000D03*
X53012500Y18800000D03*
X53012500Y18300000D03*
X53012500Y17800000D03*
X53012500Y17300000D03*
D32*
X53850000Y16462500D03*
X54350000Y16462500D03*
X54850000Y16462500D03*
X55350000Y16462500D03*
X55850000Y16462500D03*
X56350000Y16462500D03*
X56850000Y16462500D03*
X57350000Y16462500D03*
X57850000Y16462500D03*
X58350000Y16462500D03*
X58850000Y16462500D03*
D31*
X59687500Y17300000D03*
X59687500Y17800000D03*
X59687500Y18300000D03*
X59687500Y18800000D03*
X59687500Y19300000D03*
X59687500Y19800000D03*
X59687500Y20300000D03*
X59687500Y20800000D03*
X59687500Y21300000D03*
X59687500Y21800000D03*
X59687500Y22300000D03*
D32*
X58850000Y23137500D03*
X58350000Y23137500D03*
X57850000Y23137500D03*
X57350000Y23137500D03*
X56850000Y23137500D03*
X56350000Y23137500D03*
X55850000Y23137500D03*
X55350000Y23137500D03*
X54850000Y23137500D03*
X54350000Y23137500D03*
X53850000Y23137500D03*
%TD*%
D27*
%TO.C,C4*%
X49550000Y18130000D03*
X49550000Y17170000D03*
%TD*%
D25*
%TO.C,C10*%
X62750000Y26520000D03*
X62750000Y27480000D03*
%TD*%
D13*
%TO.C,TP28*%
X82014000Y66278533D03*
%TD*%
%TO.C,TP5*%
X32990681Y98043478D03*
%TD*%
%TO.C,TP7*%
X32990681Y95156811D03*
%TD*%
%TO.C,TP30*%
X82014000Y63391867D03*
%TD*%
%TO.C,TP15*%
X32990681Y83610144D03*
%TD*%
D20*
%TO.C,C21*%
X64500000Y37956300D03*
X64500000Y36821300D03*
%TD*%
D15*
%TO.C,R31*%
X74890000Y38088800D03*
X75910000Y38088800D03*
%TD*%
D33*
%TO.C,C13*%
X88100000Y23775000D03*
X88100000Y25325000D03*
%TD*%
D20*
%TO.C,C18*%
X60300000Y44056300D03*
X60300000Y42921300D03*
%TD*%
D13*
%TO.C,TP13*%
X32990681Y86496811D03*
%TD*%
D10*
%TO.C,D6*%
X104125000Y72988800D03*
X102550000Y72988800D03*
%TD*%
D13*
%TO.C,TP12*%
X82014000Y89371867D03*
%TD*%
D17*
%TO.C,R29*%
X75910000Y42188800D03*
X74890000Y42188800D03*
%TD*%
D14*
%TO.C,C5*%
X105980000Y7500000D03*
X105020000Y7500000D03*
%TD*%
D13*
%TO.C,TP23*%
X32990681Y72063478D03*
%TD*%
D27*
%TO.C,C9*%
X89725000Y19730000D03*
X89725000Y18770000D03*
%TD*%
D10*
%TO.C,D7*%
X102550000Y69788800D03*
X104125000Y69788800D03*
%TD*%
D13*
%TO.C,TP18*%
X82014000Y80711867D03*
%TD*%
D17*
%TO.C,R8*%
X67213800Y47078800D03*
X66193800Y47078800D03*
%TD*%
D20*
%TO.C,C22*%
X60450000Y38006300D03*
X60450000Y36871300D03*
%TD*%
D25*
%TO.C,C1*%
X56400000Y26270000D03*
X56400000Y27230000D03*
%TD*%
D13*
%TO.C,TP16*%
X82014000Y83598533D03*
%TD*%
%TO.C,TP2*%
X82014000Y103805200D03*
%TD*%
D17*
%TO.C,R9*%
X67988800Y32539200D03*
X66968800Y32539200D03*
%TD*%
%TO.C,R30*%
X39810000Y37343200D03*
X38790000Y37343200D03*
%TD*%
%TO.C,R22*%
X39760000Y43893200D03*
X38740000Y43893200D03*
%TD*%
D34*
%TO.C,J1*%
X106195000Y11250000D03*
X106195000Y12050000D03*
D35*
X106195000Y13200000D03*
X106195000Y14200000D03*
X106195000Y14700000D03*
X106195000Y15700000D03*
D34*
X106195000Y16850000D03*
X106195000Y17650000D03*
X106195000Y17650000D03*
X106195000Y16850000D03*
D35*
X106195000Y16200000D03*
X106195000Y15200000D03*
X106195000Y13700000D03*
X106195000Y12700000D03*
D34*
X106195000Y12050000D03*
X106195000Y11250000D03*
D36*
X106770000Y10130000D03*
D37*
X110950000Y10130000D03*
D36*
X106770000Y18770000D03*
D37*
X110950000Y18770000D03*
%TD*%
D29*
%TO.C,D5*%
X42662500Y31643200D03*
X44237500Y31643200D03*
%TD*%
D10*
%TO.C,D2*%
X71012500Y47088800D03*
X69437500Y47088800D03*
%TD*%
D13*
%TO.C,TP8*%
X82014000Y95145200D03*
%TD*%
D19*
%TO.C,C16*%
X50100000Y42088800D03*
X50100000Y43223800D03*
%TD*%
D15*
%TO.C,R4*%
X100040000Y15750000D03*
X101060000Y15750000D03*
%TD*%
D21*
%TO.C,U6*%
X71887500Y42138800D03*
X71887500Y43088800D03*
X71887500Y44038800D03*
X69612500Y44038800D03*
X69612500Y42138800D03*
%TD*%
D15*
%TO.C,R5*%
X104940000Y21500000D03*
X105960000Y21500000D03*
%TD*%
D13*
%TO.C,TP19*%
X32990681Y77836811D03*
%TD*%
%TO.C,TP31*%
X32990681Y60516811D03*
%TD*%
D10*
%TO.C,D9*%
X104125000Y63338800D03*
X102550000Y63338800D03*
%TD*%
D38*
%TO.C,C12*%
X92225000Y29847500D03*
X90675000Y29847500D03*
%TD*%
D13*
%TO.C,TP4*%
X82014000Y100918533D03*
%TD*%
%TO.C,TP29*%
X32990681Y63403478D03*
%TD*%
D39*
X113550000Y112700000D02*
X113550000Y2000000D01*
X2000000Y0D02*
G75*
G02*
X0Y2000000I0J2000000D01*
G01*
X1992517Y114685786D02*
X111450000Y114700000D01*
X111550000Y0D02*
X2000000Y0D01*
X111450000Y114700000D02*
G75*
G02*
X113549980Y112700000I97600J-2000000D01*
G01*
X0Y2000000D02*
X0Y112685786D01*
X113550000Y2000000D02*
G75*
G02*
X111550000Y0I-2000000J0D01*
G01*
X0Y112685786D02*
G75*
G02*
X2000000Y114685800I2000000J14D01*
G01*
M02*
